<?xml version="1.0" encoding="utf-8"?>
<!-- Generator: Adobe Illustrator 23.0.1, SVG Export Plug-In . SVG Version: 6.00 Build 0)  -->
<svg version="1.1" id="Capa_1" xmlns="http://www.w3.org/2000/svg" xmlns:xlink="http://www.w3.org/1999/xlink" x="0px" y="0px"
	 viewBox="0 0 1000 650" style="enable-background:new 0 0 1000 650;" xml:space="preserve">
<style type="text/css">
	.st0{opacity:0.95;fill:#FFFFFF;}
	.st1{opacity:0.84;}
	.st2{fill:#F0F0F0;stroke:#B0B0B0;stroke-width:0.5;stroke-miterlimit:10;}
	.st3{fill:#FCFCFC;stroke:#B0B0B0;stroke-width:0.5;stroke-miterlimit:10;}
	.st4{fill:#F2F2F2;stroke:#B0B0B0;stroke-width:0.5;stroke-miterlimit:10;}
	.st5{fill:#F5F5F5;stroke:#B0B0B0;stroke-width:0.5;stroke-miterlimit:10;}
	.st6{fill:#F7F7F7;stroke:#B0B0B0;stroke-width:0.5;stroke-miterlimit:10;}
	.st7{fill:#E6E6E6;stroke:#B0B0B0;stroke-width:0.5;stroke-miterlimit:10;}
	.st8{fill:#FAFAFA;stroke:#B0B0B0;stroke-width:0.5;stroke-miterlimit:10;}
	.st9{fill:#EDEDED;stroke:#B0B0B0;stroke-width:0.5;stroke-miterlimit:10;}
	.st10{opacity:0.92;fill:#82B444;stroke:#6F9E44;stroke-miterlimit:10;}
	.st11{fill:#E8E8E8;stroke:#B0B0B0;stroke-width:0.5;stroke-miterlimit:10;}
	.st12{fill:#618FBE;stroke:#4D80BE;stroke-miterlimit:10;}
	.st13{fill:#EBEBEB;stroke:#B0B0B0;stroke-width:0.5;stroke-miterlimit:10;}
	.st14{fill:#A52E67;stroke:#932267;stroke-miterlimit:10;}
	.st15{fill:#D4823B;stroke:#D4683B;stroke-miterlimit:10;}
	.st16{fill:#E6E6E6;}
	.st17{fill:#FAFAFA;}
</style>
<g>
	<g>
		<rect y="0.7" class="st0" width="1000" height="648.5"/>
	</g>
	<g class="st1">
		<path class="st2" d="M40,11.4c-2.2,0-3,2.1-4.6,3.2c-0.3,0.2-1.3,0.3-1.6,0c-2.4-2.8,0-14.7,0-14.7H0.4v32.5c0,0,12.2-2.4,15.1,0
			c0.3,0.2,0.2,1.2,0,1.5c-1.2,1.6-3.4,2.4-3.4,4.5c0,2.7,2.2,4.8,4.9,4.8s4.9-2.2,4.9-4.8c0-2.1-2.1-2.9-3.3-4.5
			c-0.2-0.3-0.3-1.3,0-1.6c2.9-2.3,15,0,15,0s-2.4-11.9,0-14.7c0.3-0.3,1.3-0.2,1.6,0c1.7,1.2,2.5,3.3,4.7,3.3
			c2.7,0,4.9-2.2,4.9-4.8S42.7,11.4,40,11.4z"/>
		<path class="st3" d="M60.8,11.4c2.2,0,3,2.1,4.7,3.3c0.3,0.2,1.3,0.3,1.6,0C69.5,11.9,67,0,67,0H33.7c0,0-2.4,11.8,0,14.7
			c0.3,0.3,1.3,0.2,1.6,0c1.7-1.1,2.5-3.2,4.6-3.2c2.7,0,4.9,2.2,4.9,4.8s-2.2,4.8-4.9,4.8c-2.2,0-3-2.1-4.7-3.3
			c-0.3-0.2-1.3-0.3-1.6,0c-2.4,2.8,0,14.7,0,14.7s12.2-2.4,15.1,0c0.3,0.2,0.2,1.2,0,1.5c-1.2,1.6-3.4,2.4-3.4,4.5
			c0,2.7,2.2,4.8,4.9,4.8c2.7,0,4.9-2.2,4.9-4.8c0-2.1-2.1-2.9-3.3-4.5c-0.2-0.3-0.3-1.3,0-1.6c2.9-2.3,15,0,15,0s2.4-11.8,0-14.7
			c-0.3-0.3-1.3-0.2-1.6,0c-1.7,1.1-2.5,3.2-4.6,3.2c-2.7,0-4.9-2.2-4.9-4.8S58.1,11.4,60.8,11.4z"/>
		<path class="st4" d="M94.1,11.4c2.2,0,3,2.1,4.7,3.3c0.3,0.2,1.3,0.3,1.6,0c2.4-2.8,0-14.7,0-14.7H67c0,0,2.4,11.9,0,14.7
			c-0.3,0.3-1.3,0.2-1.6,0c-1.7-1.2-2.5-3.3-4.7-3.3c-2.7,0-4.9,2.2-4.9,4.8s2.2,4.8,4.9,4.8c2.1,0,3-2.1,4.6-3.2
			c0.3-0.2,1.3-0.3,1.6,0c2.4,2.8,0,14.7,0,14.7s12.1,2.3,15,0c0.3-0.2,0.2-1.2,0-1.6c-1.2-1.6-3.3-2.4-3.3-4.5
			c0-2.7,2.2-4.8,4.9-4.8c2.7,0,4.9,2.2,4.9,4.8c0,2.1-2.2,2.9-3.4,4.5c-0.2,0.3-0.3,1.3,0,1.5c2.9,2.4,15.1,0,15.1,0
			s2.4-11.8,0-14.7c-0.3-0.3-1.3-0.2-1.6,0c-1.7,1.1-2.5,3.2-4.6,3.2c-2.7,0-4.9-2.2-4.9-4.8S91.4,11.4,94.1,11.4z"/>
		<path class="st4" d="M139.9,11.4c-2.1,0-3,2.1-4.6,3.2c-0.3,0.2-1.3,0.3-1.6,0c-2.4-2.8,0-14.7,0-14.7h-33.3c0,0,2.4,11.9,0,14.7
			c-0.3,0.3-1.3,0.2-1.6,0c-1.7-1.2-2.5-3.3-4.7-3.3c-2.7,0-4.9,2.2-4.9,4.8s2.2,4.8,4.9,4.8c2.1,0,3-2.1,4.6-3.2
			c0.3-0.2,1.3-0.3,1.6,0c2.4,2.8,0,14.7,0,14.7s12.2-2.4,15.1,0c0.3,0.2,0.2,1.2,0,1.5c-1.2,1.6-3.4,2.4-3.4,4.5
			c0,2.7,2.2,4.8,4.9,4.8s4.9-2.2,4.9-4.8c0-2.1-2.1-2.9-3.3-4.5c-0.2-0.3-0.3-1.3,0-1.6c2.9-2.3,15,0,15,0s-2.4-11.9,0-14.7
			c0.3-0.3,1.3-0.2,1.6,0c1.7,1.2,2.5,3.3,4.7,3.3c2.7,0,4.9-2.2,4.9-4.8S142.6,11.4,139.9,11.4z"/>
		<path class="st4" d="M160.8,11.4c2.2,0,3,2.1,4.7,3.3c0.3,0.2,1.3,0.3,1.6,0c2.4-2.8,0-14.7,0-14.7h-33.3c0,0-2.4,11.8,0,14.7
			c0.3,0.3,1.3,0.2,1.6,0c1.7-1.1,2.5-3.2,4.6-3.2c2.7,0,4.9,2.2,4.9,4.8s-2.2,4.8-4.9,4.8c-2.2,0-3-2.1-4.7-3.3
			c-0.3-0.2-1.3-0.3-1.6,0c-2.4,2.8,0,14.7,0,14.7s12.1,2.3,15,0c0.3-0.2,0.2-1.2,0-1.6c-1.2-1.6-3.3-2.4-3.3-4.5
			c0-2.7,2.2-4.8,4.9-4.8s4.9,2.2,4.9,4.8c0,2.1-2.2,2.9-3.4,4.5c-0.2,0.3-0.3,1.3,0,1.5c2.9,2.4,15.1,0,15.1,0s2.4-11.8,0-14.7
			c-0.3-0.3-1.3-0.2-1.6,0c-1.7,1.1-2.5,3.2-4.6,3.2c-2.7,0-4.9-2.2-4.9-4.8S158,11.4,160.8,11.4z"/>
		<path class="st4" d="M194.1,11.4c2.2,0,3,2.1,4.7,3.3c0.3,0.2,1.3,0.3,1.6,0c2.4-2.8,0-14.7,0-14.7H167c0,0,2.4,11.9,0,14.7
			c-0.3,0.3-1.3,0.2-1.6,0c-1.7-1.2-2.5-3.3-4.7-3.3c-2.7,0-4.9,2.2-4.9,4.8s2.2,4.8,4.9,4.8c2.1,0,3-2.1,4.6-3.2
			c0.3-0.2,1.3-0.3,1.6,0c2.4,2.8,0,14.7,0,14.7s12.2-2.4,15.1,0c0.3,0.2,0.2,1.2,0,1.5c-1.2,1.6-3.4,2.4-3.4,4.5
			c0,2.7,2.2,4.8,4.9,4.8c2.7,0,4.9-2.2,4.9-4.8c0-2.1-2.1-2.9-3.3-4.5c-0.2-0.3-0.3-1.3,0-1.6c2.9-2.3,15,0,15,0s2.4-11.8,0-14.7
			c-0.3-0.3-1.3-0.2-1.6,0c-1.7,1.1-2.5,3.2-4.6,3.2c-2.7,0-4.9-2.2-4.9-4.8S191.4,11.4,194.1,11.4z"/>
		<path class="st5" d="M239.9,11.4c-2.2,0-3,2.1-4.6,3.2c-0.3,0.2-1.3,0.3-1.6,0c-2.4-2.8,0-14.7,0-14.7h-33.3c0,0,2.4,11.9,0,14.7
			c-0.3,0.3-1.3,0.2-1.6,0c-1.7-1.2-2.5-3.3-4.7-3.3c-2.7,0-4.9,2.2-4.9,4.8s2.2,4.8,4.9,4.8c2.1,0,3-2.1,4.6-3.2
			c0.3-0.2,1.3-0.3,1.6,0c2.4,2.8,0,14.7,0,14.7s12.2-2.4,15.1,0c0.3,0.2,0.2,1.2,0,1.5c-1.2,1.6-3.4,2.4-3.4,4.5
			c0,2.7,2.2,4.8,4.9,4.8c2.7,0,4.9-2.2,4.9-4.8c0-2.1-2.1-2.9-3.3-4.5c-0.2-0.3-0.3-1.3,0-1.6c2.9-2.3,15,0,15,0s-2.4-11.9,0-14.7
			c0.3-0.3,1.3-0.2,1.6,0c1.7,1.2,2.5,3.3,4.7,3.3c2.7,0,4.9-2.2,4.9-4.8S242.6,11.4,239.9,11.4z"/>
		<path class="st6" d="M273.2,11.4c-2.2,0-3,2.1-4.6,3.2c-0.3,0.2-1.3,0.3-1.6,0c-2.4-2.8,0-14.7,0-14.7h-33.3c0,0-2.4,11.8,0,14.7
			c0.3,0.3,1.3,0.2,1.6,0c1.7-1.1,2.5-3.2,4.6-3.2c2.7,0,4.9,2.2,4.9,4.8s-2.2,4.8-4.9,4.8c-2.2,0-3-2.1-4.7-3.3
			c-0.3-0.2-1.3-0.3-1.6,0c-2.4,2.8,0,14.7,0,14.7s12.2-2.4,15.1,0c0.3,0.2,0.2,1.2,0,1.5c-1.2,1.6-3.4,2.4-3.4,4.5
			c0,2.7,2.2,4.8,4.9,4.8c2.7,0,4.9-2.2,4.9-4.8c0-2.1-2.1-2.9-3.3-4.5c-0.2-0.3-0.3-1.3,0-1.6c2.9-2.3,15,0,15,0s-2.4-11.9,0-14.7
			c0.3-0.3,1.3-0.2,1.6,0c1.7,1.2,2.5,3.3,4.7,3.3c2.7,0,4.9-2.2,4.9-4.8S275.9,11.4,273.2,11.4z"/>
		<path class="st5" d="M294,11.4c2.2,0,3,2.1,4.7,3.3c0.3,0.2,1.3,0.3,1.6,0c2.4-2.8,0-14.7,0-14.7H267c0,0-2.4,11.8,0,14.7
			c0.3,0.3,1.3,0.2,1.6,0c1.7-1.1,2.5-3.2,4.6-3.2c2.7,0,4.9,2.2,4.9,4.8s-2.2,4.8-4.9,4.8c-2.2,0-3-2.1-4.7-3.3
			c-0.3-0.2-1.3-0.3-1.6,0c-2.4,2.8,0,14.7,0,14.7s12.1,2.3,15,0c0.3-0.2,0.2-1.2,0-1.6c-1.2-1.6-3.3-2.4-3.3-4.5
			c0-2.7,2.2-4.8,4.9-4.8s4.9,2.2,4.9,4.8c0,2.1-2.2,2.9-3.4,4.5c-0.2,0.3-0.3,1.3,0,1.5c2.9,2.4,15.1,0,15.1,0s2.4-11.8,0-14.7
			c-0.3-0.3-1.3-0.2-1.6,0c-1.7,1.1-2.5,3.2-4.6,3.2c-2.7,0-4.9-2.2-4.9-4.8S291.3,11.4,294,11.4z"/>
		<path class="st7" d="M339.8,11.4c-2.2,0-3,2.1-4.6,3.2c-0.3,0.2-1.3,0.3-1.6,0c-2.4-2.8,0-14.7,0-14.7h-33.3c0,0,2.4,11.9,0,14.7
			c-0.3,0.3-1.3,0.2-1.6,0c-1.7-1.2-2.5-3.3-4.7-3.3c-2.7,0-4.9,2.2-4.9,4.8s2.2,4.8,4.9,4.8c2.1,0,3-2.1,4.6-3.2
			c0.3-0.2,1.3-0.3,1.6,0c2.4,2.8,0,14.7,0,14.7s12.1,2.3,15,0c0.3-0.2,0.2-1.2,0-1.6c-1.2-1.6-3.3-2.4-3.3-4.5
			c0-2.7,2.2-4.8,4.9-4.8s4.9,2.2,4.9,4.8c0,2.1-2.2,2.9-3.4,4.5c-0.2,0.3-0.3,1.3,0,1.5c2.9,2.4,15.1,0,15.1,0s-2.4-11.9,0-14.7
			c0.3-0.3,1.3-0.2,1.6,0c1.7,1.2,2.5,3.3,4.7,3.3c2.7,0,4.9-2.2,4.9-4.8S342.6,11.4,339.8,11.4z"/>
		<path class="st3" d="M360.7,11.4c2.2,0,3,2.1,4.7,3.3c0.3,0.2,1.3,0.3,1.6,0c2.4-2.8,0-14.7,0-14.7h-33.3c0,0-2.4,11.8,0,14.7
			c0.3,0.3,1.3,0.2,1.6,0c1.7-1.1,2.5-3.2,4.6-3.2c2.7,0,4.9,2.2,4.9,4.8s-2.2,4.8-4.9,4.8c-2.2,0-3-2.1-4.7-3.3
			c-0.3-0.2-1.3-0.3-1.6,0c-2.4,2.8,0,14.7,0,14.7s12.1,2.3,15,0c0.3-0.2,0.2-1.2,0-1.6c-1.2-1.6-3.3-2.4-3.3-4.5
			c0-2.7,2.2-4.8,4.9-4.8s4.9,2.2,4.9,4.8c0,2.1-2.2,2.9-3.4,4.5c-0.2,0.3-0.3,1.3,0,1.5c2.9,2.4,15.1,0,15.1,0s2.4-11.8,0-14.7
			c-0.3-0.3-1.3-0.2-1.6,0c-1.7,1.1-2.5,3.2-4.6,3.2c-2.7,0-4.9-2.2-4.9-4.8S358,11.4,360.7,11.4z"/>
		<path class="st2" d="M394,11.4c2.2,0,3,2.1,4.7,3.3c0.3,0.2,1.3,0.3,1.6,0c2.4-2.8,0-14.7,0-14.7h-33.3c0,0,2.4,11.9,0,14.7
			c-0.3,0.3-1.3,0.2-1.6,0c-1.7-1.2-2.5-3.3-4.7-3.3c-2.7,0-4.9,2.2-4.9,4.8s2.2,4.8,4.9,4.8c2.1,0,3-2.1,4.6-3.2
			c0.3-0.2,1.3-0.3,1.6,0c2.4,2.8,0,14.7,0,14.7s12.1,2.3,15,0c0.3-0.2,0.2-1.2,0-1.6c-1.2-1.6-3.3-2.4-3.3-4.5
			c0-2.7,2.2-4.8,4.9-4.8c2.7,0,4.9,2.2,4.9,4.8c0,2.1-2.2,2.9-3.4,4.5c-0.2,0.3-0.3,1.3,0,1.5c2.9,2.4,15.1,0,15.1,0
			s2.4-11.8,0-14.7c-0.3-0.3-1.3-0.2-1.6,0c-1.7,1.1-2.5,3.2-4.6,3.2c-2.7,0-4.9-2.2-4.9-4.8S391.3,11.4,394,11.4z"/>
		<path class="st3" d="M439.8,11.4c-2.2,0-3,2.1-4.6,3.2c-0.3,0.2-1.3,0.3-1.6,0c-2.4-2.8,0-14.7,0-14.7h-33.3c0,0,2.4,11.9,0,14.7
			c-0.3,0.3-1.3,0.2-1.6,0c-1.7-1.2-2.5-3.3-4.7-3.3c-2.7,0-4.9,2.2-4.9,4.8s2.2,4.8,4.9,4.8c2.1,0,3-2.1,4.6-3.2
			c0.3-0.2,1.3-0.3,1.6,0c2.4,2.8,0,14.7,0,14.7s12.2-2.4,15.1,0c0.3,0.2,0.2,1.2,0,1.5c-1.2,1.6-3.4,2.4-3.4,4.5
			c0,2.7,2.2,4.8,4.9,4.8s4.9-2.2,4.9-4.8c0-2.1-2.1-2.9-3.3-4.5c-0.2-0.3-0.3-1.3,0-1.6c2.9-2.3,15,0,15,0s-2.4-11.9,0-14.7
			c0.3-0.3,1.3-0.2,1.6,0c1.7,1.2,2.5,3.3,4.7,3.3c2.7,0,4.9-2.2,4.9-4.8S442.5,11.4,439.8,11.4z"/>
		<path class="st4" d="M460.6,11.4c2.2,0,3,2.1,4.7,3.3c0.3,0.2,1.3,0.3,1.6,0c2.4-2.8,0-14.7,0-14.7h-33.3c0,0-2.4,11.8,0,14.7
			c0.3,0.3,1.3,0.2,1.6,0c1.7-1.1,2.5-3.2,4.6-3.2c2.7,0,4.9,2.2,4.9,4.8s-2.2,4.8-4.9,4.8c-2.2,0-3-2.1-4.7-3.3
			c-0.3-0.2-1.3-0.3-1.6,0c-2.4,2.8,0,14.7,0,14.7s12.2-2.4,15.1,0c0.3,0.2,0.2,1.2,0,1.5c-1.2,1.6-3.4,2.4-3.4,4.5
			c0,2.7,2.2,4.8,4.9,4.8s4.9-2.2,4.9-4.8c0-2.1-2.1-2.9-3.3-4.5c-0.2-0.3-0.3-1.3,0-1.6c2.9-2.3,15,0,15,0s2.4-11.8,0-14.7
			c-0.3-0.3-1.3-0.2-1.6,0c-1.7,1.1-2.5,3.2-4.6,3.2c-2.7,0-4.9-2.2-4.9-4.8S457.9,11.4,460.6,11.4z"/>
		<path class="st5" d="M494,11.4c2.2,0,3,2.1,4.7,3.3c0.3,0.2,1.3,0.3,1.6,0c2.4-2.8,0-14.7,0-14.7h-33.3c0,0,2.4,11.9,0,14.7
			c-0.3,0.3-1.3,0.2-1.6,0c-1.7-1.2-2.5-3.3-4.7-3.3c-2.7,0-4.9,2.2-4.9,4.8s2.2,4.8,4.9,4.8c2.1,0,3-2.1,4.6-3.2
			c0.3-0.2,1.3-0.3,1.6,0c2.4,2.8,0,14.7,0,14.7s12.2-2.4,15.1,0c0.3,0.2,0.2,1.2,0,1.5c-1.2,1.6-3.4,2.4-3.4,4.5
			c0,2.7,2.2,4.8,4.9,4.8s4.9-2.2,4.9-4.8c0-2.1-2.1-2.9-3.3-4.5c-0.2-0.3-0.3-1.3,0-1.6c2.9-2.3,15,0,15,0s2.4-11.8,0-14.7
			c-0.3-0.3-1.3-0.2-1.6,0c-1.7,1.1-2.5,3.2-4.6,3.2c-2.7,0-4.9-2.2-4.9-4.8S491.2,11.4,494,11.4z"/>
		<path class="st8" d="M539.7,11.4c-2.2,0-3,2.1-4.6,3.2c-0.3,0.2-1.3,0.3-1.6,0c-2.4-2.8,0-14.7,0-14.7h-33.3c0,0,2.4,11.9,0,14.7
			c-0.3,0.3-1.3,0.2-1.6,0c-1.7-1.2-2.5-3.3-4.7-3.3c-2.7,0-4.9,2.2-4.9,4.8s2.2,4.8,4.9,4.8c2.1,0,3-2.1,4.6-3.2
			c0.3-0.2,1.3-0.3,1.6,0c2.4,2.8,0,14.7,0,14.7s12.1,2.3,15,0c0.3-0.2,0.2-1.2,0-1.6c-1.2-1.6-3.3-2.4-3.3-4.5
			c0-2.7,2.2-4.8,4.9-4.8s4.9,2.2,4.9,4.8c0,2.1-2.2,2.9-3.4,4.5c-0.2,0.3-0.3,1.3,0,1.5c2.9,2.4,15.1,0,15.1,0s-2.4-11.9,0-14.7
			c0.3-0.3,1.3-0.2,1.6,0c1.7,1.2,2.5,3.3,4.7,3.3c2.7,0,4.9-2.2,4.9-4.8S542.5,11.4,539.7,11.4z"/>
		<path class="st9" d="M560.6,11.4c2.2,0,3,2.1,4.7,3.3c0.3,0.2,1.3,0.3,1.6,0c2.4-2.8,0-14.7,0-14.7h-33.3c0,0-2.4,11.8,0,14.7
			c0.3,0.3,1.3,0.2,1.6,0c1.7-1.1,2.5-3.2,4.6-3.2c2.7,0,4.9,2.2,4.9,4.8s-2.2,4.8-4.9,4.8c-2.2,0-3-2.1-4.7-3.3
			c-0.3-0.2-1.3-0.3-1.6,0c-2.4,2.8,0,14.7,0,14.7s12.1,2.3,15,0c0.3-0.2,0.2-1.2,0-1.6c-1.2-1.6-3.3-2.4-3.3-4.5
			c0-2.7,2.2-4.8,4.9-4.8c2.7,0,4.9,2.2,4.9,4.8c0,2.1-2.2,2.9-3.4,4.5c-0.2,0.3-0.3,1.3,0,1.5c2.9,2.4,15.1,0,15.1,0
			s2.4-11.8,0-14.7c-0.3-0.3-1.3-0.2-1.6,0c-1.7,1.1-2.5,3.2-4.6,3.2c-2.7,0-4.9-2.2-4.9-4.8S557.9,11.4,560.6,11.4z"/>
		<path class="st9" d="M627.2,11.4c2.2,0,3,2.1,4.7,3.3c0.3,0.2,1.3,0.3,1.6,0c2.4-2.8,0-14.7,0-14.7h-33.3c0,0-2.4,11.8,0,14.7
			c0.3,0.3,1.3,0.2,1.6,0c1.7-1.1,2.5-3.2,4.6-3.2c2.7,0,4.9,2.2,4.9,4.8s-2.2,4.8-4.9,4.8c-2.2,0-3-2.1-4.7-3.3
			c-0.3-0.2-1.3-0.3-1.6,0c-2.4,2.8,0,14.7,0,14.7s12.2-2.4,15.1,0c0.3,0.2,0.2,1.2,0,1.5c-1.2,1.6-3.4,2.4-3.4,4.5
			c0,2.7,2.2,4.8,4.9,4.8s4.9-2.2,4.9-4.8c0-2.1-2.1-2.9-3.3-4.5c-0.2-0.3-0.3-1.3,0-1.6c2.9-2.3,15,0,15,0s2.4-11.8,0-14.7
			c-0.3-0.3-1.3-0.2-1.6,0c-1.7,1.1-2.5,3.2-4.6,3.2c-2.7,0-4.9-2.2-4.9-4.8S624.5,11.4,627.2,11.4z"/>
		<path class="st4" d="M673,11.4c-2.2,0-3,2.1-4.6,3.2c-0.3,0.2-1.3,0.3-1.6,0c-2.4-2.8,0-14.7,0-14.7h-33.3c0,0,2.4,11.9,0,14.7
			c-0.3,0.3-1.3,0.2-1.6,0c-1.7-1.2-2.5-3.3-4.7-3.3c-2.7,0-4.9,2.2-4.9,4.8s2.2,4.8,4.9,4.8c2.1,0,3-2.1,4.6-3.2
			c0.3-0.2,1.3-0.3,1.6,0c2.4,2.8,0,14.7,0,14.7s12.2-2.4,15.1,0c0.3,0.2,0.2,1.2,0,1.5c-1.2,1.6-3.4,2.4-3.4,4.5
			c0,2.7,2.2,4.8,4.9,4.8c2.7,0,4.9-2.2,4.9-4.8c0-2.1-2.1-2.9-3.3-4.5c-0.2-0.3-0.3-1.3,0-1.6c2.9-2.3,15,0,15,0s-2.4-11.9,0-14.7
			c0.3-0.3,1.3-0.2,1.6,0c1.7,1.2,2.5,3.3,4.7,3.3c2.7,0,4.9-2.2,4.9-4.8S675.7,11.4,673,11.4z"/>
		<path class="st10" d="M693.9,11.4c2.2,0,3,2.1,4.7,3.3c0.3,0.2,1.3,0.3,1.6,0c2.4-2.8,0-14.7,0-14.7h-33.3c0,0-2.4,11.8,0,14.7
			c0.3,0.3,1.3,0.2,1.6,0c1.7-1.1,2.5-3.2,4.6-3.2c2.7,0,4.9,2.2,4.9,4.8s-2.2,4.8-4.9,4.8c-2.2,0-3-2.1-4.7-3.3
			c-0.3-0.2-1.3-0.3-1.6,0c-2.4,2.8,0,14.7,0,14.7s12.2-2.4,15.1,0c0.3,0.2,0.2,1.2,0,1.5c-1.2,1.6-3.4,2.4-3.4,4.5
			c0,2.7,2.2,4.8,4.9,4.8s4.9-2.2,4.9-4.8c0-2.1-2.1-2.9-3.3-4.5c-0.2-0.3-0.3-1.3,0-1.6c2.9-2.3,15,0,15,0s2.4-11.8,0-14.7
			c-0.3-0.3-1.3-0.2-1.6,0c-1.7,1.1-2.5,3.2-4.6,3.2c-2.7,0-4.9-2.2-4.9-4.8S691.1,11.4,693.9,11.4z"/>
		<path class="st6" d="M739.7,11.4c-2.2,0-3,2.1-4.6,3.2c-0.3,0.2-1.3,0.3-1.6,0c-2.4-2.8,0-14.7,0-14.7h-33.3c0,0,2.4,11.9,0,14.7
			c-0.3,0.3-1.3,0.2-1.6,0c-1.7-1.2-2.5-3.3-4.7-3.3c-2.7,0-4.9,2.2-4.9,4.8s2.2,4.8,4.9,4.8c2.1,0,3-2.1,4.6-3.2
			c0.3-0.2,1.3-0.3,1.6,0c2.4,2.8,0,14.7,0,14.7s12.1,2.3,15,0c0.3-0.2,0.2-1.2,0-1.6c-1.2-1.6-3.3-2.4-3.3-4.5
			c0-2.7,2.2-4.8,4.9-4.8s4.9,2.2,4.9,4.8c0,2.1-2.2,2.9-3.4,4.5c-0.2,0.3-0.3,1.3,0,1.5c2.9,2.4,15.1,0,15.1,0s-2.4-11.9,0-14.7
			c0.3-0.3,1.3-0.2,1.6,0c1.7,1.2,2.5,3.3,4.7,3.3c2.7,0,4.9-2.2,4.9-4.8S742.4,11.4,739.7,11.4z"/>
		<path class="st6" d="M760.5,11.4c2.2,0,3,2.1,4.7,3.3c0.3,0.2,1.3,0.3,1.6,0c2.4-2.8,0-14.7,0-14.7h-33.3c0,0-2.4,11.8,0,14.7
			c0.3,0.3,1.3,0.2,1.6,0c1.7-1.1,2.5-3.2,4.6-3.2c2.7,0,4.9,2.2,4.9,4.8s-2.2,4.8-4.9,4.8c-2.2,0-3-2.1-4.7-3.3
			c-0.3-0.2-1.3-0.3-1.6,0c-2.4,2.8,0,14.7,0,14.7s12.1,2.3,15,0c0.3-0.2,0.2-1.2,0-1.6c-1.2-1.6-3.3-2.4-3.3-4.5
			c0-2.7,2.2-4.8,4.9-4.8c2.7,0,4.9,2.2,4.9,4.8c0,2.1-2.2,2.9-3.4,4.5c-0.2,0.3-0.3,1.3,0,1.5c2.9,2.4,15.1,0,15.1,0
			s2.4-11.8,0-14.7c-0.3-0.3-1.3-0.2-1.6,0c-1.7,1.1-2.5,3.2-4.6,3.2c-2.7,0-4.9-2.2-4.9-4.8S757.8,11.4,760.5,11.4z"/>
		<path class="st2" d="M793.8,11.4c2.2,0,3,2.1,4.7,3.3c0.3,0.2,1.3,0.3,1.6,0c2.4-2.8,0-14.7,0-14.7h-33.3c0,0,2.4,11.9,0,14.7
			c-0.3,0.3-1.3,0.2-1.6,0c-1.7-1.2-2.5-3.3-4.7-3.3c-2.7,0-4.9,2.2-4.9,4.8s2.2,4.8,4.9,4.8c2.1,0,3-2.1,4.6-3.2
			c0.3-0.2,1.3-0.3,1.6,0c2.4,2.8,0,14.7,0,14.7s12.2-2.4,15.1,0c0.3,0.2,0.2,1.2,0,1.5c-1.2,1.6-3.4,2.4-3.4,4.5
			c0,2.7,2.2,4.8,4.9,4.8s4.9-2.2,4.9-4.8c0-2.1-2.1-2.9-3.3-4.5c-0.2-0.3-0.3-1.3,0-1.6c2.9-2.3,15,0,15,0s2.4-11.8,0-14.7
			c-0.3-0.3-1.3-0.2-1.6,0c-1.7,1.1-2.5,3.2-4.6,3.2c-2.7,0-4.9-2.2-4.9-4.8S791.1,11.4,793.8,11.4z"/>
		<path class="st3" d="M839.6,11.4c-2.2,0-3,2.1-4.6,3.2c-0.3,0.2-1.3,0.3-1.6,0c-2.4-2.8,0-14.7,0-14.7h-33.3c0,0,2.4,11.9,0,14.7
			c-0.3,0.3-1.3,0.2-1.6,0c-1.7-1.2-2.5-3.3-4.7-3.3c-2.7,0-4.9,2.2-4.9,4.8s2.2,4.8,4.9,4.8c2.1,0,3-2.1,4.6-3.2
			c0.3-0.2,1.3-0.3,1.6,0c2.4,2.8,0,14.7,0,14.7s12.1,2.3,15,0c0.3-0.2,0.2-1.2,0-1.6c-1.2-1.6-3.3-2.4-3.3-4.5
			c0-2.7,2.2-4.8,4.9-4.8c2.7,0,4.9,2.2,4.9,4.8c0,2.1-2.2,2.9-3.4,4.5c-0.2,0.3-0.3,1.3,0,1.5c2.9,2.4,15.1,0,15.1,0
			s-2.4-11.9,0-14.7c0.3-0.3,1.3-0.2,1.6,0c1.7,1.2,2.5,3.3,4.7,3.3c2.7,0,4.9-2.2,4.9-4.8S842.3,11.4,839.6,11.4z"/>
		<path class="st2" d="M860.5,11.4c2.2,0,3,2.1,4.7,3.3c0.3,0.2,1.3,0.3,1.6,0c2.4-2.8,0-14.7,0-14.7h-33.3c0,0-2.4,11.8,0,14.7
			c0.3,0.3,1.3,0.2,1.6,0c1.7-1.1,2.5-3.2,4.6-3.2c2.7,0,4.9,2.2,4.9,4.8s-2.2,4.8-4.9,4.8c-2.2,0-3-2.1-4.7-3.3
			c-0.3-0.2-1.3-0.3-1.6,0c-2.4,2.8,0,14.7,0,14.7s12.1,2.3,15,0c0.3-0.2,0.2-1.2,0-1.6c-1.2-1.6-3.3-2.4-3.3-4.5
			c0-2.7,2.2-4.8,4.9-4.8s4.9,2.2,4.9,4.8c0,2.1-2.2,2.9-3.4,4.5c-0.2,0.3-0.3,1.3,0,1.5c2.9,2.4,15.1,0,15.1,0s2.4-11.8,0-14.7
			c-0.3-0.3-1.3-0.2-1.6,0c-1.7,1.1-2.5,3.2-4.6,3.2c-2.7,0-4.9-2.2-4.9-4.8S857.7,11.4,860.5,11.4z"/>
		<path class="st3" d="M906.3,11.4c-2.1,0-3,2.1-4.6,3.2c-0.3,0.2-1.3,0.3-1.6,0c-2.4-2.8,0-14.7,0-14.7h-33.3c0,0,2.4,11.9,0,14.7
			c-0.3,0.3-1.3,0.2-1.6,0c-1.7-1.2-2.5-3.3-4.7-3.3c-2.7,0-4.9,2.2-4.9,4.8s2.2,4.8,4.9,4.8c2.1,0,3-2.1,4.6-3.2
			c0.3-0.2,1.3-0.3,1.6,0c2.4,2.8,0,14.7,0,14.7s12.1,2.3,15,0c0.3-0.2,0.2-1.2,0-1.6c-1.2-1.6-3.3-2.4-3.3-4.5
			c0-2.7,2.2-4.8,4.9-4.8s4.9,2.2,4.9,4.8c0,2.1-2.2,2.9-3.4,4.5c-0.2,0.3-0.3,1.3,0,1.5c2.9,2.4,15.1,0,15.1,0s-2.4-11.9,0-14.7
			c0.3-0.3,1.3-0.2,1.6,0c1.7,1.2,2.5,3.3,4.7,3.3c2.7,0,4.9-2.2,4.9-4.8S909,11.4,906.3,11.4z"/>
		<path class="st11" d="M927.1,11.4c2.2,0,3,2.1,4.7,3.3c0.3,0.2,1.3,0.3,1.6,0c2.4-2.8,0-14.7,0-14.7H900c0,0-2.4,11.8,0,14.7
			c0.3,0.3,1.3,0.2,1.6,0c1.7-1.1,2.5-3.2,4.6-3.2c2.7,0,4.9,2.2,4.9,4.8s-2.2,4.8-4.9,4.8c-2.2,0-3-2.1-4.7-3.3
			c-0.3-0.2-1.3-0.3-1.6,0c-2.4,2.8,0,14.7,0,14.7s12.2-2.4,15.1,0c0.3,0.2,0.2,1.2,0,1.5c-1.2,1.6-3.4,2.4-3.4,4.5
			c0,2.7,2.2,4.8,4.9,4.8c2.7,0,4.9-2.2,4.9-4.8c0-2.1-2.1-2.9-3.3-4.5c-0.2-0.3-0.3-1.3,0-1.6c2.9-2.3,15,0,15,0s2.4-11.8,0-14.7
			c-0.3-0.3-1.3-0.2-1.6,0c-1.7,1.1-2.5,3.2-4.6,3.2c-2.7,0-4.9-2.2-4.9-4.8S924.4,11.4,927.1,11.4z"/>
		<path class="st11" d="M972.9,11.4c-2.1,0-3,2.1-4.6,3.2c-0.3,0.2-1.3,0.3-1.6,0c-2.4-2.8,0-14.7,0-14.7h-33.3c0,0,2.4,11.9,0,14.7
			c-0.3,0.3-1.3,0.2-1.6,0c-1.7-1.2-2.5-3.3-4.7-3.3c-2.7,0-4.9,2.2-4.9,4.8s2.2,4.8,4.9,4.8c2.2,0,3-2.1,4.6-3.2
			c0.3-0.2,1.3-0.3,1.6,0c2.4,2.8,0,14.7,0,14.7s12.2-2.4,15.1,0c0.3,0.2,0.2,1.2,0,1.5c-1.2,1.6-3.4,2.4-3.4,4.5
			c0,2.7,2.2,4.8,4.9,4.8s4.9-2.2,4.9-4.8c0-2.1-2.1-2.9-3.3-4.5c-0.2-0.3-0.3-1.3,0-1.6c2.9-2.3,15,0,15,0s-2.4-11.9,0-14.7
			c0.3-0.3,1.3-0.2,1.6,0c1.7,1.2,2.5,3.3,4.7,3.3c2.7,0,4.9-2.2,4.9-4.8S975.6,11.4,972.9,11.4z"/>
		<path class="st6" d="M966.7,0c0,0-2.4,11.8,0,14.7c0.3,0.3,1.3,0.2,1.6,0c1.7-1.1,2.5-3.2,4.6-3.2c2.7,0,4.9,2.2,4.9,4.8
			s-2.2,4.8-4.9,4.8c-2.2,0-3-2.1-4.7-3.3c-0.3-0.2-1.3-0.3-1.6,0c-2.4,2.8,0,14.7,0,14.7s12.1,2.3,15,0c0.3-0.2,0.2-1.2,0-1.6
			c-1.2-1.6-3.3-2.4-3.3-4.5c0-2.7,2.2-4.8,4.9-4.8s4.9,2.2,4.9,4.8c0,2.1-2.2,2.9-3.4,4.5c-0.2,0.3-0.3,1.3,0,1.5
			c2.9,2.4,15.1,0,15.1,0V0H966.7z"/>
		<path class="st4" d="M27.5,43.9c2.2,0,3,2.1,4.7,3.3c0.3,0.2,1.3,0.3,1.6,0c2.4-2.8,0-14.7,0-14.7s-12.1-2.3-15,0
			c-0.3,0.2-0.2,1.2,0,1.6c1.2,1.6,3.3,2.4,3.3,4.5c0,2.7-2.2,4.8-4.9,4.8s-4.9-2.2-4.9-4.8c0-2.1,2.2-2.9,3.4-4.5
			c0.2-0.3,0.3-1.3,0-1.5c-2.9-2.4-15.1,0-15.1,0V65c0,0,12.2-2.4,15.1,0c0.3,0.2,0.2,1.2,0,1.5c-1.2,1.6-3.4,2.4-3.4,4.5
			c0,2.7,2.2,4.8,4.9,4.8s4.9-2.2,4.9-4.8c0-2.1-2.1-2.9-3.3-4.5c-0.2-0.3-0.3-1.3,0-1.6c2.9-2.3,15,0,15,0s2.4-11.8,0-14.7
			c-0.3-0.3-1.3-0.2-1.6,0c-1.7,1.1-2.5,3.2-4.6,3.2c-2.7,0-4.9-2.2-4.9-4.8C22.6,46.1,24.8,43.9,27.5,43.9z"/>
		<path class="st8" d="M73.3,43.9c-2.2,0-3,2.1-4.6,3.2c-0.3,0.2-1.3,0.3-1.6,0c-2.4-2.8,0-14.7,0-14.7s-12.1-2.3-15,0
			c-0.3,0.2-0.2,1.2,0,1.6c1.2,1.6,3.3,2.4,3.3,4.5c0,2.7-2.2,4.8-4.9,4.8c-2.7,0-4.9-2.2-4.9-4.8c0-2.1,2.2-2.9,3.4-4.5
			c0.2-0.3,0.3-1.3,0-1.5c-2.9-2.4-15.1,0-15.1,0s2.4,11.9,0,14.7c-0.3,0.3-1.3,0.2-1.6,0c-1.7-1.2-2.5-3.3-4.7-3.3
			c-2.7,0-4.9,2.2-4.9,4.8c0,2.7,2.2,4.8,4.9,4.8c2.1,0,3-2.1,4.6-3.2c0.3-0.2,1.3-0.3,1.6,0c2.4,2.8,0,14.7,0,14.7s12.1,2.3,15,0
			c0.3-0.2,0.2-1.2,0-1.6c-1.2-1.6-3.3-2.4-3.3-4.5c0-2.7,2.2-4.8,4.9-4.8c2.7,0,4.9,2.2,4.9,4.8c0,2.1-2.2,2.9-3.4,4.5
			c-0.2,0.3-0.3,1.3,0,1.5c2.9,2.4,15.1,0,15.1,0s-2.4-11.9,0-14.7c0.3-0.3,1.3-0.2,1.6,0c1.7,1.2,2.5,3.3,4.7,3.3
			c2.7,0,4.9-2.2,4.9-4.8C78.2,46.1,76,43.9,73.3,43.9z"/>
		<path class="st3" d="M94.1,43.9c2.2,0,3,2.1,4.7,3.3c0.3,0.2,1.3,0.3,1.6,0c2.4-2.8,0-14.7,0-14.7s-12.2,2.4-15.1,0
			c-0.3-0.2-0.2-1.2,0-1.5c1.2-1.6,3.4-2.4,3.4-4.5c0-2.7-2.2-4.8-4.9-4.8c-2.7,0-4.9,2.2-4.9,4.8c0,2.1,2.1,2.9,3.3,4.5
			c0.2,0.3,0.3,1.3,0,1.6c-2.9,2.3-15,0-15,0s-2.4,11.8,0,14.7c0.3,0.3,1.3,0.2,1.6,0c1.7-1.1,2.5-3.2,4.6-3.2
			c2.7,0,4.9,2.2,4.9,4.8c0,2.7-2.2,4.8-4.9,4.8c-2.2,0-3-2.1-4.7-3.3c-0.3-0.2-1.3-0.3-1.6,0C64.6,53.1,67,65,67,65
			s12.2-2.4,15.1,0c0.3,0.2,0.2,1.2,0,1.5c-1.2,1.6-3.4,2.4-3.4,4.5c0,2.7,2.2,4.8,4.9,4.8c2.7,0,4.9-2.2,4.9-4.8
			c0-2.1-2.1-2.9-3.3-4.5c-0.2-0.3-0.3-1.3,0-1.6c2.9-2.3,15,0,15,0s2.4-11.8,0-14.7c-0.3-0.3-1.3-0.2-1.6,0
			c-1.7,1.1-2.5,3.2-4.6,3.2c-2.7,0-4.9-2.2-4.9-4.8C89.2,46.1,91.4,43.9,94.1,43.9z"/>
		<path class="st8" d="M173.2,43.9c-2.2,0-3,2.1-4.6,3.2c-0.3,0.2-1.3,0.3-1.6,0c-2.4-2.8,0-14.7,0-14.7s-12.2,2.4-15.1,0
			c-0.3-0.2-0.2-1.2,0-1.5c1.2-1.6,3.4-2.4,3.4-4.5c0-2.7-2.2-4.8-4.9-4.8s-4.9,2.2-4.9,4.8c0,2.1,2.1,2.9,3.3,4.5
			c0.2,0.3,0.3,1.3,0,1.6c-2.9,2.3-15,0-15,0s-2.4,11.8,0,14.7c0.3,0.3,1.3,0.2,1.6,0c1.7-1.1,2.5-3.2,4.6-3.2
			c2.7,0,4.9,2.2,4.9,4.8c0,2.7-2.2,4.8-4.9,4.8c-2.2,0-3-2.1-4.7-3.3c-0.3-0.2-1.3-0.3-1.6,0c-2.4,2.8,0,14.7,0,14.7s12.1,2.3,15,0
			c0.3-0.2,0.2-1.2,0-1.6c-1.2-1.6-3.3-2.4-3.3-4.5c0-2.7,2.2-4.8,4.9-4.8s4.9,2.2,4.9,4.8c0,2.1-2.2,2.9-3.4,4.5
			c-0.2,0.3-0.3,1.3,0,1.5c2.9,2.4,15.1,0,15.1,0s-2.4-11.9,0-14.7c0.3-0.3,1.3-0.2,1.6,0c1.7,1.2,2.5,3.3,4.7,3.3
			c2.7,0,4.9-2.2,4.9-4.8C178.2,46.1,176,43.9,173.2,43.9z"/>
		<path class="st12" d="M194.1,43.9c2.2,0,3,2.1,4.7,3.3c0.3,0.2,1.3,0.3,1.6,0c2.4-2.8,0-14.7,0-14.7s-12.1-2.3-15,0
			c-0.3,0.2-0.2,1.2,0,1.6c1.2,1.6,3.3,2.4,3.3,4.5c0,2.7-2.2,4.8-4.9,4.8c-2.7,0-4.9-2.2-4.9-4.8c0-2.1,2.2-2.9,3.4-4.5
			c0.2-0.3,0.3-1.3,0-1.5c-2.9-2.4-15.1,0-15.1,0s-2.4,11.9,0,14.7c0,0.1,1.3,0.2,1.6,0c1.7-1.1,2.5-3.2,4.6-3.2
			c2.7,0,4.9,2.2,4.9,4.8c0,2.7-2.2,4.8-4.9,4.8c-2.2,0-3-2.1-4.7-3.3c-0.3-0.2-1.5-0.1-1.6,0c-2.4,2.8,0,14.7,0,14.7s12.1,2.3,15,0
			c0.3-0.2,0.2-1.2,0-1.6c-1.2-1.6-3.3-2.4-3.3-4.5c0-2.7,2.2-4.8,4.9-4.8c2.7,0,4.9,2.2,4.9,4.8c0,2.1-2.2,2.9-3.4,4.5
			c-0.2,0.3-0.3,1.3,0,1.5c2.9,2.4,15.1,0,15.1,0s2.4-11.8,0-14.7c-0.3-0.3-1.3-0.2-1.6,0c-1.7,1.1-2.5,3.2-4.6,3.2
			c-2.7,0-4.9-2.2-4.9-4.8C189.2,46.1,191.4,43.9,194.1,43.9z"/>
		<path class="st9" d="M239.9,43.9c-2.2,0-3,2.1-4.6,3.2c-0.3,0.2-1.3,0.3-1.6,0c-2.4-2.8,0-14.7,0-14.7s-12.1-2.3-15,0
			c-0.3,0.2-0.2,1.2,0,1.6c1.2,1.6,3.3,2.4,3.3,4.5c0,2.7-2.2,4.8-4.9,4.8c-2.7,0-4.9-2.2-4.9-4.8c0-2.1,2.2-2.9,3.4-4.5
			c0.2-0.3,0.3-1.3,0-1.5c-2.9-2.4-15.1,0-15.1,0s2.4,11.9,0,14.7c-0.3,0.3-1.3,0.2-1.6,0c-1.7-1.2-2.5-3.3-4.7-3.3
			c-2.7,0-4.9,2.2-4.9,4.8c0,2.7,2.2,4.8,4.9,4.8c2.1,0,3-2.1,4.6-3.2c0.3-0.2,1.3-0.3,1.6,0c2.4,2.8,0,14.7,0,14.7s12.1,2.3,15,0
			c0.3-0.2,0.2-1.2,0-1.6c-1.2-1.6-3.3-2.4-3.3-4.5c0-2.7,2.2-4.8,4.9-4.8c2.7,0,4.9,2.2,4.9,4.8c0,2.1-2.2,2.9-3.4,4.5
			c-0.2,0.3-0.3,1.3,0,1.5c2.9,2.4,15.1,0,15.1,0s-2.4-11.9,0-14.7c0.3-0.3,1.3-0.2,1.6,0c1.7,1.2,2.5,3.3,4.7,3.3
			c2.7,0,4.9-2.2,4.9-4.8C244.8,46.1,242.6,43.9,239.9,43.9z"/>
		<path class="st13" d="M306.5,43.9c-2.2,0-3,2.1-4.6,3.2c-0.3,0.2-1.3,0.3-1.6,0c-2.4-2.8,0-14.7,0-14.7s-12.2,2.4-15.1,0
			c-0.3-0.2-0.2-1.2,0-1.5c1.2-1.6,3.4-2.4,3.4-4.5c0-2.7-2.2-4.8-4.9-4.8s-4.9,2.2-4.9,4.8c0,2.1,2.1,2.9,3.3,4.5
			c0.2,0.3,0.3,1.3,0,1.6c-2.9,2.3-15,0-15,0s2.4,11.9,0,14.7c-0.3,0.3-1.3,0.2-1.6,0c-1.7-1.2-2.5-3.3-4.7-3.3
			c-2.7,0-4.9,2.2-4.9,4.8c0,2.7,2.2,4.8,4.9,4.8c2.1,0,3-2.1,4.6-3.2c0.3-0.2,1.3-0.3,1.6,0c2.4,2.8,0,14.7,0,14.7s12.2-2.4,15.1,0
			c0.3,0.2,0.2,1.2,0,1.5c-1.2,1.6-3.4,2.4-3.4,4.5c0,2.7,2.2,4.8,4.9,4.8s4.9-2.2,4.9-4.8c0-2.1-2.1-2.9-3.3-4.5
			c-0.2-0.3-0.3-1.3,0-1.6c2.9-2.3,15,0,15,0s-2.4-11.9,0-14.7c0.3-0.3,1.3-0.2,1.6,0c1.7,1.2,2.5,3.3,4.7,3.3
			c2.7,0,4.9-2.2,4.9-4.8C311.4,46.1,309.2,43.9,306.5,43.9z"/>
		<path class="st14" d="M360.7,43.9c2.2,0,3,2.1,4.7,3.3c0.3,0.2,1.3,0.3,1.6,0c2.4-2.8,0-14.7,0-14.7s-12.2,2.4-15.1,0
			c-0.2-0.1-0.2-1.2,0-1.5c1.2-1.6,3.4-2.4,3.4-4.5c0-2.7-2.2-4.8-4.9-4.8s-4.9,2.2-4.9,4.8c0,2.1,2.1,2.9,3.3,4.5
			c0.2,0.3,0.2,1.3,0,1.5c-2.9,2.4-15,0-15,0s2.4,11.9,0,14.7c-0.3,0.3-1.3,0.2-1.6,0c-1.7-1.2-2.5-3.3-4.7-3.3
			c-2.7,0-4.9,2.2-4.9,4.8c0,2.7,2.2,4.8,4.9,4.8c2.1,0,3-2.1,4.6-3.2c0.3-0.2,1.3-0.3,1.6,0c2.4,2.8,0,14.7,0,14.7s12.1,2.3,15,0
			c0.3-0.2,0.2-1.2,0-1.6c-1.2-1.6-3.3-2.4-3.3-4.5c0-2.7,2.2-4.8,4.9-4.8s4.9,2.2,4.9,4.8c0,2.1-2.2,2.9-3.4,4.5
			c-0.2,0.3-0.3,1.3,0,1.5c2.9,2.4,15.1,0,15.1,0s2.4-11.8,0-14.7c-0.3-0.3-1.3-0.2-1.6,0c-1.7,1.1-2.5,3.2-4.6,3.2
			c-2.7,0-4.9-2.2-4.9-4.8C355.8,46.1,358,43.9,360.7,43.9z"/>
		<path class="st4" d="M406.5,43.9c-2.2,0-3,2.1-4.6,3.2c-0.3,0.2-1.3,0.3-1.6,0c-2.4-2.8,0-14.7,0-14.7s-12.2,2.4-15.1,0
			c-0.3-0.2-0.2-1.2,0-1.5c1.2-1.6,3.4-2.4,3.4-4.5c0-2.7-2.2-4.8-4.9-4.8c-2.7,0-4.9,2.2-4.9,4.8c0,2.1,2.1,2.9,3.3,4.5
			c0.2,0.3,0.3,1.3,0,1.6c-2.9,2.3-15,0-15,0s2.4,11.9,0,14.7c-0.3,0.3-1.3,0.2-1.6,0c-1.7-1.2-2.5-3.3-4.7-3.3
			c-2.7,0-4.9,2.2-4.9,4.8c0,2.7,2.2,4.8,4.9,4.8c2.1,0,3-2.1,4.6-3.2c0.3-0.2,1.3-0.3,1.6,0c2.4,2.8,0,14.7,0,14.7s12.1,2.3,15,0
			c0.3-0.2,0.2-1.2,0-1.6c-1.2-1.6-3.3-2.4-3.3-4.5c0-2.7,2.2-4.8,4.9-4.8c2.7,0,4.9,2.2,4.9,4.8c0,2.1-2.2,2.9-3.4,4.5
			c-0.2,0.3-0.3,1.3,0,1.5c2.9,2.4,15.1,0,15.1,0s-2.4-11.9,0-14.7c0.3-0.3,1.3-0.2,1.6,0c1.7,1.2,2.5,3.3,4.7,3.3
			c2.7,0,4.9-2.2,4.9-4.8C411.4,46.1,409.2,43.9,406.5,43.9z"/>
		<path class="st6" d="M473.1,43.9c-2.2,0-3,2.1-4.6,3.2c-0.3,0.2-1.3,0.3-1.6,0c-2.4-2.8,0-14.7,0-14.7s-12.1-2.3-15,0
			c-0.3,0.2-0.2,1.2,0,1.6c1.2,1.6,3.3,2.4,3.3,4.5c0,2.7-2.2,4.8-4.9,4.8s-4.9-2.2-4.9-4.8c0-2.1,2.2-2.9,3.4-4.5
			c0.2-0.3,0.3-1.3,0-1.5c-2.9-2.4-15.1,0-15.1,0s2.4,11.9,0,14.7c-0.3,0.3-1.3,0.2-1.6,0c-1.7-1.2-2.5-3.3-4.7-3.3
			c-2.7,0-4.9,2.2-4.9,4.8c0,2.7,2.2,4.8,4.9,4.8c2.1,0,3-2.1,4.6-3.2c0.3-0.2,1.3-0.3,1.6,0c2.4,2.8,0,14.7,0,14.7s12.1,2.3,15,0
			c0.3-0.2,0.2-1.2,0-1.6c-1.2-1.6-3.3-2.4-3.3-4.5c0-2.7,2.2-4.8,4.9-4.8s4.9,2.2,4.9,4.8c0,2.1-2.2,2.9-3.4,4.5
			c-0.2,0.3-0.3,1.3,0,1.5c2.9,2.4,15.1,0,15.1,0s-2.4-11.9,0-14.7c0.3-0.3,1.3-0.2,1.6,0c1.7,1.2,2.5,3.3,4.7,3.3
			c2.7,0,4.9-2.2,4.9-4.8C478,46.1,475.8,43.9,473.1,43.9z"/>
		<path class="st15" d="M527.3,43.9c2.2,0,3,2.1,4.7,3.3c0.3,0.2,1.3,0.3,1.6,0c2.4-2.8,0-14.7,0-14.7s-12.2,2.4-15.1,0
			c-0.3-0.2-0.2-1.2,0-1.5c1.2-1.6,3.4-2.4,3.4-4.5c0-2.7-2.2-4.8-4.9-4.8s-4.9,2.2-4.9,4.8c0,2.1,2.1,2.9,3.3,4.5
			c0.2,0.3,0.3,1.3,0,1.6c-2.9,2.3-15,0-15,0s-2.4,11.8,0,14.7c0.3,0.3,1.3,0.2,1.6,0c1.7-1.1,2.5-3.2,4.6-3.2
			c2.7,0,4.9,2.2,4.9,4.8c0,2.7-2.2,4.8-4.9,4.8c-2.2,0-3-2.1-4.7-3.3c-0.3-0.2-1.3-0.3-1.6,0c-2.4,2.8,0,14.7,0,14.7
			s12.2-2.4,15.1,0c0.3,0.2,0.2,1.2,0,1.5c-1.2,1.6-3.4,2.4-3.4,4.5c0,2.7,2.2,4.8,4.9,4.8s4.9-2.2,4.9-4.8c0-2.1-2.1-2.9-3.3-4.5
			c-0.2-0.3-0.3-1.3,0-1.6c2.9-2.3,15,0,15,0s2.4-11.8,0-14.7c-0.3-0.3-1.3-0.2-1.6,0c-1.7,1.1-2.5,3.2-4.6,3.2
			c-2.7,0-4.9-2.2-4.9-4.8C522.3,46.1,524.6,43.9,527.3,43.9z"/>
		<path class="st2" d="M573.1,43.9c-2.2,0-3,2.1-4.6,3.2c-0.3,0.2-1.3,0.3-1.6,0c-2.4-2.8,0-14.7,0-14.7s-12.2,2.4-15.1,0
			c-0.3-0.2-0.2-1.2,0-1.5c1.2-1.6,3.4-2.4,3.4-4.5c0-2.7-2.2-4.8-4.9-4.8c-2.7,0-4.9,2.2-4.9,4.8c0,2.1,2.1,2.9,3.3,4.5
			c0.2,0.3,0.3,1.3,0,1.6c-2.9,2.3-15,0-15,0s2.4,11.9,0,14.7c-0.3,0.3-1.3,0.2-1.6,0c-1.7-1.2-2.5-3.3-4.7-3.3
			c-2.7,0-4.9,2.2-4.9,4.8c0,2.7,2.2,4.8,4.9,4.8c2.1,0,3-2.1,4.6-3.2c0.3-0.2,1.3-0.3,1.6,0c2.4,2.8,0,14.7,0,14.7s12.2-2.4,15.1,0
			c0.3,0.2,0.2,1.2,0,1.5c-1.2,1.6-3.4,2.4-3.4,4.5c0,2.7,2.2,4.8,4.9,4.8c2.7,0,4.9-2.2,4.9-4.8c0-2.1-2.1-2.9-3.3-4.5
			c-0.2-0.3-0.3-1.3,0-1.6c2.9-2.3,15,0,15,0s-2.4-11.9,0-14.7c0.3-0.3,1.3-0.2,1.6,0c1.7,1.2,2.5,3.3,4.7,3.3
			c2.7,0,4.9-2.2,4.9-4.8C578,46.1,575.8,43.9,573.1,43.9z"/>
		<path class="st2" d="M606.4,43.9c-2.2,0-3,2.1-4.6,3.2c-0.3,0.2-1.3,0.3-1.6,0c-2.4-2.8,0-14.7,0-14.7s-12.1-2.3-15,0
			c-0.3,0.2-0.2,1.2,0,1.6c1.2,1.6,3.3,2.4,3.3,4.5c0,2.7-2.2,4.8-4.9,4.8s-4.9-2.2-4.9-4.8c0-2.1,2.2-2.9,3.4-4.5
			c0.2-0.3,0.3-1.3,0-1.5c-2.9-2.4-15.1,0-15.1,0s-2.4,11.8,0,14.7c0.3,0.3,1.3,0.2,1.6,0c1.7-1.1,2.5-3.2,4.6-3.2
			c2.7,0,4.9,2.2,4.9,4.8c0,2.7-2.2,4.8-4.9,4.8c-2.2,0-3-2.1-4.7-3.3c-0.3-0.2-1.3-0.3-1.6,0c-2.4,2.8,0,14.7,0,14.7s12.1,2.3,15,0
			c0.3-0.2,0.2-1.2,0-1.6c-1.2-1.6-3.3-2.4-3.3-4.5c0-2.7,2.2-4.8,4.9-4.8s4.9,2.2,4.9,4.8c0,2.1-2.2,2.9-3.4,4.5
			c-0.2,0.3-0.3,1.3,0,1.5c2.9,2.4,15.1,0,15.1,0s-2.4-11.9,0-14.7c0.3-0.3,1.3-0.2,1.6,0c1.7,1.2,2.5,3.3,4.7,3.3
			c2.7,0,4.9-2.2,4.9-4.8C611.3,46.1,609.1,43.9,606.4,43.9z"/>
		<path class="st4" d="M673,43.9c-2.2,0-3,2.1-4.6,3.2c-0.3,0.2-1.3,0.3-1.6,0c-2.4-2.8,0-14.7,0-14.7s-12.1-2.3-15,0
			c-0.3,0.2-0.2,1.2,0,1.6c1.2,1.6,3.3,2.4,3.3,4.5c0,2.7-2.2,4.8-4.9,4.8c-2.7,0-4.9-2.2-4.9-4.8c0-2.1,2.2-2.9,3.4-4.5
			c0.2-0.3,0.3-1.3,0-1.5c-2.9-2.4-15.1,0-15.1,0s2.4,11.9,0,14.7c-0.3,0.3-1.3,0.2-1.6,0c-1.7-1.2-2.5-3.3-4.7-3.3
			c-2.7,0-4.9,2.2-4.9,4.8c0,2.7,2.2,4.8,4.9,4.8c2.1,0,3-2.1,4.6-3.2c0.3-0.2,1.3-0.3,1.6,0c2.4,2.8,0,14.7,0,14.7s12.1,2.3,15,0
			c0.3-0.2,0.2-1.2,0-1.6c-1.2-1.6-3.3-2.4-3.3-4.5c0-2.7,2.2-4.8,4.9-4.8c2.7,0,4.9,2.2,4.9,4.8c0,2.1-2.2,2.9-3.4,4.5
			c-0.2,0.3-0.3,1.3,0,1.5c2.9,2.4,15.1,0,15.1,0s-2.4-11.9,0-14.7c0.3-0.3,1.3-0.2,1.6,0c1.7,1.2,2.5,3.3,4.7,3.3
			c2.7,0,4.9-2.2,4.9-4.8C678,46.1,675.7,43.9,673,43.9z"/>
		<path class="st11" d="M706.3,43.9c-2.2,0-3,2.1-4.6,3.2c-0.3,0.2-1.3,0.3-1.6,0c-2.4-2.8,0-14.7,0-14.7s-12.1-2.3-15,0
			c-0.3,0.2-0.2,1.2,0,1.6c1.2,1.6,3.3,2.4,3.3,4.5c0,2.7-2.2,4.8-4.9,4.8s-4.9-2.2-4.9-4.8c0-2.1,2.2-2.9,3.4-4.5
			c0.2-0.3,0.3-1.3,0-1.5c-2.9-2.4-15.1,0-15.1,0s-2.4,11.8,0,14.7c0.3,0.3,1.3,0.2,1.6,0c1.7-1.1,2.5-3.2,4.6-3.2
			c2.7,0,4.9,2.2,4.9,4.8c0,2.7-2.2,4.8-4.9,4.8c-2.2,0-3-2.1-4.7-3.3c-0.3-0.2-1.3-0.3-1.6,0c-2.4,2.8,0,14.7,0,14.7
			s12.2-2.4,15.1,0c0.3,0.2,0.2,1.2,0,1.5c-1.2,1.6-3.4,2.4-3.4,4.5c0,2.7,2.2,4.8,4.9,4.8s4.9-2.2,4.9-4.8c0-2.1-2.1-2.9-3.3-4.5
			c-0.2-0.3-0.3-1.3,0-1.6c2.9-2.3,15,0,15,0s-2.4-11.9,0-14.7c0.3-0.3,1.3-0.2,1.6,0c1.7,1.2,2.5,3.3,4.7,3.3
			c2.7,0,4.9-2.2,4.9-4.8C711.3,46.1,709.1,43.9,706.3,43.9z"/>
		<path class="st11" d="M739.7,43.9c-2.2,0-3,2.1-4.6,3.2c-0.3,0.2-1.3,0.3-1.6,0c-2.4-2.8,0-14.7,0-14.7s-12.2,2.4-15.1,0
			c-0.3-0.2-0.2-1.2,0-1.5c1.2-1.6,3.4-2.4,3.4-4.5c0-2.7-2.2-4.8-4.9-4.8s-4.9,2.2-4.9,4.8c0,2.1,2.1,2.9,3.3,4.5
			c0.2,0.3,0.3,1.3,0,1.6c-2.9,2.3-15,0-15,0s-2.4,11.8,0,14.7c0.3,0.3,1.3,0.2,1.6,0c1.7-1.1,2.5-3.2,4.6-3.2
			c2.7,0,4.9,2.2,4.9,4.8c0,2.7-2.2,4.8-4.9,4.8c-2.2,0-3-2.1-4.7-3.3c-0.3-0.2-1.3-0.3-1.6,0c-2.4,2.8,0,14.7,0,14.7
			s12.2-2.4,15.1,0c0.3,0.2,0.2,1.2,0,1.5c-1.2,1.6-3.4,2.4-3.4,4.5c0,2.7,2.2,4.8,4.9,4.8s4.9-2.2,4.9-4.8c0-2.1-2.1-2.9-3.3-4.5
			c-0.2-0.3-0.3-1.3,0-1.6c2.9-2.3,15,0,15,0s-2.4-11.9,0-14.7c0.3-0.3,1.3-0.2,1.6,0c1.7,1.2,2.5,3.3,4.7,3.3
			c2.7,0,4.9-2.2,4.9-4.8C744.6,46.1,742.4,43.9,739.7,43.9z"/>
		<path class="st4" d="M806.3,43.9c-2.2,0-3,2.1-4.6,3.2c-0.3,0.2-1.3,0.3-1.6,0c-2.4-2.8,0-14.7,0-14.7s-12.1-2.3-15,0
			c-0.3,0.2-0.2,1.2,0,1.6c1.2,1.6,3.3,2.4,3.3,4.5c0,2.7-2.2,4.8-4.9,4.8s-4.9-2.2-4.9-4.8c0-2.1,2.2-2.9,3.4-4.5
			c0.2-0.3,0.3-1.3,0-1.5c-2.9-2.4-15.1,0-15.1,0s2.4,11.9,0,14.7c-0.3,0.3-1.3,0.2-1.6,0c-1.7-1.2-2.5-3.3-4.7-3.3
			c-2.7,0-4.9,2.2-4.9,4.8c0,2.7,2.2,4.8,4.9,4.8c2.1,0,3-2.1,4.6-3.2c0.3-0.2,1.3-0.3,1.6,0c2.4,2.8,0,14.7,0,14.7s12.1,2.3,15,0
			c0.3-0.2,0.2-1.2,0-1.6c-1.2-1.6-3.3-2.4-3.3-4.5c0-2.7,2.2-4.8,4.9-4.8s4.9,2.2,4.9,4.8c0,2.1-2.2,2.9-3.4,4.5
			c-0.2,0.3-0.3,1.3,0,1.5c2.9,2.4,15.1,0,15.1,0s-2.4-11.9,0-14.7c0.3-0.3,1.3-0.2,1.6,0c1.7,1.2,2.5,3.3,4.7,3.3
			c2.7,0,4.9-2.2,4.9-4.8C811.2,46.1,809,43.9,806.3,43.9z"/>
		<path class="st12" d="M839.6,43.9c-2.2,0-3,2.1-4.6,3.2c-0.3,0.2-1.3,0.3-1.6,0c-2.4-2.8,0-14.7,0-14.7s-12.2,2.4-15.1,0
			c-0.3-0.2-0.2-1.2,0-1.5c1.2-1.6,3.4-2.4,3.4-4.5c0-2.7-2.2-4.8-4.9-4.8c-2.7,0-4.9,2.2-4.9,4.8c0,2.1,2.1,2.9,3.3,4.5
			c0.2,0.3,0.3,1.3,0,1.6c-2.9,2.3-15,0-15,0s-2.4,11.8,0,14.7c0.3,0.3,1.3,0.2,1.6,0c1.7-1.1,2.5-3.2,4.6-3.2
			c2.7,0,4.9,2.2,4.9,4.8c0,2.7-2.2,4.8-4.9,4.8c-2.2,0-3-2.1-4.7-3.3c-0.3-0.2-1.3-0.3-1.6,0c-2.4,2.8,0,14.7,0,14.7
			s12.2-2.4,15.1,0c0.3,0.2,0.2,1.2,0,1.5c-1.2,1.6-3.4,2.4-3.4,4.5c0,2.7,2.2,4.8,4.9,4.8c2.7,0,4.9-2.2,4.9-4.8
			c0-2.1-2.1-2.9-3.3-4.5c-0.2-0.3-0.3-1.3,0-1.6c2.9-2.3,15,0,15,0s-2.4-11.9,0-14.7c0.3-0.3,1.3-0.2,1.6,0
			c1.7,1.2,2.5,3.3,4.7,3.3c2.7,0,4.9-2.2,4.9-4.8C844.5,46.1,842.3,43.9,839.6,43.9z"/>
		<path class="st6" d="M860.5,43.9c2.2,0,3,2.1,4.7,3.3c0.3,0.2,1.3,0.3,1.6,0c2.4-2.8,0-14.7,0-14.7s-12.2,2.4-15.1,0
			c-0.3-0.2-0.2-1.2,0-1.5c1.2-1.6,3.4-2.4,3.4-4.5c0-2.7-2.2-4.8-4.9-4.8s-4.9,2.2-4.9,4.8c0,2.1,2.1,2.9,3.3,4.5
			c0.2,0.3,0.3,1.3,0,1.6c-2.9,2.3-15,0-15,0s-2.4,11.8,0,14.7c0.3,0.3,1.3,0.2,1.6,0c1.7-1.1,2.5-3.2,4.6-3.2
			c2.7,0,4.9,2.2,4.9,4.8c0,2.7-2.2,4.8-4.9,4.8c-2.2,0-3-2.1-4.7-3.3c-0.3-0.2-1.3-0.3-1.6,0c-2.4,2.8,0,14.7,0,14.7s12.1,2.3,15,0
			c0.3-0.2,0.2-1.2,0-1.6c-1.2-1.6-3.3-2.4-3.3-4.5c0-2.7,2.2-4.8,4.9-4.8s4.9,2.2,4.9,4.8c0,2.1-2.2,2.9-3.4,4.5
			c-0.2,0.3-0.3,1.3,0,1.5c2.9,2.4,15.1,0,15.1,0s2.4-11.8,0-14.7c-0.3-0.3-1.3-0.2-1.6,0c-1.7,1.1-2.5,3.2-4.6,3.2
			c-2.7,0-4.9-2.2-4.9-4.8C855.5,46.1,857.7,43.9,860.5,43.9z"/>
		<path class="st11" d="M906.3,43.9c-2.1,0-3,2.1-4.6,3.2c-0.3,0.2-1.3,0.3-1.6,0c-2.4-2.8,0-14.7,0-14.7s-12.2,2.4-15.1,0
			c-0.3-0.2-0.2-1.2,0-1.5c1.2-1.6,3.4-2.4,3.4-4.5c0-2.7-2.2-4.8-4.9-4.8s-4.9,2.2-4.9,4.8c0,2.1,2.1,2.9,3.3,4.5
			c0.2,0.3,0.3,1.3,0,1.6c-2.9,2.3-15,0-15,0s2.4,11.9,0,14.7c-0.3,0.3-1.3,0.2-1.6,0c-1.7-1.2-2.5-3.3-4.7-3.3
			c-2.7,0-4.9,2.2-4.9,4.8c0,2.7,2.2,4.8,4.9,4.8c2.1,0,3-2.1,4.6-3.2c0.3-0.2,1.3-0.3,1.6,0c2.4,2.8,0,14.7,0,14.7s12.2-2.4,15.1,0
			c0.3,0.2,0.2,1.2,0,1.5c-1.2,1.6-3.4,2.4-3.4,4.5c0,2.7,2.2,4.8,4.9,4.8s4.9-2.2,4.9-4.8c0-2.1-2.1-2.9-3.3-4.5
			c-0.2-0.3-0.3-1.3,0-1.6c2.9-2.3,15,0,15,0s-2.4-11.9,0-14.7c0.3-0.3,1.3-0.2,1.6,0c1.7,1.2,2.5,3.3,4.7,3.3
			c2.7,0,4.9-2.2,4.9-4.8C911.2,46.1,909,43.9,906.3,43.9z"/>
		<path class="st3" d="M960.4,43.9c2.2,0,3,2.1,4.7,3.3c0.3,0.2,1.3,0.3,1.6,0c2.4-2.8,0-14.7,0-14.7s-12.1-2.3-15,0
			c-0.3,0.2-0.2,1.2,0,1.6c1.2,1.6,3.3,2.4,3.3,4.5c0,2.7-2.2,4.8-4.9,4.8s-4.9-2.2-4.9-4.8c0-2.1,2.2-2.9,3.4-4.5
			c0.2-0.3,0.3-1.3,0-1.5c-2.9-2.4-15.1,0-15.1,0s-2.4,11.8,0,14.7c0.3,0.3,1.3,0.2,1.6,0c1.7-1.1,2.5-3.2,4.6-3.2
			c2.7,0,4.9,2.2,4.9,4.8c0,2.7-2.2,4.8-4.9,4.8c-2.2,0-3-2.1-4.7-3.3c-0.3-0.2-1.3-0.3-1.6,0c-2.4,2.8,0,14.7,0,14.7s12.1,2.3,15,0
			c0.3-0.2,0.2-1.2,0-1.6c-1.2-1.6-3.3-2.4-3.3-4.5c0-2.7,2.2-4.8,4.9-4.8s4.9,2.2,4.9,4.8c0,2.1-2.2,2.9-3.4,4.5
			c-0.2,0.3-0.3,1.3,0,1.5c2.9,2.4,15.1,0,15.1,0s2.4-11.8,0-14.7c-0.3-0.3-1.3-0.2-1.6,0c-1.7,1.1-2.5,3.2-4.6,3.2
			c-2.7,0-4.9-2.2-4.9-4.8C955.5,46.1,957.7,43.9,960.4,43.9z"/>
		<path class="st6" d="M1000,65V32.5c0,0-12.2,2.4-15.1,0c-0.3-0.2-0.2-1.2,0-1.5c1.2-1.6,3.4-2.4,3.4-4.5c0-2.7-2.2-4.8-4.9-4.8
			s-4.9,2.2-4.9,4.8c0,2.1,2.1,2.9,3.3,4.5c0.2,0.3,0.3,1.3,0,1.6c-2.9,2.3-15,0-15,0s2.4,11.9,0,14.7c-0.3,0.3-1.3,0.2-1.6,0
			c-1.7-1.2-2.5-3.3-4.7-3.3c-2.7,0-4.9,2.2-4.9,4.8c0,2.7,2.2,4.8,4.9,4.8c2.2,0,3-2.1,4.6-3.2c0.3-0.2,1.3-0.3,1.6,0
			c2.4,2.8,0,14.7,0,14.7s12.2-2.4,15.1,0c0.3,0.2,0.2,1.2,0,1.5c-1.2,1.6-3.4,2.4-3.4,4.5c0,2.7,2.2,4.8,4.9,4.8s4.9-2.2,4.9-4.8
			c0-2.1-2.1-2.9-3.3-4.5c-0.2-0.3-0.3-1.3,0-1.6C987.8,62.7,1000,65,1000,65z"/>
		<path class="st7" d="M984.9,65c-0.3,0.2-0.2,1.2,0,1.6c1.2,1.6,3.3,2.4,3.3,4.5c0,2.7-2.2,4.8-4.9,4.8s-4.9-2.2-4.9-4.8
			c0-2.1,2.2-2.9,3.4-4.5c0.2-0.3,0.3-1.3,0-1.5c-2.9-2.4-15.1,0-15.1,0s2.4,11.9,0,14.7c-0.3,0.3-1.3,0.2-1.6,0
			c-1.7-1.2-2.5-3.3-4.7-3.3c-2.7,0-4.9,2.2-4.9,4.8c0,2.7,2.2,4.8,4.9,4.8c2.2,0,3-2.1,4.6-3.2c0.3-0.2,1.3-0.3,1.6,0
			c2.4,2.8,0,14.7,0,14.7s12.1,2.3,15,0c0.3-0.2,0.2-1.2,0-1.6c-1.2-1.6-3.3-2.4-3.3-4.5c0-2.7,2.2-4.8,4.9-4.8s4.9,2.2,4.9,4.8
			c0,2.1-2.2,2.9-3.4,4.5c-0.2,0.3-0.3,1.3,0,1.5c2.9,2.4,15.1,0,15.1,0V65C1000,65,987.8,62.7,984.9,65z"/>
		<path class="st14" d="M960.4,76.4c2.2,0,3,2.1,4.7,3.3c0.3,0.2,1.3,0.3,1.6,0c2.4-2.8,0-14.7,0-14.7s-12.2,2.4-15.1,0
			c-0.3-0.2-0.2-1.2,0-1.5c1.2-1.6,3.4-2.4,3.4-4.5c0-2.7-2.2-4.8-4.9-4.8s-4.9,2.2-4.9,4.8c0,2.1,2.1,2.9,3.3,4.5
			c0.2,0.3,0.3,1.3,0,1.6c-2.9,2.3-15,0-15,0s-2.4,11.8,0,14.7c0.3,0.3,1.3,0.2,1.6,0c1.7-1.1,2.5-3.2,4.6-3.2
			c2.7,0,4.9,2.2,4.9,4.8c0,2.7-2.2,4.8-4.9,4.8c-2.2,0-3-2.1-4.7-3.3c-0.3-0.2-1.3-0.3-1.6,0c-2.4,2.8,0,14.7,0,14.7
			s12.2-2.4,15.1,0c0.3,0.2,0.2,1.2,0,1.5c-1.2,1.6-3.4,2.4-3.4,4.5c0,2.7,2.2,4.8,4.9,4.8s4.9-2.2,4.9-4.8c0-2.1-2.1-2.9-3.3-4.5
			c-0.2-0.3-0.3-1.3,0-1.6c2.9-2.3,15,0,15,0s2.4-11.8,0-14.7c-0.3-0.3-1.3-0.2-1.6,0c-1.7,1.1-2.5,3.2-4.6,3.2
			c-2.7,0-4.9-2.2-4.9-4.8C955.5,78.6,957.7,76.4,960.4,76.4z"/>
		<path class="st10" d="M60.8,76.4c2.2,0,3,2.1,4.7,3.3c0.3,0.2,1.3,0.3,1.6,0c2.4-2.8,0-14.7,0-14.7S54.9,67.4,52,65
			c-0.3-0.2-0.2-1.2,0-1.5c1.2-1.6,3.4-2.4,3.4-4.5c0-2.7-2.2-4.8-4.9-4.8c-2.7,0-4.9,2.2-4.9,4.8c0,2.1,2.1,2.9,3.3,4.5
			c0.2,0.3,0.3,1.3,0,1.6c-2.9,2.3-15,0-15,0s-2.4,11.8,0,14.7c0.3,0.3,1.3,0.2,1.6,0c1.7-1.1,2.5-3.2,4.6-3.2
			c2.7,0,4.9,2.2,4.9,4.8c0,2.7-2.2,4.8-4.9,4.8c-2.2,0-3-2.1-4.7-3.3c-0.3-0.2-1.3-0.3-1.6,0c-2.4,2.8,0,14.7,0,14.7s12.1,2.3,15,0
			c0.3-0.2,0.2-1.2,0-1.6c-1.2-1.6-3.3-2.4-3.3-4.5c0-2.7,2.2-4.8,4.9-4.8c2.7,0,4.9,2.2,4.9,4.8c0,2.1-2.2,2.9-3.4,4.5
			c-0.2,0.3-0.3,1.3,0,1.5c2.9,2.4,15.1,0,15.1,0s2.4-11.8,0-14.7c-0.3-0.3-1.3-0.2-1.6,0c-1.7,1.1-2.5,3.2-4.6,3.2
			c-2.7,0-4.9-2.2-4.9-4.8C55.9,78.6,58.1,76.4,60.8,76.4z"/>
		<path class="st4" d="M40,76.4c-2.2,0-3,2.1-4.6,3.2c-0.3,0.2-1.3,0.3-1.6,0c-2.4-2.8,0-14.7,0-14.7s-12.1-2.3-15,0
			c-0.3,0.2-0.2,1.2,0,1.6c1.2,1.6,3.3,2.4,3.3,4.5c0,2.7-2.2,4.8-4.9,4.8s-4.9-2.2-4.9-4.8c0-2.1,2.2-2.9,3.4-4.5
			c0.2-0.3,0.3-1.3,0-1.5c-2.9-2.4-15.1,0-15.1,0v32.5c0,0,12.2-2.4,15.1,0c0.3,0.2,0.2,1.2,0,1.5c-1.2,1.6-3.4,2.4-3.4,4.5
			c0,2.7,2.2,4.8,4.9,4.8s4.9-2.2,4.9-4.8c0-2.1-2.1-2.9-3.3-4.5c-0.2-0.3-0.3-1.3,0-1.6c2.9-2.3,15,0,15,0s-2.4-11.9,0-14.7
			c0.3-0.3,1.3-0.2,1.6,0c1.7,1.2,2.5,3.3,4.7,3.3c2.7,0,4.9-2.2,4.9-4.8C44.9,78.6,42.7,76.4,40,76.4z"/>
		<path class="st3" d="M40,108.9c-2.2,0-3,2.1-4.6,3.2c-0.3,0.2-1.3,0.3-1.6,0c-2.4-2.8,0-14.7,0-14.7s-12.1-2.3-15,0
			c-0.3,0.2-0.2,1.2,0,1.6c1.2,1.6,3.3,2.4,3.3,4.5c0,2.7-2.2,4.8-4.9,4.8s-4.9-2.2-4.9-4.8c0-2.1,2.2-2.9,3.4-4.5
			c0.2-0.3,0.3-1.3,0-1.5c-2.9-2.4-15.1,0-15.1,0V130c0,0,12.1,2.3,15,0c0.3-0.2,0.2-1.2,0-1.6c-1.2-1.6-3.3-2.4-3.3-4.5
			c0-2.7,2.2-4.8,4.9-4.8s4.9,2.2,4.9,4.8c0,2.1-2.2,2.9-3.4,4.5c-0.2,0.3-0.3,1.3,0,1.5c2.9,2.4,15.1,0,15.1,0s-2.4-11.9,0-14.7
			c0.3-0.3,1.3-0.2,1.6,0c1.7,1.2,2.5,3.3,4.7,3.3c2.7,0,4.9-2.2,4.9-4.8C44.9,111.1,42.7,108.9,40,108.9z"/>
		<path class="st9" d="M60.8,108.9c2.2,0,3,2.1,4.7,3.3c0.3,0.2,1.3,0.3,1.6,0c2.4-2.8,0-14.7,0-14.7s-12.2,2.4-15.1,0
			c-0.3-0.2-0.2-1.2,0-1.5c1.2-1.6,3.4-2.4,3.4-4.5c0-2.7-2.2-4.8-4.9-4.8c-2.7,0-4.9,2.2-4.9,4.8c0,2.1,2.1,2.9,3.3,4.5
			c0.2,0.3,0.3,1.3,0,1.6c-2.9,2.3-15,0-15,0s-2.4,11.8,0,14.7c0.3,0.3,1.3,0.2,1.6,0c1.7-1.1,2.5-3.2,4.6-3.2
			c2.7,0,4.9,2.2,4.9,4.8c0,2.7-2.2,4.8-4.9,4.8c-2.2,0-3-2.1-4.7-3.3c-0.3-0.2-1.3-0.3-1.6,0c-2.4,2.8,0,14.7,0,14.7
			s12.2-2.4,15.1,0c0.3,0.2,0.2,1.2,0,1.5c-1.2,1.6-3.4,2.4-3.4,4.5c0,2.7,2.2,4.8,4.9,4.8c2.7,0,4.9-2.2,4.9-4.8
			c0-2.1-2.1-2.9-3.3-4.5c-0.2-0.3-0.3-1.3,0-1.6c2.9-2.3,15,0,15,0s2.4-11.8,0-14.7c-0.3-0.3-1.3-0.2-1.6,0
			c-1.7,1.1-2.5,3.2-4.6,3.2c-2.7,0-4.9-2.2-4.9-4.8C55.9,111.1,58.1,108.9,60.8,108.9z"/>
		<path class="st7" d="M984.9,97.5c-0.3-0.2-0.2-1.2,0-1.5c1.2-1.6,3.4-2.4,3.4-4.5c0-2.7-2.2-4.8-4.9-4.8s-4.9,2.2-4.9,4.8
			c0,2.1,2.1,2.9,3.3,4.5c0.2,0.3,0.3,1.3,0,1.6c-2.9,2.3-15,0-15,0s-2.4,11.8,0,14.7c0.3,0.3,1.3,0.2,1.6,0
			c1.7-1.1,2.5-3.2,4.6-3.2c2.7,0,4.9,2.2,4.9,4.8c0,2.7-2.2,4.8-4.9,4.8c-2.2,0-3-2.1-4.7-3.3c-0.3-0.2-1.3-0.3-1.6,0
			c-2.4,2.8,0,14.7,0,14.7s12.1,2.3,15,0c0.3-0.2,0.2-1.2,0-1.6c-1.2-1.6-3.3-2.4-3.3-4.5c0-2.7,2.2-4.8,4.9-4.8s4.9,2.2,4.9,4.8
			c0,2.1-2.2,2.9-3.4,4.5c-0.2,0.3-0.3,1.3,0,1.5c2.9,2.4,15.1,0,15.1,0V97.5C1000,97.5,987.8,99.9,984.9,97.5z"/>
		<path class="st6" d="M27.5,141.4c2.2,0,3,2.1,4.7,3.3c0.3,0.2,1.3,0.3,1.6,0c2.4-2.8,0-14.7,0-14.7s-12.2,2.4-15.1,0
			c-0.3-0.2-0.2-1.2,0-1.5c1.2-1.6,3.4-2.4,3.4-4.5c0-2.7-2.2-4.8-4.9-4.8s-4.9,2.2-4.9,4.8c0,2.1,2.1,2.9,3.3,4.5
			c0.2,0.3,0.3,1.3,0,1.6c-2.9,2.3-15,0-15,0v32.5c0,0,12.1,2.3,15,0c0.3-0.2,0.2-1.2,0-1.6c-1.2-1.6-3.3-2.4-3.3-4.5
			c0-2.7,2.2-4.8,4.9-4.8s4.9,2.2,4.9,4.8c0,2.1-2.2,2.9-3.4,4.5c-0.2,0.3-0.3,1.3,0,1.5c2.9,2.4,15.1,0,15.1,0s2.4-11.8,0-14.7
			c-0.3-0.3-1.3-0.2-1.6,0c-1.7,1.1-2.5,3.2-4.6,3.2c-2.7,0-4.9-2.2-4.9-4.8C22.6,143.6,24.8,141.4,27.5,141.4z"/>
		<path class="st6" d="M73.3,141.4c-2.2,0-3,2.1-4.6,3.2c-0.3,0.2-1.3,0.3-1.6,0c-2.4-2.8,0-14.7,0-14.7s-12.1-2.3-15,0
			c-0.3,0.2-0.2,1.2,0,1.6c1.2,1.6,3.3,2.4,3.3,4.5c0,2.7-2.2,4.8-4.9,4.8c-2.7,0-4.9-2.2-4.9-4.8c0-2.1,2.2-2.9,3.4-4.5
			c0.2-0.3,0.3-1.3,0-1.5c-2.9-2.4-15.1,0-15.1,0s2.4,11.9,0,14.7c-0.3,0.3-1.3,0.2-1.6,0c-1.7-1.2-2.5-3.3-4.7-3.3
			c-2.7,0-4.9,2.2-4.9,4.8c0,2.7,2.2,4.8,4.9,4.8c2.1,0,3-2.1,4.6-3.2c0.3-0.2,1.3-0.3,1.6,0c2.4,2.8,0,14.7,0,14.7s12.2-2.4,15.1,0
			c0.3,0.2,0.2,1.2,0,1.5c-1.2,1.6-3.4,2.4-3.4,4.5c0,2.7,2.2,4.8,4.9,4.8c2.7,0,4.9-2.2,4.9-4.8c0-2.1-2.1-2.9-3.3-4.5
			c-0.2-0.3-0.3-1.3,0-1.6c2.9-2.3,15,0,15,0s-2.4-11.9,0-14.7c0.3-0.3,1.3-0.2,1.6,0c1.7,1.2,2.5,3.3,4.7,3.3
			c2.7,0,4.9-2.2,4.9-4.8C78.2,143.6,76,141.4,73.3,141.4z"/>
		<path class="st4" d="M972.9,141.4c-2.1,0-3,2.1-4.6,3.2c-0.3,0.2-1.3,0.3-1.6,0c-2.4-2.8,0-14.7,0-14.7s-12.2,2.4-15.1,0
			c-0.3-0.2-0.2-1.2,0-1.5c1.2-1.6,3.4-2.4,3.4-4.5c0-2.7-2.2-4.8-4.9-4.8s-4.9,2.2-4.9,4.8c0,2.1,2.1,2.9,3.3,4.5
			c0.2,0.3,0.3,1.3,0,1.6c-2.9,2.3-15,0-15,0s2.4,11.9,0,14.7c-0.3,0.3-1.3,0.2-1.6,0c-1.7-1.2-2.5-3.3-4.7-3.3
			c-2.7,0-4.9,2.2-4.9,4.8c0,2.7,2.2,4.8,4.9,4.8c2.2,0,3-2.1,4.6-3.2c0.3-0.2,1.3-0.3,1.6,0c2.4,2.8,0,14.7,0,14.7s12.2-2.4,15.1,0
			c0.3,0.2,0.2,1.2,0,1.5c-1.2,1.6-3.4,2.4-3.4,4.5c0,2.7,2.2,4.8,4.9,4.8s4.9-2.2,4.9-4.8c0-2.1-2.1-2.9-3.3-4.5
			c-0.2-0.3-0.3-1.3,0-1.6c2.9-2.3,15,0,15,0s-2.4-11.9,0-14.7c0.3-0.3,1.3-0.2,1.6,0c1.7,1.2,2.5,3.3,4.7,3.3
			c2.7,0,4.9-2.2,4.9-4.8C977.8,143.6,975.6,141.4,972.9,141.4z"/>
		<path class="st4" d="M984.9,130c-0.3-0.2-0.2-1.2,0-1.5c1.2-1.6,3.4-2.4,3.4-4.5c0-2.7-2.2-4.8-4.9-4.8s-4.9,2.2-4.9,4.8
			c0,2.1,2.1,2.9,3.3,4.5c0.2,0.3,0.3,1.3,0,1.6c-2.9,2.3-15,0-15,0s-2.4,11.8,0,14.7c0.3,0.3,1.3,0.2,1.6,0
			c1.7-1.1,2.5-3.2,4.6-3.2c2.7,0,4.9,2.2,4.9,4.8c0,2.7-2.2,4.8-4.9,4.8c-2.2,0-3-2.1-4.7-3.3c-0.3-0.2-1.3-0.3-1.6,0
			c-2.4,2.8,0,14.7,0,14.7s12.1,2.3,15,0c0.3-0.2,0.2-1.2,0-1.6c-1.2-1.6-3.3-2.4-3.3-4.5c0-2.7,2.2-4.8,4.9-4.8s4.9,2.2,4.9,4.8
			c0,2.1-2.2,2.9-3.4,4.5c-0.2,0.3-0.3,1.3,0,1.5c2.9,2.4,15.1,0,15.1,0V130C1000,130,987.8,132.4,984.9,130z"/>
		<path class="st8" d="M1000,195v-32.5c0,0-12.2,2.4-15.1,0c-0.3-0.2-0.2-1.2,0-1.5c1.2-1.6,3.4-2.4,3.4-4.5c0-2.7-2.2-4.8-4.9-4.8
			s-4.9,2.2-4.9,4.8c0,2.1,2.1,2.9,3.3,4.5c0.2,0.3,0.3,1.3,0,1.6c-2.9,2.3-15,0-15,0s2.4,11.9,0,14.7c-0.3,0.3-1.3,0.2-1.6,0
			c-1.7-1.2-2.5-3.3-4.7-3.3c-2.7,0-4.9,2.2-4.9,4.8c0,2.7,2.2,4.8,4.9,4.8c2.2,0,3-2.1,4.6-3.2c0.3-0.2,1.3-0.3,1.6,0
			c2.4,2.8,0,14.7,0,14.7s12.2-2.4,15.1,0c0.3,0.2,0.2,1.2,0,1.5c-1.2,1.6-3.4,2.4-3.4,4.5c0,2.7,2.2,4.8,4.9,4.8s4.9-2.2,4.9-4.8
			c0-2.1-2.1-2.9-3.3-4.5c-0.2-0.3-0.3-1.3,0-1.6C987.8,192.7,1000,195,1000,195z"/>
		<path class="st12" d="M40,173.9c-2.2,0-3,2.1-4.6,3.2c-0.3,0.2-1.3,0.3-1.6,0c-2.4-2.8,0-14.7,0-14.7s-12.2,2.4-15.1,0
			c-0.3-0.2-0.2-1.2,0-1.5c1.2-1.6,3.4-2.4,3.4-4.5c0-2.7-2.2-4.8-4.9-4.8s-4.9,2.2-4.9,4.8c0,2.1,2.1,2.9,3.3,4.5
			c0.2,0.3,0.3,1.3,0,1.6c-2.9,2.3-15,0-15,0V195c0,0,12.1,2.3,15,0c0.3-0.2,0.2-1.2,0-1.6c-1.2-1.6-3.3-2.4-3.3-4.5
			c0-2.7,2.2-4.8,4.9-4.8s4.9,2.2,4.9,4.8c0,2.1-2.2,2.9-3.4,4.5c-0.2,0.3-0.3,1.3,0,1.5c2.9,2.4,15.1,0,15.1,0s-2.4-11.9,0-14.7
			c0.3-0.3,1.3-0.2,1.6,0c1.7,1.2,2.5,3.3,4.7,3.3c2.7,0,4.9-2.2,4.9-4.8C44.9,176.1,42.7,173.9,40,173.9z"/>
		<path class="st5" d="M40,206.4c-2.2,0-3,2.1-4.6,3.2c-0.3,0.2-1.3,0.3-1.6,0c-2.4-2.8,0-14.7,0-14.7s-12.2,2.4-15.1,0
			c-0.3-0.2-0.2-1.2,0-1.5c1.2-1.6,3.4-2.4,3.4-4.5c0-2.7-2.2-4.8-4.9-4.8s-4.9,2.2-4.9,4.8c0,2.1,2.1,2.9,3.3,4.5
			c0.2,0.3,0.3,1.3,0,1.6c-2.9,2.3-15,0-15,0v32.5c0,0,12.2-2.4,15.1,0c0.3,0.2,0.2,1.2,0,1.5c-1.2,1.6-3.4,2.4-3.4,4.5
			c0,2.7,2.2,4.8,4.9,4.8s4.9-2.2,4.9-4.8c0-2.1-2.1-2.9-3.3-4.5c-0.2-0.3-0.3-1.3,0-1.6c2.9-2.3,15,0,15,0s-2.4-11.9,0-14.7
			c0.3-0.3,1.3-0.2,1.6,0c1.7,1.2,2.5,3.3,4.7,3.3c2.7,0,4.9-2.2,4.9-4.8C44.9,208.6,42.7,206.4,40,206.4z"/>
		<path class="st13" d="M60.8,206.4c2.2,0,3,2.1,4.7,3.3c0.3,0.2,1.3,0.3,1.6,0c2.4-2.8,0-14.7,0-14.7s-12.2,2.4-15.1,0
			c-0.3-0.2-0.2-1.2,0-1.5c1.2-1.6,3.4-2.4,3.4-4.5c0-2.7-2.2-4.8-4.9-4.8c-2.7,0-4.9,2.2-4.9,4.8c0,2.1,2.1,2.9,3.3,4.5
			c0.2,0.3,0.3,1.3,0,1.6c-2.9,2.3-15,0-15,0s-2.4,11.8,0,14.7c0.3,0.3,1.3,0.2,1.6,0c1.7-1.1,2.5-3.2,4.6-3.2
			c2.7,0,4.9,2.2,4.9,4.8c0,2.7-2.2,4.8-4.9,4.8c-2.2,0-3-2.1-4.7-3.3c-0.3-0.2-1.3-0.3-1.6,0c-2.4,2.8,0,14.7,0,14.7
			s12.2-2.4,15.1,0c0.3,0.2,0.2,1.2,0,1.5c-1.2,1.6-3.4,2.4-3.4,4.5c0,2.7,2.2,4.8,4.9,4.8c2.7,0,4.9-2.2,4.9-4.8
			c0-2.1-2.1-2.9-3.3-4.5c-0.2-0.3-0.3-1.3,0-1.6c2.9-2.3,15,0,15,0s2.4-11.8,0-14.7c-0.3-0.3-1.3-0.2-1.6,0
			c-1.7,1.1-2.5,3.2-4.6,3.2c-2.7,0-4.9-2.2-4.9-4.8C55.9,208.6,58.1,206.4,60.8,206.4z"/>
		<path class="st15" d="M960.4,206.4c2.2,0,3,2.1,4.7,3.3c0.3,0.2,1.3,0.3,1.6,0c2.4-2.8,0-14.7,0-14.7s-12.1-2.3-15,0
			c-0.3,0.2-0.2,1.2,0,1.6c1.2,1.6,3.3,2.4,3.3,4.5c0,2.7-2.2,4.8-4.9,4.8s-4.9-2.2-4.9-4.8c0-2.1,2.2-2.9,3.4-4.5
			c0.2-0.3,0.3-1.3,0-1.5c-2.9-2.4-15.1,0-15.1,0s2.4,11.9,0,14.7c-0.3,0.3-1.3,0.2-1.6,0c-1.7-1.2-2.5-3.3-4.7-3.3
			c-2.7,0-4.9,2.2-4.9,4.8c0,2.7,2.2,4.8,4.9,4.8c2.2,0,3-2.1,4.6-3.2c0.3-0.2,1.3-0.3,1.6,0c2.4,2.8,0,14.7,0,14.7s12.1,2.3,15,0
			c0.3-0.2,0.2-1.2,0-1.6c-1.2-1.6-3.3-2.4-3.3-4.5c0-2.7,2.2-4.8,4.9-4.8s4.9,2.2,4.9,4.8c0,2.1-2.2,2.9-3.4,4.5
			c-0.2,0.3-0.3,1.3,0,1.5c2.9,2.4,15.1,0,15.1,0s2.4-11.8,0-14.7c-0.3-0.3-1.3-0.2-1.6,0c-1.7,1.1-2.5,3.2-4.6,3.2
			c-2.7,0-4.9-2.2-4.9-4.8C955.5,208.6,957.7,206.4,960.4,206.4z"/>
		<path class="st4" d="M984.9,195c-0.3,0.2-0.2,1.2,0,1.6c1.2,1.6,3.3,2.4,3.3,4.5c0,2.7-2.2,4.8-4.9,4.8s-4.9-2.2-4.9-4.8
			c0-2.1,2.2-2.9,3.4-4.5c0.2-0.3,0.3-1.3,0-1.5c-2.9-2.4-15.1,0-15.1,0s2.4,11.9,0,14.7c-0.3,0.3-1.3,0.2-1.6,0
			c-1.7-1.2-2.5-3.3-4.7-3.3c-2.7,0-4.9,2.2-4.9,4.8c0,2.7,2.2,4.8,4.9,4.8c2.2,0,3-2.1,4.6-3.2c0.3-0.2,1.3-0.3,1.6,0
			c2.4,2.8,0,14.7,0,14.7s12.1,2.3,15,0c0.3-0.2,0.2-1.2,0-1.6c-1.2-1.6-3.3-2.4-3.3-4.5c0-2.7,2.2-4.8,4.9-4.8s4.9,2.2,4.9,4.8
			c0,2.1-2.2,2.9-3.4,4.5c-0.2,0.3-0.3,1.3,0,1.5c2.9,2.4,15.1,0,15.1,0V195C1000,195,987.8,192.7,984.9,195z"/>
		<path class="st13" d="M1000,260v-32.5c0,0-12.2,2.4-15.1,0c-0.3-0.2-0.2-1.2,0-1.5c1.2-1.6,3.4-2.4,3.4-4.5c0-2.7-2.2-4.8-4.9-4.8
			s-4.9,2.2-4.9,4.8c0,2.1,2.1,2.9,3.3,4.5c0.2,0.3,0.3,1.3,0,1.6c-2.9,2.3-15,0-15,0s2.4,11.9,0,14.7c-0.3,0.3-1.3,0.2-1.6,0
			c-1.7-1.2-2.5-3.3-4.7-3.3c-2.7,0-4.9,2.2-4.9,4.8c0,2.7,2.2,4.8,4.9,4.8c2.2,0,3-2.1,4.6-3.2c0.3-0.2,1.3-0.3,1.6,0
			c2.4,2.8,0,14.7,0,14.7s12.2-2.4,15.1,0c0.3,0.2,0.2,1.2,0,1.5c-1.2,1.6-3.4,2.4-3.4,4.5c0,2.7,2.2,4.8,4.9,4.8s4.9-2.2,4.9-4.8
			c0-2.1-2.1-2.9-3.3-4.5c-0.2-0.3-0.3-1.3,0-1.6C987.8,257.7,1000,260,1000,260z"/>
		<path class="st4" d="M40,238.9c-2.2,0-3,2.1-4.6,3.2c-0.3,0.2-1.3,0.3-1.6,0c-2.4-2.8,0-14.7,0-14.7s-12.1-2.3-15,0
			c-0.3,0.2-0.2,1.2,0,1.6c1.2,1.6,3.3,2.4,3.3,4.5c0,2.7-2.2,4.8-4.9,4.8s-4.9-2.2-4.9-4.8c0-2.1,2.2-2.9,3.4-4.5
			c0.2-0.3,0.3-1.3,0-1.5c-2.9-2.4-15.1,0-15.1,0V260c0,0,12.1,2.3,15,0c0.3-0.2,0.2-1.2,0-1.6c-1.2-1.6-3.3-2.4-3.3-4.5
			c0-2.7,2.2-4.8,4.9-4.8s4.9,2.2,4.9,4.8c0,2.1-2.2,2.9-3.4,4.5c-0.2,0.3-0.3,1.3,0,1.5c2.9,2.4,15.1,0,15.1,0s-2.4-11.9,0-14.7
			c0.3-0.3,1.3-0.2,1.6,0c1.7,1.2,2.5,3.3,4.7,3.3c2.7,0,4.9-2.2,4.9-4.8C44.9,241.1,42.7,238.9,40,238.9z"/>
		<path class="st13" d="M40,271.4c-2.2,0-3,2.1-4.6,3.2c-0.3,0.2-1.3,0.3-1.6,0c-2.4-2.8,0-14.7,0-14.7s-12.2,2.4-15.1,0
			c-0.3-0.2-0.2-1.2,0-1.5c1.2-1.6,3.4-2.4,3.4-4.5c0-2.7-2.2-4.8-4.9-4.8s-4.9,2.2-4.9,4.8c0,2.1,2.1,2.9,3.3,4.5
			c0.2,0.3,0.3,1.3,0,1.6c-2.9,2.3-15,0-15,0v32.5c0,0,12.2-2.4,15.1,0c0.3,0.2,0.2,1.2,0,1.5c-1.2,1.6-3.4,2.4-3.4,4.5
			c0,2.7,2.2,4.8,4.9,4.8s4.9-2.2,4.9-4.8c0-2.1-2.1-2.9-3.3-4.5c-0.2-0.3-0.3-1.3,0-1.6c2.9-2.3,15,0,15,0s-2.4-11.9,0-14.7
			c0.3-0.3,1.3-0.2,1.6,0c1.7,1.2,2.5,3.3,4.7,3.3c2.7,0,4.9-2.2,4.9-4.8S42.7,271.4,40,271.4z"/>
		<path class="st11" d="M60.8,271.4c2.2,0,3,2.1,4.7,3.3c0.3,0.2,1.3,0.3,1.6,0c2.4-2.8,0-14.7,0-14.7s-12.2,2.4-15.1,0
			c-0.3-0.2-0.2-1.2,0-1.5c1.2-1.6,3.4-2.4,3.4-4.5c0-2.7-2.2-4.8-4.9-4.8c-2.7,0-4.9,2.2-4.9,4.8c0,2.1,2.1,2.9,3.3,4.5
			c0.2,0.3,0.3,1.3,0,1.6c-2.9,2.3-15,0-15,0s-2.4,11.8,0,14.7c0.3,0.3,1.3,0.2,1.6,0c1.7-1.1,2.5-3.2,4.6-3.2
			c2.7,0,4.9,2.2,4.9,4.8s-2.2,4.8-4.9,4.8c-2.2,0-3-2.1-4.7-3.3c-0.3-0.2-1.3-0.3-1.6,0c-2.4,2.8,0,14.7,0,14.7s12.2-2.4,15.1,0
			c0.3,0.2,0.2,1.2,0,1.5c-1.2,1.6-3.4,2.4-3.4,4.5c0,2.7,2.2,4.8,4.9,4.8c2.7,0,4.9-2.2,4.9-4.8c0-2.1-2.1-2.9-3.3-4.5
			c-0.2-0.3-0.3-1.3,0-1.6c2.9-2.3,15,0,15,0s2.4-11.8,0-14.7c-0.3-0.3-1.3-0.2-1.6,0c-1.7,1.1-2.5,3.2-4.6,3.2
			c-2.7,0-4.9-2.2-4.9-4.8S58.1,271.4,60.8,271.4z"/>
		<path class="st4" d="M972.9,271.4c-2.1,0-3,2.1-4.6,3.2c-0.3,0.2-1.3,0.3-1.6,0c-2.4-2.8,0-14.7,0-14.7s-12.1-2.3-15,0
			c-0.3,0.2-0.2,1.2,0,1.6c1.2,1.6,3.3,2.4,3.3,4.5c0,2.7-2.2,4.8-4.9,4.8s-4.9-2.2-4.9-4.8c0-2.1,2.2-2.9,3.4-4.5
			c0.2-0.3,0.3-1.3,0-1.5c-2.9-2.4-15.1,0-15.1,0s2.4,11.9,0,14.7c-0.3,0.3-1.3,0.2-1.6,0c-1.7-1.2-2.5-3.3-4.7-3.3
			c-2.7,0-4.9,2.2-4.9,4.8s2.2,4.8,4.9,4.8c2.2,0,3-2.1,4.6-3.2c0.3-0.2,1.3-0.3,1.6,0c2.4,2.8,0,14.7,0,14.7s12.2-2.4,15.1,0
			c0.3,0.2,0.2,1.2,0,1.5c-1.2,1.6-3.4,2.4-3.4,4.5c0,2.7,2.2,4.8,4.9,4.8s4.9-2.2,4.9-4.8c0-2.1-2.1-2.9-3.3-4.5
			c-0.2-0.3-0.3-1.3,0-1.6c2.9-2.3,15,0,15,0s-2.4-11.9,0-14.7c0.3-0.3,1.3-0.2,1.6,0c1.7,1.2,2.5,3.3,4.7,3.3
			c2.7,0,4.9-2.2,4.9-4.8S975.6,271.4,972.9,271.4z"/>
		<path class="st4" d="M984.9,260c-0.3,0.2-0.2,1.2,0,1.6c1.2,1.6,3.3,2.4,3.3,4.5c0,2.7-2.2,4.8-4.9,4.8s-4.9-2.2-4.9-4.8
			c0-2.1,2.2-2.9,3.4-4.5c0.2-0.3,0.3-1.3,0-1.5c-2.9-2.4-15.1,0-15.1,0s-2.4,11.8,0,14.7c0.3,0.3,1.3,0.2,1.6,0
			c1.7-1.1,2.5-3.2,4.6-3.2c2.7,0,4.9,2.2,4.9,4.8s-2.2,4.8-4.9,4.8c-2.2,0-3-2.1-4.7-3.3c-0.3-0.2-1.3-0.3-1.6,0
			c-2.4,2.8,0,14.7,0,14.7s12.1,2.3,15,0c0.3-0.2,0.2-1.2,0-1.6c-1.2-1.6-3.3-2.4-3.3-4.5c0-2.7,2.2-4.8,4.9-4.8s4.9,2.2,4.9,4.8
			c0,2.1-2.2,2.9-3.4,4.5c-0.2,0.3-0.3,1.3,0,1.5c2.9,2.4,15.1,0,15.1,0V260C1000,260,987.8,257.7,984.9,260z"/>
		<path class="st3" d="M984.9,292.5c-0.3-0.2-0.2-1.2,0-1.5c1.2-1.6,3.4-2.4,3.4-4.5c0-2.7-2.2-4.8-4.9-4.8s-4.9,2.2-4.9,4.8
			c0,2.1,2.1,2.9,3.3,4.5c0.2,0.3,0.3,1.3,0,1.6c-2.9,2.3-15,0-15,0s-2.4,11.8,0,14.7c0.3,0.3,1.3,0.2,1.6,0
			c1.7-1.1,2.5-3.2,4.6-3.2c2.7,0,4.9,2.2,4.9,4.8c0,2.7-2.2,4.8-4.9,4.8c-2.2,0-3-2.1-4.7-3.3c-0.3-0.2-1.3-0.3-1.6,0
			c-2.4,2.8,0,14.7,0,14.7s12.1,2.3,15,0c0.3-0.2,0.2-1.2,0-1.6c-1.2-1.6-3.3-2.4-3.3-4.5c0-2.7,2.2-4.8,4.9-4.8s4.9,2.2,4.9,4.8
			c0,2.1-2.2,2.9-3.4,4.5c-0.2,0.3-0.3,1.3,0,1.5c2.9,2.4,15.1,0,15.1,0v-32.5C1000,292.5,987.8,294.9,984.9,292.5z"/>
		<path class="st10" d="M60.8,303.9c2.2,0,3,2.1,4.7,3.3c0.3,0.2,1.3,0.3,1.6,0c2.4-2.8,0-14.7,0-14.7s-12.1-2.3-15,0
			c-0.3,0.2-0.2,1.2,0,1.6c1.2,1.6,3.3,2.4,3.3,4.5c0,2.7-2.2,4.8-4.9,4.8c-2.7,0-4.9-2.2-4.9-4.8c0-2.1,2.2-2.9,3.4-4.5
			c0.2-0.3,0.3-1.3,0-1.5c-2.9-2.4-15.1,0-15.1,0s-2.4,11.8,0,14.7c0.3,0.3,1.3,0.2,1.6,0c1.7-1.1,2.5-3.2,4.6-3.2
			c2.7,0,4.9,2.2,4.9,4.8c0,2.7-2.2,4.8-4.9,4.8c-2.2,0-3-2.1-4.7-3.3c-0.3-0.2-1.3-0.3-1.6,0c-2.4,2.8,0,14.7,0,14.7s12.1,2.3,15,0
			c0.3-0.2,0.2-1.2,0-1.6c-1.2-1.6-3.3-2.4-3.3-4.5c0-2.7,2.2-4.8,4.9-4.8c2.7,0,4.9,2.2,4.9,4.8c0,2.1-2.2,2.9-3.4,4.5
			c-0.2,0.3-0.3,1.3,0,1.5c2.9,2.4,15.1,0,15.1,0s2.4-11.8,0-14.7c-0.3-0.3-1.3-0.2-1.6,0c-1.7,1.1-2.5,3.2-4.6,3.2
			c-2.7,0-4.9-2.2-4.9-4.8C55.9,306.1,58.1,303.9,60.8,303.9z"/>
		<path class="st2" d="M40,303.9c-2.2,0-3,2.1-4.6,3.2c-0.3,0.2-1.3,0.3-1.6,0c-2.4-2.8,0-14.7,0-14.7s-12.1-2.3-15,0
			c-0.3,0.2-0.2,1.2,0,1.6c1.2,1.6,3.3,2.4,3.3,4.5c0,2.7-2.2,4.8-4.9,4.8s-4.9-2.2-4.9-4.8c0-2.1,2.2-2.9,3.4-4.5
			c0.2-0.3,0.3-1.3,0-1.5c-2.9-2.4-15.1,0-15.1,0V325c0,0,12.1,2.3,15,0c0.3-0.2,0.2-1.2,0-1.6c-1.2-1.6-3.3-2.4-3.3-4.5
			c0-2.7,2.2-4.8,4.9-4.8s4.9,2.2,4.9,4.8c0,2.1-2.2,2.9-3.4,4.5c-0.2,0.3-0.3,1.3,0,1.5c2.9,2.4,15.1,0,15.1,0s-2.4-11.9,0-14.7
			c0.3-0.3,1.3-0.2,1.6,0c1.7,1.2,2.5,3.3,4.7,3.3c2.7,0,4.9-2.2,4.9-4.8C44.9,306.1,42.7,303.9,40,303.9z"/>
		<path class="st7" d="M40,336.4c-2.2,0-3,2.1-4.6,3.2c-0.3,0.2-1.3,0.3-1.6,0c-2.4-2.8,0-14.7,0-14.7s-12.2,2.4-15.1,0
			c-0.3-0.2-0.2-1.2,0-1.5c1.2-1.6,3.4-2.4,3.4-4.5c0-2.7-2.2-4.8-4.9-4.8s-4.9,2.2-4.9,4.8c0,2.1,2.1,2.9,3.3,4.5
			c0.2,0.3,0.3,1.3,0,1.6c-2.9,2.3-15,0-15,0v32.5c0,0,12.2-2.4,15.1,0c0.3,0.2,0.2,1.2,0,1.5c-1.2,1.6-3.4,2.4-3.4,4.5
			c0,2.7,2.2,4.8,4.9,4.8s4.9-2.2,4.9-4.8c0-2.1-2.1-2.9-3.3-4.5c-0.2-0.3-0.3-1.3,0-1.6c2.9-2.3,15,0,15,0s-2.4-11.9,0-14.7
			c0.3-0.3,1.3-0.2,1.6,0c1.7,1.2,2.5,3.3,4.7,3.3c2.7,0,4.9-2.2,4.9-4.8S42.7,336.4,40,336.4z"/>
		<path class="st5" d="M1000,357.5V325c0,0-12.2,2.4-15.1,0c-0.3-0.2-0.2-1.2,0-1.5c1.2-1.6,3.4-2.4,3.4-4.5c0-2.7-2.2-4.8-4.9-4.8
			s-4.9,2.2-4.9,4.8c0,2.1,2.1,2.9,3.3,4.5c0.2,0.3,0.3,1.3,0,1.6c-2.9,2.3-15,0-15,0s2.4,11.9,0,14.7c-0.3,0.3-1.3,0.2-1.6,0
			c-1.7-1.2-2.5-3.3-4.7-3.3c-2.7,0-4.9,2.2-4.9,4.8s2.2,4.8,4.9,4.8c2.2,0,3-2.1,4.6-3.2c0.3-0.2,1.3-0.3,1.6,0
			c2.4,2.8,0,14.7,0,14.7s12.2-2.4,15.1,0c0.3,0.2,0.2,1.2,0,1.5c-1.2,1.6-3.4,2.4-3.4,4.5c0,2.7,2.2,4.8,4.9,4.8s4.9-2.2,4.9-4.8
			c0-2.1-2.1-2.9-3.3-4.5c-0.2-0.3-0.3-1.3,0-1.6C987.8,355.2,1000,357.5,1000,357.5z"/>
		<path class="st9" d="M984.9,357.5c-0.3,0.2-0.2,1.2,0,1.6c1.2,1.6,3.3,2.4,3.3,4.5c0,2.7-2.2,4.8-4.9,4.8s-4.9-2.2-4.9-4.8
			c0-2.1,2.2-2.9,3.4-4.5c0.2-0.3,0.3-1.3,0-1.5c-2.9-2.4-15.1,0-15.1,0s-2.4,11.8,0,14.7c0.3,0.3,1.3,0.2,1.6,0
			c1.7-1.1,2.5-3.2,4.6-3.2c2.7,0,4.9,2.2,4.9,4.8c0,2.7-2.2,4.8-4.9,4.8c-2.2,0-3-2.1-4.7-3.3c-0.3-0.2-1.3-0.3-1.6,0
			c-2.4,2.8,0,14.7,0,14.7s12.1,2.3,15,0c0.3-0.2,0.2-1.2,0-1.6c-1.2-1.6-3.3-2.4-3.3-4.5c0-2.7,2.2-4.8,4.9-4.8s4.9,2.2,4.9,4.8
			c0,2.1-2.2,2.9-3.4,4.5c-0.2,0.3-0.3,1.3,0,1.5c2.9,2.4,15.1,0,15.1,0v-32.5C1000,357.5,987.8,355.2,984.9,357.5z"/>
		<path class="st9" d="M972.9,368.9c-2.1,0-3,2.1-4.6,3.2c-0.3,0.2-1.3,0.3-1.6,0c-2.4-2.8,0-14.7,0-14.7s-12.2,2.4-15.1,0
			c-0.3-0.2-0.2-1.2,0-1.5c1.2-1.6,3.4-2.4,3.4-4.5c0-2.7-2.2-4.8-4.9-4.8s-4.9,2.2-4.9,4.8c0,2.1,2.1,2.9,3.3,4.5
			c0.2,0.3,0.3,1.3,0,1.6c-2.9,2.3-15,0-15,0s2.4,11.9,0,14.7c-0.3,0.3-1.3,0.2-1.6,0c-1.7-1.2-2.5-3.3-4.7-3.3
			c-2.7,0-4.9,2.2-4.9,4.8c0,2.7,2.2,4.8,4.9,4.8c2.2,0,3-2.1,4.6-3.2c0.3-0.2,1.3-0.3,1.6,0c2.4,2.8,0,14.7,0,14.7s12.2-2.4,15.1,0
			c0.3,0.2,0.2,1.2,0,1.5c-1.2,1.6-3.4,2.4-3.4,4.5c0,2.7,2.2,4.8,4.9,4.8s4.9-2.2,4.9-4.8c0-2.1-2.1-2.9-3.3-4.5
			c-0.2-0.3-0.3-1.3,0-1.6c2.9-2.3,15,0,15,0s-2.4-11.9,0-14.7c0.3-0.3,1.3-0.2,1.6,0c1.7,1.2,2.5,3.3,4.7,3.3
			c2.7,0,4.9-2.2,4.9-4.8C977.8,371.1,975.6,368.9,972.9,368.9z"/>
		<path class="st11" d="M73.3,368.9c-2.2,0-3,2.1-4.6,3.2c-0.3,0.2-1.3,0.3-1.6,0c-2.4-2.8,0-14.7,0-14.7s-12.1-2.3-15,0
			c-0.3,0.2-0.2,1.2,0,1.6c1.2,1.6,3.3,2.4,3.3,4.5c0,2.7-2.2,4.8-4.9,4.8c-2.7,0-4.9-2.2-4.9-4.8c0-2.1,2.2-2.9,3.4-4.5
			c0.2-0.3,0.3-1.3,0-1.5c-2.9-2.4-15.1,0-15.1,0s2.4,11.9,0,14.7c-0.3,0.3-1.3,0.2-1.6,0c-1.7-1.2-2.5-3.3-4.7-3.3
			c-2.7,0-4.9,2.2-4.9,4.8c0,2.7,2.2,4.8,4.9,4.8c2.1,0,3-2.1,4.6-3.2c0.3-0.2,1.3-0.3,1.6,0c2.4,2.8,0,14.7,0,14.7s12.1,2.3,15,0
			c0.3-0.2,0.2-1.2,0-1.6c-1.2-1.6-3.3-2.4-3.3-4.5c0-2.7,2.2-4.8,4.9-4.8c2.7,0,4.9,2.2,4.9,4.8c0,2.1-2.2,2.9-3.4,4.5
			c-0.2,0.3-0.3,1.3,0,1.5c2.9,2.4,15.1,0,15.1,0s-2.4-11.9,0-14.7c0.3-0.3,1.3-0.2,1.6,0c1.7,1.2,2.5,3.3,4.7,3.3
			c2.7,0,4.9-2.2,4.9-4.8C78.2,371.1,76,368.9,73.3,368.9z"/>
		<path class="st11" d="M27.5,368.9c2.2,0,3,2.1,4.7,3.3c0.3,0.2,1.3,0.3,1.6,0c2.4-2.8,0-14.7,0-14.7s-12.1-2.3-15,0
			c-0.3,0.2-0.2,1.2,0,1.6c1.2,1.6,3.3,2.4,3.3,4.5c0,2.7-2.2,4.8-4.9,4.8s-4.9-2.2-4.9-4.8c0-2.1,2.2-2.9,3.4-4.5
			c0.2-0.3,0.3-1.3,0-1.5c-2.9-2.4-15.1,0-15.1,0V390c0,0,12.1,2.3,15,0c0.3-0.2,0.2-1.2,0-1.6c-1.2-1.6-3.3-2.4-3.3-4.5
			c0-2.7,2.2-4.8,4.9-4.8s4.9,2.2,4.9,4.8c0,2.1-2.2,2.9-3.4,4.5c-0.2,0.3-0.3,1.3,0,1.5c2.9,2.4,15.1,0,15.1,0s2.4-11.8,0-14.7
			c-0.3-0.3-1.3-0.2-1.6,0c-1.7,1.1-2.5,3.2-4.6,3.2c-2.7,0-4.9-2.2-4.9-4.8C22.6,371.1,24.8,368.9,27.5,368.9z"/>
		<path class="st9" d="M40,401.4c-2.2,0-3,2.1-4.6,3.2c-0.3,0.2-1.3,0.3-1.6,0c-2.4-2.8,0-14.7,0-14.7s-12.2,2.4-15.1,0
			c-0.3-0.2-0.2-1.2,0-1.5c1.2-1.6,3.4-2.4,3.4-4.5c0-2.7-2.2-4.8-4.9-4.8s-4.9,2.2-4.9,4.8c0,2.1,2.1,2.9,3.3,4.5
			c0.2,0.3,0.3,1.3,0,1.6c-2.9,2.3-15,0-15,0v32.5c0,0,12.2-2.4,15.1,0c0.3,0.2,0.2,1.2,0,1.5c-1.2,1.6-3.4,2.4-3.4,4.5
			c0,2.7,2.2,4.8,4.9,4.8s4.9-2.2,4.9-4.8c0-2.1-2.1-2.9-3.3-4.5c-0.2-0.3-0.3-1.3,0-1.6c2.9-2.3,15,0,15,0s-2.4-11.9,0-14.7
			c0.3-0.3,1.3-0.2,1.6,0c1.7,1.2,2.5,3.3,4.7,3.3c2.7,0,4.9-2.2,4.9-4.8C44.9,403.6,42.7,401.4,40,401.4z"/>
		<path class="st10" d="M960.4,401.4c2.2,0,3,2.1,4.7,3.3c0.3,0.2,1.3,0.3,1.6,0c2.4-2.8,0-14.7,0-14.7s-12.1-2.3-15,0
			c-0.3,0.2-0.2,1.2,0,1.6c1.2,1.6,3.3,2.4,3.3,4.5c0,2.7-2.2,4.8-4.9,4.8s-4.9-2.2-4.9-4.8c0-2.1,2.2-2.9,3.4-4.5
			c0.2-0.3,0.3-1.3,0-1.5c-2.9-2.4-15.1,0-15.1,0s-2.4,11.8,0,14.7c0.3,0.3,1.3,0.2,1.6,0c1.7-1.1,2.5-3.2,4.6-3.2
			c2.7,0,4.9,2.2,4.9,4.8c0,2.7-2.2,4.8-4.9,4.8c-2.2,0-3-2.1-4.7-3.3c-0.3-0.2-1.3-0.3-1.6,0c-2.4,2.8,0,14.7,0,14.7s12.1,2.3,15,0
			c0.3-0.2,0.2-1.2,0-1.6c-1.2-1.6-3.3-2.4-3.3-4.5c0-2.7,2.2-4.8,4.9-4.8s4.9,2.2,4.9,4.8c0,2.1-2.2,2.9-3.4,4.5
			c-0.2,0.3-0.3,1.3,0,1.5c2.9,2.4,15.1,0,15.1,0s2.4-11.8,0-14.7c-0.3-0.3-1.3-0.2-1.6,0c-1.7,1.1-2.5,3.2-4.6,3.2
			c-2.7,0-4.9-2.2-4.9-4.8C955.5,403.6,957.7,401.4,960.4,401.4z"/>
		<path class="st8" d="M1000,422.5V390c0,0-12.2,2.4-15.1,0c-0.3-0.2-0.2-1.2,0-1.5c1.2-1.6,3.4-2.4,3.4-4.5c0-2.7-2.2-4.8-4.9-4.8
			s-4.9,2.2-4.9,4.8c0,2.1,2.1,2.9,3.3,4.5c0.2,0.3,0.3,1.3,0,1.6c-2.9,2.3-15,0-15,0s2.4,11.9,0,14.7c-0.3,0.3-1.3,0.2-1.6,0
			c-1.7-1.2-2.5-3.3-4.7-3.3c-2.7,0-4.9,2.2-4.9,4.8c0,2.7,2.2,4.8,4.9,4.8c2.2,0,3-2.1,4.6-3.2c0.3-0.2,1.3-0.3,1.6,0
			c2.4,2.8,0,14.7,0,14.7s12.2-2.4,15.1,0c0.3,0.2,0.2,1.2,0,1.5c-1.2,1.6-3.4,2.4-3.4,4.5c0,2.7,2.2,4.8,4.9,4.8s4.9-2.2,4.9-4.8
			c0-2.1-2.1-2.9-3.3-4.5c-0.2-0.3-0.3-1.3,0-1.6C987.8,420.2,1000,422.5,1000,422.5z"/>
		<path class="st6" d="M984.9,422.5c-0.3,0.2-0.2,1.2,0,1.6c1.2,1.6,3.3,2.4,3.3,4.5c0,2.7-2.2,4.8-4.9,4.8s-4.9-2.2-4.9-4.8
			c0-2.1,2.2-2.9,3.4-4.5c0.2-0.3,0.3-1.3,0-1.5c-2.9-2.4-15.1,0-15.1,0s-2.4,11.8,0,14.7c0.3,0.3,1.3,0.2,1.6,0
			c1.7-1.1,2.5-3.2,4.6-3.2c2.7,0,4.9,2.2,4.9,4.8c0,2.7-2.2,4.8-4.9,4.8c-2.2,0-3-2.1-4.7-3.3c-0.3-0.2-1.3-0.3-1.6,0
			c-2.4,2.8,0,14.7,0,14.7s12.1,2.3,15,0c0.3-0.2,0.2-1.2,0-1.6c-1.2-1.6-3.3-2.4-3.3-4.5c0-2.7,2.2-4.8,4.9-4.8s4.9,2.2,4.9,4.8
			c0,2.1-2.2,2.9-3.4,4.5c-0.2,0.3-0.3,1.3,0,1.5c2.9,2.4,15.1,0,15.1,0v-32.5C1000,422.5,987.8,420.2,984.9,422.5z"/>
		<path class="st4" d="M73.3,433.9c-2.2,0-3,2.1-4.6,3.2c-0.3,0.2-1.3,0.3-1.6,0c-2.4-2.8,0-14.7,0-14.7s-12.2,2.4-15.1,0
			c-0.3-0.2-0.2-1.2,0-1.5c1.2-1.6,3.4-2.4,3.4-4.5c0-2.7-2.2-4.8-4.9-4.8c-2.7,0-4.9,2.2-4.9,4.8c0,2.1,2.1,2.9,3.3,4.5
			c0.2,0.3,0.3,1.3,0,1.6c-2.9,2.3-15,0-15,0s-2.4,11.8,0,14.7c0.3,0.3,1.3,0.2,1.6,0c1.7-1.1,2.5-3.2,4.6-3.2
			c2.7,0,4.9,2.2,4.9,4.8c0,2.7-2.2,4.8-4.9,4.8c-2.2,0-3-2.1-4.7-3.3c-0.3-0.2-1.3-0.3-1.6,0c-2.4,2.8,0,14.7,0,14.7
			s12.2-2.4,15.1,0c0.3,0.2,0.2,1.2,0,1.5c-1.2,1.6-3.4,2.4-3.4,4.5c0,2.7,2.2,4.8,4.9,4.8c2.7,0,4.9-2.2,4.9-4.8
			c0-2.1-2.1-2.9-3.3-4.5c-0.2-0.3-0.3-1.3,0-1.6c2.9-2.3,15,0,15,0s-2.4-11.9,0-14.7c0.3-0.3,1.3-0.2,1.6,0
			c1.7,1.2,2.5,3.3,4.7,3.3c2.7,0,4.9-2.2,4.9-4.8C78.2,436.1,76,433.9,73.3,433.9z"/>
		<path class="st13" d="M40,433.9c-2.2,0-3,2.1-4.6,3.2c-0.3,0.2-1.3,0.3-1.6,0c-2.4-2.8,0-14.7,0-14.7s-12.1-2.3-15,0
			c-0.3,0.2-0.2,1.2,0,1.6c1.2,1.6,3.3,2.4,3.3,4.5c0,2.7-2.2,4.8-4.9,4.8s-4.9-2.2-4.9-4.8c0-2.1,2.2-2.9,3.4-4.5
			c0.2-0.3,0.3-1.3,0-1.5c-2.9-2.4-15.1,0-15.1,0V455c0,0,12.2-2.4,15.1,0c0.3,0.2,0.2,1.2,0,1.5c-1.2,1.6-3.4,2.4-3.4,4.5
			c0,2.7,2.2,4.8,4.9,4.8s4.9-2.2,4.9-4.8c0-2.1-2.1-2.9-3.3-4.5c-0.2-0.3-0.3-1.3,0-1.6c2.9-2.3,15,0,15,0s-2.4-11.9,0-14.7
			c0.3-0.3,1.3-0.2,1.6,0c1.7,1.2,2.5,3.3,4.7,3.3c2.7,0,4.9-2.2,4.9-4.8C44.9,436.1,42.7,433.9,40,433.9z"/>
		<path class="st15" d="M27.5,466.4c2.2,0,3,2.1,4.7,3.3c0.3,0.2,1.3,0.3,1.6,0c2.4-2.8,0-14.7,0-14.7s-12.1-2.3-15,0
			c-0.3,0.2-0.2,1.2,0,1.6c1.2,1.6,3.3,2.4,3.3,4.5c0,2.7-2.2,4.8-4.9,4.8s-4.9-2.2-4.9-4.8c0-2.1,2.2-2.9,3.4-4.5
			c0.2-0.3,0.3-1.3,0-1.5c-2.9-2.4-15.1,0-15.1,0v32.5c0,0,12.1,2.3,15,0c0.3-0.2,0.2-1.2,0-1.6c-1.2-1.6-3.3-2.4-3.3-4.5
			c0-2.7,2.2-4.8,4.9-4.8s4.9,2.2,4.9,4.8c0,2.1-2.2,2.9-3.4,4.5c-0.2,0.3-0.3,1.3,0,1.5c2.9,2.4,15.1,0,15.1,0s2.4-11.8,0-14.7
			c-0.3-0.3-1.3-0.2-1.6,0c-1.7,1.1-2.5,3.2-4.6,3.2c-2.7,0-4.9-2.2-4.9-4.8C22.6,468.6,24.8,466.4,27.5,466.4z"/>
		<path class="st5" d="M972.9,466.4c-2.1,0-3,2.1-4.6,3.2c-0.3,0.2-1.3,0.3-1.6,0c-2.4-2.8,0-14.7,0-14.7s-12.1-2.3-15,0
			c-0.3,0.2-0.2,1.2,0,1.6c1.2,1.6,3.3,2.4,3.3,4.5c0,2.7-2.2,4.8-4.9,4.8s-4.9-2.2-4.9-4.8c0-2.1,2.2-2.9,3.4-4.5
			c0.2-0.3,0.3-1.3,0-1.5c-2.9-2.4-15.1,0-15.1,0s2.4,11.9,0,14.7c-0.3,0.3-1.3,0.2-1.6,0c-1.7-1.2-2.5-3.3-4.7-3.3
			c-2.7,0-4.9,2.2-4.9,4.8c0,2.7,2.2,4.8,4.9,4.8c2.2,0,3-2.1,4.6-3.2c0.3-0.2,1.3-0.3,1.6,0c2.4,2.8,0,14.7,0,14.7s12.1,2.3,15,0
			c0.3-0.2,0.2-1.2,0-1.6c-1.2-1.6-3.3-2.4-3.3-4.5c0-2.7,2.2-4.8,4.9-4.8s4.9,2.2,4.9,4.8c0,2.1-2.2,2.9-3.4,4.5
			c-0.2,0.3-0.3,1.3,0,1.5c2.9,2.4,15.1,0,15.1,0s-2.4-11.9,0-14.7c0.3-0.3,1.3-0.2,1.6,0c1.7,1.2,2.5,3.3,4.7,3.3
			c2.7,0,4.9-2.2,4.9-4.8C977.8,468.6,975.6,466.4,972.9,466.4z"/>
		<path class="st4" d="M984.9,455c-0.3-0.2-0.2-1.2,0-1.5c1.2-1.6,3.4-2.4,3.4-4.5c0-2.7-2.2-4.8-4.9-4.8s-4.9,2.2-4.9,4.8
			c0,2.1,2.1,2.9,3.3,4.5c0.2,0.3,0.3,1.3,0,1.6c-2.9,2.3-15,0-15,0s-2.4,11.8,0,14.7c0.3,0.3,1.3,0.2,1.6,0
			c1.7-1.1,2.5-3.2,4.6-3.2c2.7,0,4.9,2.2,4.9,4.8c0,2.7-2.2,4.8-4.9,4.8c-2.2,0-3-2.1-4.7-3.3c-0.3-0.2-1.3-0.3-1.6,0
			c-2.4,2.8,0,14.7,0,14.7s12.1,2.3,15,0c0.3-0.2,0.2-1.2,0-1.6c-1.2-1.6-3.3-2.4-3.3-4.5c0-2.7,2.2-4.8,4.9-4.8s4.9,2.2,4.9,4.8
			c0,2.1-2.2,2.9-3.4,4.5c-0.2,0.3-0.3,1.3,0,1.5c2.9,2.4,15.1,0,15.1,0V455C1000,455,987.8,457.4,984.9,455z"/>
		<path class="st16" d="M1000,520v-32.5c0,0-12.2,2.4-15.1,0c-0.3-0.2-0.2-1.2,0-1.5c1.2-1.6,3.4-2.4,3.4-4.5c0-2.7-2.2-4.8-4.9-4.8
			s-4.9,2.2-4.9,4.8c0,2.1,2.1,2.9,3.3,4.5c0.2,0.3,0.3,1.3,0,1.6c-2.9,2.3-15,0-15,0s2.4,11.9,0,14.7c-0.3,0.3-1.3,0.2-1.6,0
			c-1.7-1.2-2.5-3.3-4.7-3.3c-2.7,0-4.9,2.2-4.9,4.8s2.2,4.8,4.9,4.8c2.2,0,3-2.1,4.6-3.2c0.3-0.2,1.3-0.3,1.6,0
			c2.4,2.8,0,14.7,0,14.7s12.2-2.4,15.1,0c0.3,0.2,0.2,1.2,0,1.5c-1.2,1.6-3.4,2.4-3.4,4.5c0,2.7,2.2,4.8,4.9,4.8s4.9-2.2,4.9-4.8
			c0-2.1-2.1-2.9-3.3-4.5c-0.2-0.3-0.3-1.3,0-1.6C987.8,517.7,1000,520,1000,520z"/>
		<path class="st4" d="M60.8,498.9c2.2,0,3,2.1,4.7,3.3c0.3,0.2,1.3,0.3,1.6,0c2.4-2.8,0-14.7,0-14.7s-12.1-2.3-15,0
			c-0.3,0.2-0.2,1.2,0,1.6c1.2,1.6,3.3,2.4,3.3,4.5c0,2.7-2.2,4.8-4.9,4.8c-2.7,0-4.9-2.2-4.9-4.8c0-2.1,2.2-2.9,3.4-4.5
			c0.2-0.3,0.3-1.3,0-1.5c-2.9-2.4-15.1,0-15.1,0s-2.4,11.8,0,14.7c0.3,0.3,1.3,0.2,1.6,0c1.7-1.1,2.5-3.2,4.6-3.2
			c2.7,0,4.9,2.2,4.9,4.8s-2.2,4.8-4.9,4.8c-2.2,0-3-2.1-4.7-3.3c-0.3-0.2-1.3-0.3-1.6,0c-2.4,2.8,0,14.7,0,14.7s12.1,2.3,15,0
			c0.3-0.2,0.2-1.2,0-1.6c-1.2-1.6-3.3-2.4-3.3-4.5c0-2.7,2.2-4.8,4.9-4.8c2.7,0,4.9,2.2,4.9,4.8c0,2.1-2.2,2.9-3.4,4.5
			c-0.2,0.3-0.3,1.3,0,1.5c2.9,2.4,15.1,0,15.1,0s2.4-11.8,0-14.7c-0.3-0.3-1.3-0.2-1.6,0c-1.7,1.1-2.5,3.2-4.6,3.2
			c-2.7,0-4.9-2.2-4.9-4.8S58.1,498.9,60.8,498.9z"/>
		<path class="st4" d="M40,498.9c-2.2,0-3,2.1-4.6,3.2c-0.3,0.2-1.3,0.3-1.6,0c-2.4-2.8,0-14.7,0-14.7s-12.2,2.4-15.1,0
			c-0.3-0.2-0.2-1.2,0-1.5c1.2-1.6,3.4-2.4,3.4-4.5c0-2.7-2.2-4.8-4.9-4.8s-4.9,2.2-4.9,4.8c0,2.1,2.1,2.9,3.3,4.5
			c0.2,0.3,0.3,1.3,0,1.6c-2.9,2.3-15,0-15,0V520c0,0,12.2-2.4,15.1,0c0.3,0.2,0.2,1.2,0,1.5c-1.2,1.6-3.4,2.4-3.4,4.5
			c0,2.7,2.2,4.8,4.9,4.8s4.9-2.2,4.9-4.8c0-2.1-2.1-2.9-3.3-4.5c-0.2-0.3-0.3-1.3,0-1.6c2.9-2.3,15,0,15,0s-2.4-11.9,0-14.7
			c0.3-0.3,1.3-0.2,1.6,0c1.7,1.2,2.5,3.3,4.7,3.3c2.7,0,4.9-2.2,4.9-4.8S42.7,498.9,40,498.9z"/>
		<path class="st11" d="M27.5,531.4c2.2,0,3,2.1,4.7,3.3c0.3,0.2,1.3,0.3,1.6,0c2.4-2.8,0-14.7,0-14.7s-12.1-2.3-15,0
			c-0.3,0.2-0.2,1.2,0,1.6c1.2,1.6,3.3,2.4,3.3,4.5c0,2.7-2.2,4.8-4.9,4.8s-4.9-2.2-4.9-4.8c0-2.1,2.2-2.9,3.4-4.5
			c0.2-0.3,0.3-1.3,0-1.5c-2.9-2.4-15.1,0-15.1,0v32.5c0,0,12.1,2.3,15,0c0.3-0.2,0.2-1.2,0-1.6c-1.2-1.6-3.3-2.4-3.3-4.5
			c0-2.7,2.2-4.8,4.9-4.8s4.9,2.2,4.9,4.8c0,2.1-2.2,2.9-3.4,4.5c-0.2,0.3-0.3,1.3,0,1.5c2.9,2.4,15.1,0,15.1,0s2.4-11.8,0-14.7
			c-0.3-0.3-1.3-0.2-1.6,0c-1.7,1.1-2.5,3.2-4.6,3.2c-2.7,0-4.9-2.2-4.9-4.8C22.6,533.6,24.8,531.4,27.5,531.4z"/>
		<path class="st12" d="M972.9,531.4c-2.1,0-3,2.1-4.6,3.2c-0.3,0.2-1.3,0.3-1.6,0c-2.4-2.8,0-14.7,0-14.7s-12.1-2.3-15,0
			c-0.3,0.2-0.2,1.2,0,1.6c1.2,1.6,3.3,2.4,3.3,4.5c0,2.7-2.2,4.8-4.9,4.8s-4.9-2.2-4.9-4.8c0-2.1,2.2-2.9,3.4-4.5
			c0.2-0.3,0.3-1.3,0-1.5c-2.9-2.4-15.1,0-15.1,0s2.4,11.9,0,14.7c-0.3,0.3-1.3,0.2-1.6,0c-1.7-1.2-2.5-3.3-4.7-3.3
			c-2.7,0-4.9,2.2-4.9,4.8c0,2.7,2.2,4.8,4.9,4.8c2.2,0,3-2.1,4.6-3.2c0.3-0.2,1.3-0.3,1.6,0c2.4,2.8,0,14.7,0,14.7s12.1,2.3,15,0
			c0.3-0.2,0.2-1.2,0-1.6c-1.2-1.6-3.3-2.4-3.3-4.5c0-2.7,2.2-4.8,4.9-4.8s4.9,2.2,4.9,4.8c0,2.1-2.2,2.9-3.4,4.5
			c-0.2,0.3-0.3,1.3,0,1.5c2.9,2.4,15.1,0,15.1,0s-2.4-11.9,0-14.7c0.3-0.3,1.3-0.2,1.6,0c1.7,1.2,2.5,3.3,4.7,3.3
			c2.7,0,4.9-2.2,4.9-4.8C977.8,533.6,975.6,531.4,972.9,531.4z"/>
		<path class="st9" d="M984.9,520c-0.3,0.2-0.2,1.2,0,1.6c1.2,1.6,3.3,2.4,3.3,4.5c0,2.7-2.2,4.8-4.9,4.8s-4.9-2.2-4.9-4.8
			c0-2.1,2.2-2.9,3.4-4.5c0.2-0.3,0.3-1.3,0-1.5c-2.9-2.4-15.1,0-15.1,0s-2.4,11.8,0,14.7c0.3,0.3,1.3,0.2,1.6,0
			c1.7-1.1,2.5-3.2,4.6-3.2c2.7,0,4.9,2.2,4.9,4.8c0,2.7-2.2,4.8-4.9,4.8c-2.2,0-3-2.1-4.7-3.3c-0.3-0.2-1.3-0.3-1.6,0
			c-2.4,2.8,0,14.7,0,14.7s12.1,2.3,15,0c0.3-0.2,0.2-1.2,0-1.6c-1.2-1.6-3.3-2.4-3.3-4.5c0-2.7,2.2-4.8,4.9-4.8s4.9,2.2,4.9,4.8
			c0,2.1-2.2,2.9-3.4,4.5c-0.2,0.3-0.3,1.3,0,1.5c2.9,2.4,15.1,0,15.1,0V520C1000,520,987.8,517.7,984.9,520z"/>
		<path class="st3" d="M1000,585v-32.5c0,0-12.2,2.4-15.1,0c-0.3-0.2-0.2-1.2,0-1.5c1.2-1.6,3.4-2.4,3.4-4.5c0-2.7-2.2-4.8-4.9-4.8
			s-4.9,2.2-4.9,4.8c0,2.1,2.1,2.9,3.3,4.5c0.2,0.3,0.3,1.3,0,1.6c-2.9,2.3-15,0-15,0s2.4,11.9,0,14.7c-0.3,0.3-1.3,0.2-1.6,0
			c-1.7-1.2-2.5-3.3-4.7-3.3c-2.7,0-4.9,2.2-4.9,4.8c0,2.7,2.2,4.8,4.9,4.8c2.2,0,3-2.1,4.6-3.2c0.3-0.2,1.3-0.3,1.6,0
			c2.4,2.8,0,14.7,0,14.7s12.2-2.4,15.1,0c0.3,0.2,0.2,1.2,0,1.5c-1.2,1.6-3.4,2.4-3.4,4.5c0,2.7,2.2,4.8,4.9,4.8s4.9-2.2,4.9-4.8
			c0-2.1-2.1-2.9-3.3-4.5c-0.2-0.3-0.3-1.3,0-1.6C987.8,582.7,1000,585,1000,585z"/>
		<path class="st13" d="M27.5,563.9c2.2,0,3,2.1,4.7,3.3c0.3,0.2,1.3,0.3,1.6,0c2.4-2.8,0-14.7,0-14.7s-12.2,2.4-15.1,0
			c-0.3-0.2-0.2-1.2,0-1.5c1.2-1.6,3.4-2.4,3.4-4.5c0-2.7-2.2-4.8-4.9-4.8s-4.9,2.2-4.9,4.8c0,2.1,2.1,2.9,3.3,4.5
			c0.2,0.3,0.3,1.3,0,1.6c-2.9,2.3-15,0-15,0V585c0,0,12.1,2.3,15,0c0.3-0.2,0.2-1.2,0-1.6c-1.2-1.6-3.3-2.4-3.3-4.5
			c0-2.7,2.2-4.8,4.9-4.8s4.9,2.2,4.9,4.8c0,2.1-2.2,2.9-3.4,4.5c-0.2,0.3-0.3,1.3,0,1.5c2.9,2.4,15.1,0,15.1,0s2.4-11.8,0-14.7
			c-0.3-0.3-1.3-0.2-1.6,0c-1.7,1.1-2.5,3.2-4.6,3.2c-2.7,0-4.9-2.2-4.9-4.8C22.6,566.1,24.8,563.9,27.5,563.9z"/>
		<path class="st8" d="M40,596.4c-2.2,0-3,2.1-4.6,3.2c-0.3,0.2-1.3,0.3-1.6,0c-2.4-2.8,0-14.7,0-14.7s-12.2,2.4-15.1,0
			c-0.3-0.2-0.2-1.2,0-1.5c1.2-1.6,3.4-2.4,3.4-4.5c0-2.7-2.2-4.8-4.9-4.8s-4.9,2.2-4.9,4.8c0,2.1,2.1,2.9,3.3,4.5
			c0.2,0.3,0.3,1.3,0,1.6c-2.9,2.3-15,0-15,0v32.5c0,0,12.2-2.4,15.1,0c0.3,0.2,0.2,1.2,0,1.5c-1.2,1.6-3.4,2.4-3.4,4.5
			c0,2.7,2.2,4.8,4.9,4.8s4.9-2.2,4.9-4.8c0-2.1-2.1-2.9-3.3-4.5c-0.2-0.3-0.3-1.3,0-1.6c2.9-2.3,15,0,15,0s-2.4-11.9,0-14.7
			c0.3-0.3,1.3-0.2,1.6,0c1.7,1.2,2.5,3.3,4.7,3.3c2.7,0,4.9-2.2,4.9-4.8S42.7,596.4,40,596.4z"/>
		<path class="st14" d="M106.6,596.4c-2.2,0-3,2.1-4.6,3.2c-0.3,0.2-1.3,0.3-1.6,0c-2.4-2.8,0-14.7,0-14.7s-12.2,2.4-15.1,0
			c-0.3-0.2-0.2-1.2,0-1.5c1.2-1.6,3.4-2.4,3.4-4.5c0-2.7-2.2-4.8-4.9-4.8c-2.7,0-4.9,2.2-4.9,4.8c0,2.1,2.1,2.9,3.3,4.5
			c0.2,0.3,0.3,1.3,0,1.6c-2.9,2.3-15,0-15,0s2.4,11.9,0,14.7c-0.3,0.3-1.3,0.2-1.6,0c-1.7-1.2-2.5-3.3-4.7-3.3
			c-2.7,0-4.9,2.2-4.9,4.8s2.2,4.8,4.9,4.8c2.1,0,3-2.1,4.6-3.2c0.3-0.2,1.3-0.3,1.6,0c2.4,2.8,0,14.7,0,14.7s12.2-2.4,15.1,0
			c0.3,0.2,0.2,1.2,0,1.5c-1.2,1.6-3.4,2.4-3.4,4.5c0,2.7,2.2,4.8,4.9,4.8c2.7,0,4.9-2.2,4.9-4.8c0-2.1-2.1-2.9-3.3-4.5
			c-0.2-0.3-0.3-1.3,0-1.6c2.9-2.3,15,0,15,0s-2.4-11.9,0-14.7c0.3-0.3,1.3-0.2,1.6,0c1.7,1.2,2.5,3.3,4.7,3.3
			c2.7,0,4.9-2.2,4.9-4.8S109.3,596.4,106.6,596.4z"/>
		<path class="st13" d="M127.5,596.4c2.2,0,3,2.1,4.7,3.3c0.3,0.2,1.3,0.3,1.6,0c2.4-2.8,0-14.7,0-14.7s-12.2,2.4-15.1,0
			c-0.3-0.2-0.2-1.2,0-1.5c1.2-1.6,3.4-2.4,3.4-4.5c0-2.7-2.2-4.8-4.9-4.8s-4.9,2.2-4.9,4.8c0,2.1,2.1,2.9,3.3,4.5
			c0.2,0.3,0.3,1.3,0,1.6c-2.9,2.3-15,0-15,0s-2.4,11.8,0,14.7c0.3,0.3,1.3,0.2,1.6,0c1.7-1.1,2.5-3.2,4.6-3.2
			c2.7,0,4.9,2.2,4.9,4.8s-2.2,4.8-4.9,4.8c-2.2,0-3-2.1-4.7-3.3c-0.3-0.2-1.3-0.3-1.6,0c-2.4,2.8,0,14.7,0,14.7s12.2-2.4,15.1,0
			c0.3,0.2,0.2,1.2,0,1.5c-1.2,1.6-3.4,2.4-3.4,4.5c0,2.7,2.2,4.8,4.9,4.8s4.9-2.2,4.9-4.8c0-2.1-2.1-2.9-3.3-4.5
			c-0.2-0.3-0.3-1.3,0-1.6c2.9-2.3,15,0,15,0s2.4-11.8,0-14.7c-0.3-0.3-1.3-0.2-1.6,0c-1.7,1.1-2.5,3.2-4.6,3.2
			c-2.7,0-4.9-2.2-4.9-4.8S124.7,596.4,127.5,596.4z"/>
		<path class="st7" d="M160.8,596.4c2.2,0,3,2.1,4.7,3.3c0.3,0.2,1.3,0.3,1.6,0c2.4-2.8,0-14.7,0-14.7s-12.2,2.4-15.1,0
			c-0.3-0.2-0.2-1.2,0-1.5c1.2-1.6,3.4-2.4,3.4-4.5c0-2.7-2.2-4.8-4.9-4.8s-4.9,2.2-4.9,4.8c0,2.1,2.1,2.9,3.3,4.5
			c0.2,0.3,0.3,1.3,0,1.6c-2.9,2.3-15,0-15,0s2.4,11.9,0,14.7c-0.3,0.3-1.3,0.2-1.6,0c-1.7-1.2-2.5-3.3-4.7-3.3
			c-2.7,0-4.9,2.2-4.9,4.8s2.2,4.8,4.9,4.8c2.1,0,3-2.1,4.6-3.2c0.3-0.2,1.3-0.3,1.6,0c2.4,2.8,0,14.7,0,14.7s12.1,2.3,15,0
			c0.3-0.2,0.2-1.2,0-1.6c-1.2-1.6-3.3-2.4-3.3-4.5c0-2.7,2.2-4.8,4.9-4.8s4.9,2.2,4.9,4.8c0,2.1-2.2,2.9-3.4,4.5
			c-0.2,0.3-0.3,1.3,0,1.5c2.9,2.4,15.1,0,15.1,0s2.4-11.8,0-14.7c-0.3-0.3-1.3-0.2-1.6,0c-1.7,1.1-2.5,3.2-4.6,3.2
			c-2.7,0-4.9-2.2-4.9-4.8S158,596.4,160.8,596.4z"/>
		<path class="st5" d="M239.9,596.4c-2.2,0-3,2.1-4.6,3.2c-0.3,0.2-1.3,0.3-1.6,0c-2.4-2.8,0-14.7,0-14.7s-12.1-2.3-15,0
			c-0.3,0.2-0.2,1.2,0,1.6c1.2,1.6,3.3,2.4,3.3,4.5c0,2.7-2.2,4.8-4.9,4.8c-2.7,0-4.9-2.2-4.9-4.8c0-2.1,2.2-2.9,3.4-4.5
			c0.2-0.3,0.3-1.3,0-1.5c-2.9-2.4-15.1,0-15.1,0s2.4,11.9,0,14.7c-0.3,0.3-1.3,0.2-1.6,0c-1.7-1.2-2.5-3.3-4.7-3.3
			c-2.7,0-4.9,2.2-4.9,4.8s2.2,4.8,4.9,4.8c2.1,0,3-2.1,4.6-3.2c0.3-0.2,1.3-0.3,1.6,0c2.4,2.8,0,14.7,0,14.7s12.1,2.3,15,0
			c0.3-0.2,0.2-1.2,0-1.6c-1.2-1.6-3.3-2.4-3.3-4.5c0-2.7,2.2-4.8,4.9-4.8c2.7,0,4.9,2.2,4.9,4.8c0,2.1-2.2,2.9-3.4,4.5
			c-0.2,0.3-0.3,1.3,0,1.5c2.9,2.4,15.1,0,15.1,0s-2.4-11.9,0-14.7c0.3-0.3,1.3-0.2,1.6,0c1.7,1.2,2.5,3.3,4.7,3.3
			c2.7,0,4.9-2.2,4.9-4.8S242.6,596.4,239.9,596.4z"/>
		<path class="st12" d="M260.7,596.4c2.2,0,3,2.1,4.7,3.3c0.3,0.2,1.3,0.3,1.6,0c2.4-2.8,0-14.7,0-14.7s-12.1-2.3-15,0
			c-0.3,0.2-0.2,1.2,0,1.6c1.2,1.6,3.3,2.4,3.3,4.5c0,2.7-2.2,4.8-4.9,4.8c-2.7,0-4.9-2.2-4.9-4.8c0-2.1,2.2-2.9,3.4-4.5
			c0.2-0.3,0.3-1.3,0-1.5c-2.9-2.4-15.1,0-15.1,0s-2.4,11.8,0,14.7c0.3,0.3,1.3,0.2,1.6,0c1.7-1.1,2.5-3.2,4.6-3.2
			c2.7,0,4.9,2.2,4.9,4.8s-2.2,4.8-4.9,4.8c-2.2,0-3-2.1-4.7-3.3c-0.3-0.2-1.3-0.3-1.6,0c-2.4,2.8,0,14.7,0,14.7s12.2-2.4,15.1,0
			c0.3,0.2,0.2,1.2,0,1.5c-1.2,1.6-3.4,2.4-3.4,4.5c0,2.7,2.2,4.8,4.9,4.8c2.7,0,4.9-2.2,4.9-4.8c0-2.1-2.1-2.9-3.3-4.5
			c-0.2-0.3-0.3-1.3,0-1.6c2.9-2.3,15,0,15,0s2.4-11.8,0-14.7c-0.3-0.3-1.3-0.2-1.6,0c-1.7,1.1-2.5,3.2-4.6,3.2
			c-2.7,0-4.9-2.2-4.9-4.8S258,596.4,260.7,596.4z"/>
		<path class="st7" d="M327.4,596.4c2.2,0,3,2.1,4.7,3.3c0.3,0.2,1.3,0.3,1.6,0c2.4-2.8,0-14.7,0-14.7s-12.1-2.3-15,0
			c-0.3,0.2-0.2,1.2,0,1.6c1.2,1.6,3.3,2.4,3.3,4.5c0,2.7-2.2,4.8-4.9,4.8s-4.9-2.2-4.9-4.8c0-2.1,2.2-2.9,3.4-4.5
			c0.2-0.3,0.3-1.3,0-1.5c-2.9-2.4-15.1,0-15.1,0s-2.4,11.8,0,14.7c0.3,0.3,1.3,0.2,1.6,0c1.7-1.1,2.5-3.2,4.6-3.2
			c2.7,0,4.9,2.2,4.9,4.8s-2.2,4.8-4.9,4.8c-2.2,0-3-2.1-4.7-3.3c-0.3-0.2-1.3-0.3-1.6,0c-2.4,2.8,0,14.7,0,14.7s12.2-2.4,15.1,0
			c0.3,0.2,0.2,1.2,0,1.5c-1.2,1.6-3.4,2.4-3.4,4.5c0,2.7,2.2,4.8,4.9,4.8s4.9-2.2,4.9-4.8c0-2.1-2.1-2.9-3.3-4.5
			c-0.2-0.3-0.3-1.3,0-1.6c2.9-2.3,15,0,15,0s2.4-11.8,0-14.7c-0.3-0.3-1.3-0.2-1.6,0c-1.7,1.1-2.5,3.2-4.6,3.2
			c-2.7,0-4.9-2.2-4.9-4.8S324.6,596.4,327.4,596.4z"/>
		<path class="st6" d="M473.1,596.4c-2.2,0-3,2.1-4.6,3.2c-0.3,0.2-1.3,0.3-1.6,0c-2.4-2.8,0-14.7,0-14.7s-12.1-2.3-15,0
			c-0.3,0.2-0.2,1.2,0,1.6c1.2,1.6,3.3,2.4,3.3,4.5c0,2.7-2.2,4.8-4.9,4.8s-4.9-2.2-4.9-4.8c0-2.1,2.2-2.9,3.4-4.5
			c0.2-0.3,0.3-1.3,0-1.5c-2.9-2.4-15.1,0-15.1,0s-2.4,11.8,0,14.7c0.3,0.3,1.3,0.2,1.6,0c1.7-1.1,2.5-3.2,4.6-3.2
			c2.7,0,4.9,2.2,4.9,4.8s-2.2,4.8-4.9,4.8c-2.2,0-3-2.1-4.7-3.3c-0.3-0.2-1.3-0.3-1.6,0c-2.4,2.8,0,14.7,0,14.7s12.1,2.3,15,0
			c0.3-0.2,0.2-1.2,0-1.6c-1.2-1.6-3.3-2.4-3.3-4.5c0-2.7,2.2-4.8,4.9-4.8s4.9,2.2,4.9,4.8c0,2.1-2.2,2.9-3.4,4.5
			c-0.2,0.3-0.3,1.3,0,1.5c2.9,2.4,15.1,0,15.1,0s-2.4-11.9,0-14.7c0.3-0.3,1.3-0.2,1.6,0c1.7,1.2,2.5,3.3,4.7,3.3
			c2.7,0,4.9-2.2,4.9-4.8S475.8,596.4,473.1,596.4z"/>
		<path class="st13" d="M539.7,596.4c-2.2,0-3,2.1-4.6,3.2c-0.3,0.2-1.3,0.3-1.6,0c-2.4-2.8,0-14.7,0-14.7s-12.2,2.4-15.1,0
			c-0.3-0.2-0.2-1.2,0-1.5c1.2-1.6,3.4-2.4,3.4-4.5c0-2.7-2.2-4.8-4.9-4.8s-4.9,2.2-4.9,4.8c0,2.1,2.1,2.9,3.3,4.5
			c0.2,0.3,0.3,1.3,0,1.6c-2.9,2.3-15,0-15,0s2.4,11.9,0,14.7c-0.3,0.3-1.3,0.2-1.6,0c-1.7-1.2-2.5-3.3-4.7-3.3
			c-2.7,0-4.9,2.2-4.9,4.8s2.2,4.8,4.9,4.8c2.1,0,3-2.1,4.6-3.2c0.3-0.2,1.3-0.3,1.6,0c2.4,2.8,0,14.7,0,14.7s12.2-2.4,15.1,0
			c0.3,0.2,0.2,1.2,0,1.5c-1.2,1.6-3.4,2.4-3.4,4.5c0,2.7,2.2,4.8,4.9,4.8s4.9-2.2,4.9-4.8c0-2.1-2.1-2.9-3.3-4.5
			c-0.2-0.3-0.3-1.3,0-1.6c2.9-2.3,15,0,15,0s-2.4-11.9,0-14.7c0.3-0.3,1.3-0.2,1.6,0c1.7,1.2,2.5,3.3,4.7,3.3
			c2.7,0,4.9-2.2,4.9-4.8S542.5,596.4,539.7,596.4z"/>
		<path class="st6" d="M606.4,596.4c-2.2,0-3,2.1-4.6,3.2c-0.3,0.2-1.3,0.3-1.6,0c-2.4-2.8,0-14.7,0-14.7s-12.2,2.4-15.1,0
			c-0.3-0.2-0.2-1.2,0-1.5c1.2-1.6,3.4-2.4,3.4-4.5c0-2.7-2.2-4.8-4.9-4.8s-4.9,2.2-4.9,4.8c0,2.1,2.1,2.9,3.3,4.5
			c0.2,0.3,0.3,1.3,0,1.6c-2.9,2.3-15,0-15,0s2.4,11.9,0,14.7c-0.3,0.3-1.3,0.2-1.6,0c-1.7-1.2-2.5-3.3-4.7-3.3
			c-2.7,0-4.9,2.2-4.9,4.8s2.2,4.8,4.9,4.8c2.1,0,3-2.1,4.6-3.2c0.3-0.2,1.3-0.3,1.6,0c2.4,2.8,0,14.7,0,14.7s12.2-2.4,15.1,0
			c0.3,0.2,0.2,1.2,0,1.5c-1.2,1.6-3.4,2.4-3.4,4.5c0,2.7,2.2,4.8,4.9,4.8s4.9-2.2,4.9-4.8c0-2.1-2.1-2.9-3.3-4.5
			c-0.2-0.3-0.3-1.3,0-1.6c2.9-2.3,15,0,15,0s-2.4-11.9,0-14.7c0.3-0.3,1.3-0.2,1.6,0c1.7,1.2,2.5,3.3,4.7,3.3
			c2.7,0,4.9-2.2,4.9-4.8S609.1,596.4,606.4,596.4z"/>
		<path class="st15" d="M660.6,596.4c2.2,0,3,2.1,4.7,3.3c0.3,0.2,1.3,0.3,1.6,0c2.4-2.8,0-14.7,0-14.7s-12.2,2.4-15.1,0
			c-0.3-0.2-0.2-1.2,0-1.5c1.2-1.6,3.4-2.4,3.4-4.5c0-2.7-2.2-4.8-4.9-4.8c-2.7,0-4.9,2.2-4.9,4.8c0,2.1,2.1,2.9,3.3,4.5
			c0.2,0.3,0.3,1.3,0,1.6c-2.9,2.3-15,0-15,0s2.4,11.9,0,14.7c-0.3,0.3-1.3,0.2-1.6,0c-1.7-1.2-2.5-3.3-4.7-3.3
			c-2.7,0-4.9,2.2-4.9,4.8s2.2,4.8,4.9,4.8c2.1,0,3-2.1,4.6-3.2c0.3-0.2,1.3-0.3,1.6,0c2.4,2.8,0,14.7,0,14.7s12.1,2.3,15,0
			c0.3-0.2,0.2-1.2,0-1.6c-1.2-1.6-3.3-2.4-3.3-4.5c0-2.7,2.2-4.8,4.9-4.8c2.7,0,4.9,2.2,4.9,4.8c0,2.1-2.2,2.9-3.4,4.5
			c-0.2,0.3-0.3,1.3,0,1.5c2.9,2.4,15.1,0,15.1,0s2.4-11.8,0-14.7c-0.3-0.3-1.3-0.2-1.6,0c-1.7,1.1-2.5,3.2-4.6,3.2
			c-2.7,0-4.9-2.2-4.9-4.8S657.8,596.4,660.6,596.4z"/>
		<path class="st13" d="M727.2,596.4c2.2,0,3,2.1,4.7,3.3c0.3,0.2,1.3,0.3,1.6,0c2.4-2.8,0-14.7,0-14.7s-12.2,2.4-15.1,0
			c-0.3-0.2-0.2-1.2,0-1.5c1.2-1.6,3.4-2.4,3.4-4.5c0-2.7-2.2-4.8-4.9-4.8s-4.9,2.2-4.9,4.8c0,2.1,2.1,2.9,3.3,4.5
			c0.2,0.3,0.3,1.3,0,1.6c-2.9,2.3-15,0-15,0s2.4,11.9,0,14.7c-0.3,0.3-1.3,0.2-1.6,0c-1.7-1.2-2.5-3.3-4.7-3.3
			c-2.7,0-4.9,2.2-4.9,4.8s2.2,4.8,4.9,4.8c2.1,0,3-2.1,4.6-3.2c0.3-0.2,1.3-0.3,1.6,0c2.4,2.8,0,14.7,0,14.7s12.1,2.3,15,0
			c0.3-0.2,0.2-1.2,0-1.6c-1.2-1.6-3.3-2.4-3.3-4.5c0-2.7,2.2-4.8,4.9-4.8s4.9,2.2,4.9,4.8c0,2.1-2.2,2.9-3.4,4.5
			c-0.2,0.3-0.3,1.3,0,1.5c2.9,2.4,15.1,0,15.1,0s2.4-11.8,0-14.7c-0.3-0.3-1.3-0.2-1.6,0c-1.7,1.1-2.5,3.2-4.6,3.2
			c-2.7,0-4.9-2.2-4.9-4.8S724.5,596.4,727.2,596.4z"/>
		<path class="st11" d="M793.8,596.4c2.2,0,3,2.1,4.7,3.3c0.3,0.2,1.3,0.3,1.6,0c2.4-2.8,0-14.7,0-14.7s-12.1-2.3-15,0
			c-0.3,0.2-0.2,1.2,0,1.6c1.2,1.6,3.3,2.4,3.3,4.5c0,2.7-2.2,4.8-4.9,4.8s-4.9-2.2-4.9-4.8c0-2.1,2.2-2.9,3.4-4.5
			c0.2-0.3,0.3-1.3,0-1.5c-2.9-2.4-15.1,0-15.1,0s-2.4,11.8,0,14.7c0.3,0.3,1.3,0.2,1.6,0c1.7-1.1,2.5-3.2,4.6-3.2
			c2.7,0,4.9,2.2,4.9,4.8s-2.2,4.8-4.9,4.8c-2.2,0-3-2.1-4.7-3.3c-0.3-0.2-1.3-0.3-1.6,0c-2.4,2.8,0,14.7,0,14.7s12.1,2.3,15,0
			c0.3-0.2,0.2-1.2,0-1.6c-1.2-1.6-3.3-2.4-3.3-4.5c0-2.7,2.2-4.8,4.9-4.8s4.9,2.2,4.9,4.8c0,2.1-2.2,2.9-3.4,4.5
			c-0.2,0.3-0.3,1.3,0,1.5c2.9,2.4,15.1,0,15.1,0s2.4-11.8,0-14.7c-0.3-0.3-1.3-0.2-1.6,0c-1.7,1.1-2.5,3.2-4.6,3.2
			c-2.7,0-4.9-2.2-4.9-4.8S791.1,596.4,793.8,596.4z"/>
		<path class="st9" d="M972.9,596.4c-2.1,0-3,2.1-4.6,3.2c-0.3,0.2-1.3,0.3-1.6,0c-2.4-2.8,0-14.7,0-14.7s-12.1-2.3-15,0
			c-0.3,0.2-0.2,1.2,0,1.6c1.2,1.6,3.3,2.4,3.3,4.5c0,2.7-2.2,4.8-4.9,4.8s-4.9-2.2-4.9-4.8c0-2.1,2.2-2.9,3.4-4.5
			c0.2-0.3,0.3-1.3,0-1.5c-2.9-2.4-15.1,0-15.1,0s2.4,11.9,0,14.7c-0.3,0.3-1.3,0.2-1.6,0c-1.7-1.2-2.5-3.3-4.7-3.3
			c-2.7,0-4.9,2.2-4.9,4.8s2.2,4.8,4.9,4.8c2.2,0,3-2.1,4.6-3.2c0.3-0.2,1.3-0.3,1.6,0c2.4,2.8,0,14.7,0,14.7s12.1,2.3,15,0
			c0.3-0.2,0.2-1.2,0-1.6c-1.2-1.6-3.3-2.4-3.3-4.5c0-2.7,2.2-4.8,4.9-4.8s4.9,2.2,4.9,4.8c0,2.1-2.2,2.9-3.4,4.5
			c-0.2,0.3-0.3,1.3,0,1.5c2.9,2.4,15.1,0,15.1,0s-2.4-11.9,0-14.7c0.3-0.3,1.3-0.2,1.6,0c1.7,1.2,2.5,3.3,4.7,3.3
			c2.7,0,4.9-2.2,4.9-4.8S975.6,596.4,972.9,596.4z"/>
		<path class="st5" d="M984.9,585c-0.3,0.2-0.2,1.2,0,1.6c1.2,1.6,3.3,2.4,3.3,4.5c0,2.7-2.2,4.8-4.9,4.8s-4.9-2.2-4.9-4.8
			c0-2.1,2.2-2.9,3.4-4.5c0.2-0.3,0.3-1.3,0-1.5c-2.9-2.4-15.1,0-15.1,0s-2.4,11.8,0,14.7c0.3,0.3,1.3,0.2,1.6,0
			c1.7-1.1,2.5-3.2,4.6-3.2c2.7,0,4.9,2.2,4.9,4.8s-2.2,4.8-4.9,4.8c-2.2,0-3-2.1-4.7-3.3c-0.3-0.2-1.3-0.3-1.6,0
			c-2.4,2.8,0,14.7,0,14.7s12.1,2.3,15,0c0.3-0.2,0.2-1.2,0-1.6c-1.2-1.6-3.3-2.4-3.3-4.5c0-2.7,2.2-4.8,4.9-4.8s4.9,2.2,4.9,4.8
			c0,2.1-2.2,2.9-3.4,4.5c-0.2,0.3-0.3,1.3,0,1.5c2.9,2.4,15.1,0,15.1,0V585C1000,585,987.8,582.7,984.9,585z"/>
		<path class="st4" d="M984.9,617.5c-0.3-0.2-0.2-1.2,0-1.5c1.2-1.6,3.4-2.4,3.4-4.5c0-2.7-2.2-4.8-4.9-4.8s-4.9,2.2-4.9,4.8
			c0,2.1,2.1,2.9,3.3,4.5c0.2,0.3,0.3,1.3,0,1.6c-2.9,2.3-15,0-15,0s2.4,11.9,0,14.7c-0.3,0.3-1.3,0.2-1.6,0
			c-1.7-1.2-2.5-3.3-4.7-3.3c-2.7,0-4.9,2.2-4.9,4.8s2.2,4.8,4.9,4.8c2.2,0,3-2.1,4.6-3.2c0.3-0.2,1.3-0.3,1.6,0
			c2.4,2.8,0,14.7,0,14.7h33.3v-32.5C1000,617.5,987.8,619.9,984.9,617.5z"/>
		<path class="st5" d="M960.4,628.9c2.2,0,3,2.1,4.7,3.3c0.3,0.2,1.3,0.3,1.6,0c2.4-2.8,0-14.7,0-14.7s-12.2,2.4-15.1,0
			c-0.3-0.2-0.2-1.2,0-1.5c1.2-1.6,3.4-2.4,3.4-4.5c0-2.7-2.2-4.8-4.9-4.8s-4.9,2.2-4.9,4.8c0,2.1,2.1,2.9,3.3,4.5
			c0.2,0.3,0.3,1.3,0,1.6c-2.9,2.3-15,0-15,0s-2.4,11.8,0,14.7c0.3,0.3,1.3,0.2,1.6,0c1.7-1.1,2.5-3.2,4.6-3.2
			c2.7,0,4.9,2.2,4.9,4.8s-2.2,4.8-4.9,4.8c-2.2,0-3-2.1-4.7-3.3c-0.3-0.2-1.3-0.3-1.6,0c-2.4,2.8,0,14.7,0,14.7h33.3
			c0,0,2.4-11.8,0-14.7c-0.3-0.3-1.3-0.2-1.6,0c-1.7,1.1-2.5,3.2-4.6,3.2c-2.7,0-4.9-2.2-4.9-4.8S957.7,628.9,960.4,628.9z"/>
		<path class="st5" d="M939.6,628.9c-2.1,0-3,2.1-4.6,3.2c-0.3,0.2-1.3,0.3-1.6,0c-2.4-2.8,0-14.7,0-14.7s-12.2,2.4-15.1,0
			c-0.3-0.2-0.2-1.2,0-1.5c1.2-1.6,3.4-2.4,3.4-4.5c0-2.7-2.2-4.8-4.9-4.8c-2.7,0-4.9,2.2-4.9,4.8c0,2.1,2.1,2.9,3.3,4.5
			c0.2,0.3,0.3,1.3,0,1.6c-2.9,2.3-15,0-15,0s2.4,11.9,0,14.7c-0.3,0.3-1.3,0.2-1.6,0c-1.7-1.2-2.5-3.3-4.7-3.3
			c-2.7,0-4.9,2.2-4.9,4.8s2.2,4.8,4.9,4.8c2.2,0,3-2.1,4.6-3.2c0.3-0.2,1.3-0.3,1.6,0c2.4,2.8,0,14.7,0,14.7h33.3
			c0,0-2.4-11.9,0-14.7c0.3-0.3,1.3-0.2,1.6,0c1.7,1.2,2.5,3.3,4.7,3.3c2.7,0,4.9-2.2,4.9-4.8S942.3,628.9,939.6,628.9z"/>
		<path class="st5" d="M893.8,628.9c2.2,0,3,2.1,4.7,3.3c0.3,0.2,1.3,0.3,1.6,0c2.4-2.8,0-14.7,0-14.7s-12.1-2.3-15,0
			c-0.3,0.2-0.2,1.2,0,1.6c1.2,1.6,3.3,2.4,3.3,4.5c0,2.7-2.2,4.8-4.9,4.8s-4.9-2.2-4.9-4.8c0-2.1,2.2-2.9,3.4-4.5
			c0.2-0.3,0.3-1.3,0-1.5c-2.9-2.4-15.1,0-15.1,0s-2.4,11.8,0,14.7c0.3,0.3,1.3,0.2,1.6,0c1.7-1.1,2.5-3.2,4.6-3.2
			c2.7,0,4.9,2.2,4.9,4.8s-2.2,4.8-4.9,4.8c-2.2,0-3-2.1-4.7-3.3c-0.3-0.2-1.3-0.3-1.6,0c-2.4,2.8,0,14.7,0,14.7H900
			c0,0,2.4-11.8,0-14.7c-0.3-0.3-1.3-0.2-1.6,0c-1.7,1.1-2.5,3.2-4.6,3.2c-2.7,0-4.9-2.2-4.9-4.8S891.1,628.9,893.8,628.9z"/>
		<path class="st14" d="M872.9,628.9c-2.2,0-3,2.1-4.6,3.2c-0.3,0.2-1.3,0.3-1.6,0c-2.4-2.8,0-14.7,0-14.7s-12.2,2.4-15.1,0
			c-0.3-0.2-0.2-1.2,0-1.5c1.2-1.6,3.4-2.4,3.4-4.5c0-2.7-2.2-4.8-4.9-4.8s-4.9,2.2-4.9,4.8c0,2.1,2.1,2.9,3.3,4.5
			c0.2,0.3,0.3,1.3,0,1.6c-2.9,2.3-15,0-15,0s2.4,11.9,0,14.7c-0.3,0.3-1.3,0.2-1.6,0c-1.7-1.2-2.5-3.3-4.7-3.3
			c-2.7,0-4.9,2.2-4.9,4.8s2.2,4.8,4.9,4.8c2.1,0,3-2.1,4.6-3.2c0.3-0.2,1.3-0.3,1.6,0c2.4,2.8,0,14.7,0,14.7h33.3
			c0,0-2.4-11.9,0-14.7c0.3-0.3,1.3-0.2,1.6,0c1.7,1.2,2.5,3.3,4.7,3.3c2.7,0,4.9-2.2,4.9-4.8S875.7,628.9,872.9,628.9z"/>
		<path class="st11" d="M827.1,628.9c2.2,0,3,2.1,4.7,3.3c0.3,0.2,1.3,0.3,1.6,0c2.4-2.8,0-14.7,0-14.7s-12.2,2.4-15.1,0
			c-0.3-0.2-0.2-1.2,0-1.5c1.2-1.6,3.4-2.4,3.4-4.5c0-2.7-2.2-4.8-4.9-4.8c-2.7,0-4.9,2.2-4.9,4.8c0,2.1,2.1,2.9,3.3,4.5
			c0.2,0.3,0.3,1.3,0,1.6c-2.9,2.3-15,0-15,0s-2.4,11.8,0,14.7c0.3,0.3,1.3,0.2,1.6,0c1.7-1.1,2.5-3.2,4.6-3.2
			c2.7,0,4.9,2.2,4.9,4.8s-2.2,4.8-4.9,4.8c-2.2,0-3-2.1-4.7-3.3c-0.3-0.2-1.3-0.3-1.6,0c-2.4,2.8,0,14.7,0,14.7h33.3
			c0,0,2.4-11.8,0-14.7c-0.3-0.3-1.3-0.2-1.6,0c-1.7,1.1-2.5,3.2-4.6,3.2c-2.7,0-4.9-2.2-4.9-4.8S824.4,628.9,827.1,628.9z"/>
		<path class="st5" d="M806.3,628.9c-2.2,0-3,2.1-4.6,3.2c-0.3,0.2-1.3,0.3-1.6,0c-2.4-2.8,0-14.7,0-14.7s-12.2,2.4-15.1,0
			c-0.3-0.2-0.2-1.2,0-1.5c1.2-1.6,3.4-2.4,3.4-4.5c0-2.7-2.2-4.8-4.9-4.8s-4.9,2.2-4.9,4.8c0,2.1,2.1,2.9,3.3,4.5
			c0.2,0.3,0.3,1.3,0,1.6c-2.9,2.3-15,0-15,0s-2.4,11.8,0,14.7c0.3,0.3,1.3,0.2,1.6,0c1.7-1.1,2.5-3.2,4.6-3.2
			c2.7,0,4.9,2.2,4.9,4.8s-2.2,4.8-4.9,4.8c-2.2,0-3-2.1-4.7-3.3c-0.3-0.2-1.3-0.3-1.6,0c-2.4,2.8,0,14.7,0,14.7h33.3
			c0,0-2.4-11.9,0-14.7c0.3-0.3,1.3-0.2,1.6,0c1.7,1.2,2.5,3.3,4.7,3.3c2.7,0,4.9-2.2,4.9-4.8S809,628.9,806.3,628.9z"/>
		<path class="st2" d="M773,628.9c-2.2,0-3,2.1-4.6,3.2c-0.3,0.2-1.3,0.3-1.6,0c-2.4-2.8,0-14.7,0-14.7s-12.2,2.4-15.1,0
			c-0.3-0.2-0.2-1.2,0-1.5c1.2-1.6,3.4-2.4,3.4-4.5c0-2.7-2.2-4.8-4.9-4.8c-2.7,0-4.9,2.2-4.9,4.8c0,2.1,2.1,2.9,3.3,4.5
			c0.2,0.3,0.3,1.3,0,1.6c-2.9,2.3-15,0-15,0s-2.4,11.8,0,14.7c0.3,0.3,1.3,0.2,1.6,0c1.7-1.1,2.5-3.2,4.6-3.2
			c2.7,0,4.9,2.2,4.9,4.8s-2.2,4.8-4.9,4.8c-2.2,0-3-2.1-4.7-3.3c-0.3-0.2-1.3-0.3-1.6,0c-2.4,2.8,0,14.7,0,14.7h33.3
			c0,0-2.4-11.9,0-14.7c0.3-0.3,1.3-0.2,1.6,0c1.7,1.2,2.5,3.3,4.7,3.3c2.7,0,4.9-2.2,4.9-4.8S775.7,628.9,773,628.9z"/>
		<path class="st4" d="M739.7,628.9c-2.2,0-3,2.1-4.6,3.2c-0.3,0.2-1.3,0.3-1.6,0c-2.4-2.8,0-14.7,0-14.7s-12.2,2.4-15.1,0
			c-0.3-0.2-0.2-1.2,0-1.5c1.2-1.6,3.4-2.4,3.4-4.5c0-2.7-2.2-4.8-4.9-4.8s-4.9,2.2-4.9,4.8c0,2.1,2.1,2.9,3.3,4.5
			c0.2,0.3,0.3,1.3,0,1.6c-2.9,2.3-15,0-15,0s2.4,11.9,0,14.7c-0.3,0.3-1.3,0.2-1.6,0c-1.7-1.2-2.5-3.3-4.7-3.3
			c-2.7,0-4.9,2.2-4.9,4.8s2.2,4.8,4.9,4.8c2.1,0,3-2.1,4.6-3.2c0.3-0.2,1.3-0.3,1.6,0c2.4,2.8,0,14.7,0,14.7h33.3
			c0,0-2.4-11.9,0-14.7c0.3-0.3,1.3-0.2,1.6,0c1.7,1.2,2.5,3.3,4.7,3.3c2.7,0,4.9-2.2,4.9-4.8S742.4,628.9,739.7,628.9z"/>
		<path class="st5" d="M693.9,628.9c2.2,0,3,2.1,4.7,3.3c0.3,0.2,1.3,0.3,1.6,0c2.4-2.8,0-14.7,0-14.7s-12.1-2.3-15,0
			c-0.3,0.2-0.2,1.2,0,1.6c1.2,1.6,3.3,2.4,3.3,4.5c0,2.7-2.2,4.8-4.9,4.8s-4.9-2.2-4.9-4.8c0-2.1,2.2-2.9,3.4-4.5
			c0.2-0.3,0.3-1.3,0-1.5c-2.9-2.4-15.1,0-15.1,0s-2.4,11.8,0,14.7c0.3,0.3,1.3,0.2,1.6,0c1.7-1.1,2.5-3.2,4.6-3.2
			c2.7,0,4.9,2.2,4.9,4.8s-2.2,4.8-4.9,4.8c-2.2,0-3-2.1-4.7-3.3c-0.3-0.2-1.3-0.3-1.6,0c-2.4,2.8,0,14.7,0,14.7h33.3
			c0,0,2.4-11.8,0-14.7c-0.3-0.3-1.3-0.2-1.6,0c-1.7,1.1-2.5,3.2-4.6,3.2c-2.7,0-4.9-2.2-4.9-4.8S691.1,628.9,693.9,628.9z"/>
		<path class="st11" d="M673,628.9c-2.2,0-3,2.1-4.6,3.2c-0.3,0.2-1.3,0.3-1.6,0c-2.4-2.8,0-14.7,0-14.7s-12.2,2.4-15.1,0
			c-0.3-0.2-0.2-1.2,0-1.5c1.2-1.6,3.4-2.4,3.4-4.5c0-2.7-2.2-4.8-4.9-4.8c-2.7,0-4.9,2.2-4.9,4.8c0,2.1,2.1,2.9,3.3,4.5
			c0.2,0.3,0.3,1.3,0,1.6c-2.9,2.3-15,0-15,0s2.4,11.9,0,14.7c-0.3,0.3-1.3,0.2-1.6,0c-1.7-1.2-2.5-3.3-4.7-3.3
			c-2.7,0-4.9,2.2-4.9,4.8s2.2,4.8,4.9,4.8c2.1,0,3-2.1,4.6-3.2c0.3-0.2,1.3-0.3,1.6,0c2.4,2.8,0,14.7,0,14.7h33.3
			c0,0-2.4-11.9,0-14.7c0.3-0.3,1.3-0.2,1.6,0c1.7,1.2,2.5,3.3,4.7,3.3c2.7,0,4.9-2.2,4.9-4.8S675.7,628.9,673,628.9z"/>
		<path class="st11" d="M627.2,628.9c2.2,0,3,2.1,4.7,3.3c0.3,0.2,1.3,0.3,1.6,0c2.4-2.8,0-14.7,0-14.7s-12.1-2.3-15,0
			c-0.3,0.2-0.2,1.2,0,1.6c1.2,1.6,3.3,2.4,3.3,4.5c0,2.7-2.2,4.8-4.9,4.8s-4.9-2.2-4.9-4.8c0-2.1,2.2-2.9,3.4-4.5
			c0.2-0.3,0.3-1.3,0-1.5c-2.9-2.4-15.1,0-15.1,0s-2.4,11.8,0,14.7c0.3,0.3,1.3,0.2,1.6,0c1.7-1.1,2.5-3.2,4.6-3.2
			c2.7,0,4.9,2.2,4.9,4.8s-2.2,4.8-4.9,4.8c-2.2,0-3-2.1-4.7-3.3c-0.3-0.2-1.3-0.3-1.6,0c-2.4,2.8,0,14.7,0,14.7h33.3
			c0,0,2.4-11.8,0-14.7c-0.3-0.3-1.3-0.2-1.6,0c-1.7,1.1-2.5,3.2-4.6,3.2c-2.7,0-4.9-2.2-4.9-4.8S624.5,628.9,627.2,628.9z"/>
		<path class="st6" d="M606.4,628.9c-2.2,0-3,2.1-4.6,3.2c-0.3,0.2-1.3,0.3-1.6,0c-2.4-2.8,0-14.7,0-14.7s-12.1-2.3-15,0
			c-0.3,0.2-0.2,1.2,0,1.6c1.2,1.6,3.3,2.4,3.3,4.5c0,2.7-2.2,4.8-4.9,4.8s-4.9-2.2-4.9-4.8c0-2.1,2.2-2.9,3.4-4.5
			c0.2-0.3,0.3-1.3,0-1.5c-2.9-2.4-15.1,0-15.1,0s-2.4,11.8,0,14.7c0.3,0.3,1.3,0.2,1.6,0c1.7-1.1,2.5-3.2,4.6-3.2
			c2.7,0,4.9,2.2,4.9,4.8s-2.2,4.8-4.9,4.8c-2.2,0-3-2.1-4.7-3.3c-0.3-0.2-1.3-0.3-1.6,0c-2.4,2.8,0,14.7,0,14.7h33.3
			c0,0-2.4-11.9,0-14.7c0.3-0.3,1.3-0.2,1.6,0c1.7,1.2,2.5,3.3,4.7,3.3c2.7,0,4.9-2.2,4.9-4.8S609.1,628.9,606.4,628.9z"/>
		<path class="st5" d="M573.1,628.9c-2.2,0-3,2.1-4.6,3.2c-0.3,0.2-1.3,0.3-1.6,0c-2.4-2.8,0-14.7,0-14.7s-12.2,2.4-15.1,0
			c-0.3-0.2-0.2-1.2,0-1.5c1.2-1.6,3.4-2.4,3.4-4.5c0-2.7-2.2-4.8-4.9-4.8c-2.7,0-4.9,2.2-4.9,4.8c0,2.1,2.1,2.9,3.3,4.5
			c0.2,0.3,0.3,1.3,0,1.6c-2.9,2.3-15,0-15,0s2.4,11.9,0,14.7c-0.3,0.3-1.3,0.2-1.6,0c-1.7-1.2-2.5-3.3-4.7-3.3
			c-2.7,0-4.9,2.2-4.9,4.8s2.2,4.8,4.9,4.8c2.1,0,3-2.1,4.6-3.2c0.3-0.2,1.3-0.3,1.6,0c2.4,2.8,0,14.7,0,14.7h33.3
			c0,0-2.4-11.9,0-14.7c0.3-0.3,1.3-0.2,1.6,0c1.7,1.2,2.5,3.3,4.7,3.3c2.7,0,4.9-2.2,4.9-4.8S575.8,628.9,573.1,628.9z"/>
		<path class="st2" d="M527.3,628.9c2.2,0,3,2.1,4.7,3.3c0.3,0.2,1.3,0.3,1.6,0c2.4-2.8,0-14.7,0-14.7s-12.1-2.3-15,0
			c-0.3,0.2-0.2,1.2,0,1.6c1.2,1.6,3.3,2.4,3.3,4.5c0,2.7-2.2,4.8-4.9,4.8s-4.9-2.2-4.9-4.8c0-2.1,2.2-2.9,3.4-4.5
			c0.2-0.3,0.3-1.3,0-1.5c-2.9-2.4-15.1,0-15.1,0s2.4,11.9,0,14.7c-0.3,0.3-1.3,0.2-1.6,0c-1.7-1.2-2.5-3.3-4.7-3.3
			c-2.7,0-4.9,2.2-4.9,4.8s2.2,4.8,4.9,4.8c2.1,0,3-2.1,4.6-3.2c0.3-0.2,1.3-0.3,1.6,0c2.4,2.8,0,14.7,0,14.7h33.3
			c0,0,2.4-11.8,0-14.7c-0.3-0.3-1.3-0.2-1.6,0c-1.7,1.1-2.5,3.2-4.6,3.2c-2.7,0-4.9-2.2-4.9-4.8S524.6,628.9,527.3,628.9z"/>
		<path class="st6" d="M494,628.9c2.2,0,3,2.1,4.7,3.3c0.3,0.2,1.3,0.3,1.6,0c2.4-2.8,0-14.7,0-14.7s-12.2,2.4-15.1,0
			c-0.3-0.2-0.2-1.2,0-1.5c1.2-1.6,3.4-2.4,3.4-4.5c0-2.7-2.2-4.8-4.9-4.8s-4.9,2.2-4.9,4.8c0,2.1,2.1,2.9,3.3,4.5
			c0.2,0.3,0.3,1.3,0,1.6c-2.9,2.3-15,0-15,0s-2.4,11.8,0,14.7c0.3,0.3,1.3,0.2,1.6,0c1.7-1.1,2.5-3.2,4.6-3.2
			c2.7,0,4.9,2.2,4.9,4.8s-2.2,4.8-4.9,4.8c-2.2,0-3-2.1-4.7-3.3c-0.3-0.2-1.3-0.3-1.6,0c-2.4,2.8,0,14.7,0,14.7h33.3
			c0,0,2.4-11.8,0-14.7c-0.3-0.3-1.3-0.2-1.6,0c-1.7,1.1-2.5,3.2-4.6,3.2c-2.7,0-4.9-2.2-4.9-4.8S491.2,628.9,494,628.9z"/>
		<path class="st10" d="M473,628.9c-2.1,0-3,2.1-4.6,3.2c-0.3,0.2-1.3,0.3-1.6,0c-2.4-2.8,0-14.7,0-14.7s-12.1,2.3-15,0
			c-0.3-0.2-0.2-1.2,0-1.5c1.2-1.6,3.4-2.4,3.4-4.5c0-2.7-2.2-4.8-4.9-4.8s-4.9,2.2-4.9,4.8c0,2.1,2.1,2.9,3.3,4.5
			c0.2,0.3,0.3,1.3,0,1.6c-2.9,2.4-15.1,0-15.1,0s2.4,11.9,0,14.7c-0.3,0.3-1.3,0.2-1.6,0c-1.7-1.2-2.5-3.3-4.7-3.3
			c-2.7,0-4.9,2.2-4.9,4.8s2.2,4.8,4.9,4.8c2.2,0,3-2.1,4.6-3.2c0.3-0.2,1.3-0.3,1.6,0c2.4,2.8,0,14.7,0,14.7h33.3
			c0,0-2.4-11.9,0-14.7c0.3-0.3,1.3-0.2,1.6,0c1.7,1.2,2.5,3.3,4.7,3.3c2.7,0,4.9-2.2,4.9-4.8S475.8,628.9,473,628.9z"/>
		<path class="st11" d="M433.6,632.2c2.1-3.1,0-14.7,0-14.7s-12.2,2.4-15.1,0c-0.3-0.2-0.2-1.2,0-1.5c1.2-1.6,3.4-2.4,3.4-4.5
			c0-2.7-2.2-4.8-4.9-4.8s-4.9,2.2-4.9,4.8c0,2.1,2.1,2.9,3.3,4.5c0.2,0.3,0.3,1.3,0,1.6c-2.9,2.3-15,0-15,0s-2.4,11.8,0,14.7
			c0.3,0.3,1.3,0.2,1.6,0c1.7-1.1,2.5-3.2,4.6-3.2c2.7,0,4.9,2.2,4.9,4.8s-2.2,4.8-4.9,4.8c-2.2,0-3-2.1-4.7-3.3
			c-0.3-0.2-1.3-0.3-1.6,0c-2.4,2.8,0,14.7,0,14.7h33.3c0,0,2.4-11.9,0-14.7c0,0-0.1,0-0.1,0v0c0,0-0.6-0.1-1.1-0.1
			c-0.2,0-0.3,0-0.4,0.1c-1.7,1.1-2.5,3.2-4.6,3.2c0,0,0,0,0,0c0,0,0,0,0,0c-2.7,0-4.9-2.2-4.9-4.8s2.2-4.8,4.9-4.8c0,0,0,0,0,0
			c0,0,0,0,0,0c2.2,0,3,2.1,4.7,3.3c0.1,0.1,0.2,0.1,0.4,0.1C432.8,632.3,433.5,632.2,433.6,632.2L433.6,632.2
			C433.5,632.2,433.5,632.2,433.6,632.2z"/>
		<path class="st7" d="M406.5,628.9c-2.2,0-3,2.1-4.6,3.2c-0.3,0.2-1.3,0.3-1.6,0c-2.4-2.8,0-14.7,0-14.7s-12.1-2.3-15,0
			c-0.3,0.2-0.2,1.2,0,1.6c1.2,1.6,3.3,2.4,3.3,4.5c0,2.7-2.2,4.8-4.9,4.8c-2.7,0-4.9-2.2-4.9-4.8c0-2.1,2.2-2.9,3.4-4.5
			c0.2-0.3,0.3-1.3,0-1.5c-2.9-2.4-15.1,0-15.1,0s-2.4,11.8,0,14.7c0.3,0.3,1.3,0.2,1.6,0c1.7-1.1,2.5-3.2,4.6-3.2
			c2.7,0,4.9,2.2,4.9,4.8s-2.2,4.8-4.9,4.8c-2.2,0-3-2.1-4.7-3.3c-0.3-0.2-1.3-0.3-1.6,0c-2.4,2.8,0,14.7,0,14.7h33.3
			c0,0-2.4-11.9,0-14.7c0.3-0.3,1.3-0.2,1.6,0c1.7,1.2,2.5,3.3,4.7,3.3c2.7,0,4.9-2.2,4.9-4.8S409.2,628.9,406.5,628.9z"/>
		<path class="st2" d="M373.1,628.9c-2.2,0-3,2.1-4.6,3.2c-0.3,0.2-1.3,0.3-1.6,0c-2.4-2.8,0-14.7,0-14.7s-12.2,2.4-15.1,0
			c-0.3-0.2-0.2-1.2,0-1.5c1.2-1.6,3.4-2.4,3.4-4.5c0-2.7-2.2-4.8-4.9-4.8s-4.9,2.2-4.9,4.8c0,2.1,2.1,2.9,3.3,4.5
			c0.2,0.3,0.3,1.3,0,1.6c-2.9,2.3-15,0-15,0s2.4,11.9,0,14.7c-0.3,0.3-1.3,0.2-1.6,0c-1.7-1.2-2.5-3.3-4.7-3.3
			c-2.7,0-4.9,2.2-4.9,4.8s2.2,4.8,4.9,4.8c2.1,0,3-2.1,4.6-3.2c0.3-0.2,1.3-0.3,1.6,0c2.4,2.8,0,14.7,0,14.7h33.3
			c0,0-2.4-11.9,0-14.7c0.3-0.3,1.3-0.2,1.6,0c1.7,1.2,2.5,3.3,4.7,3.3c2.7,0,4.9-2.2,4.9-4.8S375.9,628.9,373.1,628.9z"/>
		<path class="st4" d="M327.4,628.9c2.2,0,3,2.1,4.7,3.3c0.3,0.2,1.3,0.3,1.6,0c2.4-2.8,0-14.7,0-14.7s-12.1-2.3-15,0
			c-0.3,0.2-0.2,1.2,0,1.6c1.2,1.6,3.3,2.4,3.3,4.5c0,2.7-2.2,4.8-4.9,4.8s-4.9-2.2-4.9-4.8c0-2.1,2.2-2.9,3.4-4.5
			c0.2-0.3,0.3-1.3,0-1.5c-2.9-2.4-15.1,0-15.1,0s-2.4,11.8,0,14.7c0.3,0.3,1.3,0.2,1.6,0c1.7-1.1,2.5-3.2,4.6-3.2
			c2.7,0,4.9,2.2,4.9,4.8s-2.2,4.8-4.9,4.8c-2.2,0-3-2.1-4.7-3.3c-0.3-0.2-1.3-0.3-1.6,0c-2.4,2.8,0,14.7,0,14.7h33.3
			c0,0,2.4-11.8,0-14.7c-0.3-0.3-1.3-0.2-1.6,0c-1.7,1.1-2.5,3.2-4.6,3.2c-2.7,0-4.9-2.2-4.9-4.8S324.6,628.9,327.4,628.9z"/>
		<path class="st3" d="M306.5,628.9c-2.2,0-3,2.1-4.6,3.2c-0.3,0.2-1.3,0.3-1.6,0c-2.4-2.8,0-14.7,0-14.7s-12.1-2.3-15,0
			c-0.3,0.2-0.2,1.2,0,1.6c1.2,1.6,3.3,2.4,3.3,4.5c0,2.7-2.2,4.8-4.9,4.8s-4.9-2.2-4.9-4.8c0-2.1,2.2-2.9,3.4-4.5
			c0.2-0.3,0.3-1.3,0-1.5c-2.9-2.4-15.1,0-15.1,0s-2.4,11.8,0,14.7c0.3,0.3,1.3,0.2,1.6,0c1.7-1.1,2.5-3.2,4.6-3.2
			c2.7,0,4.9,2.2,4.9,4.8s-2.2,4.8-4.9,4.8c-2.2,0-3-2.1-4.7-3.3c-0.3-0.2-1.3-0.3-1.6,0c-2.4,2.8,0,14.7,0,14.7h33.3
			c0,0-2.4-11.9,0-14.7c0.3-0.3,1.3-0.2,1.6,0c1.7,1.2,2.5,3.3,4.7,3.3c2.7,0,4.9-2.2,4.9-4.8S309.2,628.9,306.5,628.9z"/>
		<path class="st9" d="M273.2,628.9c-2.2,0-3,2.1-4.6,3.2c-0.3,0.2-1.3,0.3-1.6,0c-2.4-2.8,0-14.7,0-14.7s-12.1-2.3-15,0
			c-0.3,0.2-0.2,1.2,0,1.6c1.2,1.6,3.3,2.4,3.3,4.5c0,2.7-2.2,4.8-4.9,4.8c-2.7,0-4.9-2.2-4.9-4.8c0-2.1,2.2-2.9,3.4-4.5
			c0.2-0.3,0.3-1.3,0-1.5c-2.9-2.4-15.1,0-15.1,0s2.4,11.9,0,14.7c-0.3,0.3-1.3,0.2-1.6,0c-1.7-1.2-2.5-3.3-4.7-3.3
			c-2.7,0-4.9,2.2-4.9,4.8s2.2,4.8,4.9,4.8c2.1,0,3-2.1,4.6-3.2c0.3-0.2,1.3-0.3,1.6,0c2.4,2.8,0,14.7,0,14.7H267
			c0,0-2.4-11.9,0-14.7c0.3-0.3,1.3-0.2,1.6,0c1.7,1.2,2.5,3.3,4.7,3.3c2.7,0,4.9-2.2,4.9-4.8S275.9,628.9,273.2,628.9z"/>
		<path class="st2" d="M227.4,628.9c2.2,0,3,2.1,4.7,3.3c0.3,0.2,1.3,0.3,1.6,0c2.4-2.8,0-14.7,0-14.7s-12.2,2.4-15.1,0
			c-0.3-0.2-0.2-1.2,0-1.5c1.2-1.6,3.4-2.4,3.4-4.5c0-2.7-2.2-4.8-4.9-4.8c-2.7,0-4.9,2.2-4.9,4.8c0,2.1,2.1,2.9,3.3,4.5
			c0.2,0.3,0.3,1.3,0,1.6c-2.9,2.3-15,0-15,0s-2.4,11.8,0,14.7c0.3,0.3,1.3,0.2,1.6,0c1.7-1.1,2.5-3.2,4.6-3.2
			c2.7,0,4.9,2.2,4.9,4.8s-2.2,4.8-4.9,4.8c-2.2,0-3-2.1-4.7-3.3c-0.3-0.2-1.3-0.3-1.6,0c-2.4,2.8,0,14.7,0,14.7h33.3
			c0,0,2.4-11.8,0-14.7c-0.3-0.3-1.3-0.2-1.6,0c-1.7,1.1-2.5,3.2-4.6,3.2c-2.7,0-4.9-2.2-4.9-4.8S224.7,628.9,227.4,628.9z"/>
		<path class="st9" d="M206.6,628.9c-2.2,0-3,2.1-4.6,3.2c-0.3,0.2-1.3,0.3-1.6,0c-2.4-2.8,0-14.7,0-14.7s-12.2,2.4-15.1,0
			c-0.3-0.2-0.2-1.2,0-1.5c1.2-1.6,3.4-2.4,3.4-4.5c0-2.7-2.2-4.8-4.9-4.8c-2.7,0-4.9,2.2-4.9,4.8c0,2.1,2.1,2.9,3.3,4.5
			c0.2,0.3,0.3,1.3,0,1.6c-2.9,2.3-15,0-15,0s2.4,11.9,0,14.7c-0.3,0.3-1.3,0.2-1.6,0c-1.7-1.2-2.5-3.3-4.7-3.3
			c-2.7,0-4.9,2.2-4.9,4.8s2.2,4.8,4.9,4.8c2.1,0,3-2.1,4.6-3.2c0.3-0.2,1.3-0.3,1.6,0c2.4,2.8,0,14.7,0,14.7h33.3
			c0,0-2.4-11.9,0-14.7c0.3-0.3,1.3-0.2,1.6,0c1.7,1.2,2.5,3.3,4.7,3.3c2.7,0,4.9-2.2,4.9-4.8S209.3,628.9,206.6,628.9z"/>
		<path class="st2" d="M165.4,635.3c-1.7,1.1-2.5,3.2-4.6,3.2c-2.7,0-4.9-2.2-4.9-4.8s2.2-4.8,4.9-4.8c2.2,0,3,2.1,4.7,3.3
			c0.3,0.2,1.3,0.3,1.6,0c2.4-2.8,0-14.7,0-14.7s-12.2,2.4-15.1,0c-0.3-0.2-0.2-1.2,0-1.5c1.2-1.6,3.4-2.4,3.4-4.5
			c0-2.7-2.2-4.8-4.9-4.8s-4.9,2.2-4.9,4.8c0,2.1,2.1,2.9,3.3,4.5c0.2,0.3,0.3,1.3,0,1.6c-2.9,2.3-15,0-15,0s-2.4,11.8,0,14.7
			c0.3,0.3,1.3,0.2,1.6,0c1.7-1.1,2.5-3.2,4.6-3.2c2.7,0,4.9,2.2,4.9,4.8s-2.2,4.8-4.9,4.8c-2.2,0-3-2.1-4.7-3.3
			c-0.3-0.2-1.3-0.3-1.6,0c-2.4,2.8,0,14.7,0,14.7H167c0,0,2.4-11.8,0-14.7C166.7,635,165.7,635.1,165.4,635.3z"/>
		<path class="st7" d="M139.9,628.9c-2.2,0-3,2.1-4.6,3.2c-0.3,0.2-1.3,0.3-1.6,0c-2.4-2.8,0-14.7,0-14.7s-12.1-2.3-15,0
			c-0.3,0.2-0.2,1.2,0,1.6c1.2,1.6,3.3,2.4,3.3,4.5c0,2.7-2.2,4.8-4.9,4.8s-4.9-2.2-4.9-4.8c0-2.1,2.2-2.9,3.4-4.5
			c0.2-0.3,0.3-1.3,0-1.5c-2.9-2.4-15.1,0-15.1,0s-2.4,11.8,0,14.7c0.3,0.3,1.3,0.2,1.6,0c1.7-1.1,2.5-3.2,4.6-3.2
			c2.7,0,4.9,2.2,4.9,4.8s-2.2,4.8-4.9,4.8c-2.2,0-3-2.1-4.7-3.3c-0.3-0.2-1.3-0.3-1.6,0c-2.4,2.8,0,14.7,0,14.7h33.3
			c0,0-2.4-11.9,0-14.7c0.3-0.3,1.3-0.2,1.6,0c1.7,1.2,2.5,3.3,4.7,3.3c2.7,0,4.9-2.2,4.9-4.8S142.6,628.9,139.9,628.9z"/>
		<path class="st5" d="M106.6,628.9c-2.2,0-3,2.1-4.6,3.2c-0.3,0.2-1.3,0.3-1.6,0c-2.4-2.8,0-14.7,0-14.7s-12.1-2.3-15,0
			c-0.3,0.2-0.2,1.2,0,1.6c1.2,1.6,3.3,2.4,3.3,4.5c0,2.7-2.2,4.8-4.9,4.8c-2.7,0-4.9-2.2-4.9-4.8c0-2.1,2.2-2.9,3.4-4.5
			c0.2-0.3,0.3-1.3,0-1.5c-2.9-2.4-15.1,0-15.1,0s2.4,11.9,0,14.7c-0.3,0.3-1.3,0.2-1.6,0c-1.7-1.2-2.5-3.3-4.7-3.3
			c-2.7,0-4.9,2.2-4.9,4.8s2.2,4.8,4.9,4.8c2.1,0,3-2.1,4.6-3.2c0.3-0.2,1.3-0.3,1.6,0c2.4,2.8,0,14.7,0,14.7h33.3
			c0,0-2.4-11.9,0-14.7c0.3-0.3,1.3-0.2,1.6,0c1.7,1.2,2.5,3.3,4.7,3.3c2.7,0,4.9-2.2,4.9-4.8S109.3,628.9,106.6,628.9z"/>
		<path class="st11" d="M60.8,628.9c2.2,0,3,2.1,4.7,3.3c0.3,0.2,1.3,0.3,1.6,0c2.4-2.8,0-14.7,0-14.7s-12.2,2.4-15.1,0
			c-0.3-0.2-0.2-1.2,0-1.5c1.2-1.6,3.4-2.4,3.4-4.5c0-2.7-2.2-4.8-4.9-4.8c-2.7,0-4.9,2.2-4.9,4.8c0,2.1,2.1,2.9,3.3,4.5
			c0.2,0.3,0.3,1.3,0,1.6c-2.9,2.3-15,0-15,0s-2.4,11.8,0,14.7c0.3,0.3,1.3,0.2,1.6,0c1.7-1.1,2.5-3.2,4.6-3.2
			c2.7,0,4.9,2.2,4.9,4.8s-2.2,4.8-4.9,4.8c-2.2,0-3-2.1-4.7-3.3c-0.3-0.2-1.3-0.3-1.6,0c-2.4,2.8,0,14.7,0,14.7H67
			c0,0,2.4-11.8,0-14.7c-0.3-0.3-1.3-0.2-1.6,0c-1.7,1.1-2.5,3.2-4.6,3.2c-2.7,0-4.9-2.2-4.9-4.8S58.1,628.9,60.8,628.9z"/>
		<path class="st2" d="M40,628.9c-2.2,0-3,2.1-4.6,3.2c-0.3,0.2-1.3,0.3-1.6,0c-2.4-2.8,0-14.7,0-14.7s-12.1-2.3-15,0
			c-0.3,0.2-0.2,1.2,0,1.6c1.2,1.6,3.3,2.4,3.3,4.5c0,2.7-2.2,4.8-4.9,4.8s-4.9-2.2-4.9-4.8c0-2.1,2.2-2.9,3.4-4.5
			c0.2-0.3,0.3-1.3,0-1.5c-2.9-2.4-15.1,0-15.1,0V650h33.3c0,0-2.4-11.9,0-14.7c0.3-0.3,1.3-0.2,1.6,0c1.7,1.2,2.5,3.3,4.7,3.3
			c2.7,0,4.9-2.2,4.9-4.8S42.7,628.9,40,628.9z"/>
	</g>
</g>
<rect x="-253" y="86.2" class="st17" width="75" height="65.4"/>
</svg>
